<?xml version="1.0" encoding="UTF-8"?>
<svg id="Palmrecognition" xmlns="http://www.w3.org/2000/svg" xmlns:xlink="http://www.w3.org/1999/xlink" viewBox="0 0 4000 4000">
  <defs>
    <style>
      .cls-1 {
        fill: url(#linear-gradient-4);
      }

      .cls-1, .cls-2, .cls-3, .cls-4, .cls-5, .cls-6, .cls-7, .cls-8, .cls-9, .cls-10, .cls-11, .cls-12, .cls-13, .cls-14 {
        fill-rule: evenodd;
      }

      .cls-15 {
        fill: url(#linear-gradient-2);
      }

      .cls-2 {
        fill: #e2dbf9;
      }

      .cls-3 {
        fill: #fff;
      }

      .cls-4 {
        fill: #f4f2fd;
      }

      .cls-5 {
        fill: url(#linear-gradient-9);
      }

      .cls-6 {
        fill: url(#linear-gradient-6);
      }

      .cls-16 {
        clip-path: url(#clippath-1);
      }

      .cls-7 {
        fill: url(#linear-gradient-5);
      }

      .cls-8 {
        fill: #af9afb;
      }

      .cls-9 {
        fill: url(#linear-gradient-10);
      }

      .cls-10 {
        fill: url(#linear-gradient-11);
      }

      .cls-17 {
        clip-path: url(#clippath);
      }

      .cls-18 {
        fill: none;
      }

      .cls-19 {
        fill: url(#linear-gradient-3);
      }

      .cls-20 {
        fill: url(#linear-gradient);
      }

      .cls-11 {
        fill: #e9e3fe;
      }

      .cls-12 {
        fill: url(#linear-gradient-7);
      }

      .cls-13 {
        fill: url(#linear-gradient-8);
      }
    </style>
    <linearGradient id="linear-gradient" x1="-1925.99" y1="-5244.71" x2="-1903.46" y2="-5243.59" gradientTransform="translate(-528883.52 -261028.53) rotate(134.89) scale(112.11 107.27) skewX(-2.61)" gradientUnits="userSpaceOnUse">
      <stop offset="0" stop-color="#e2dbf9"/>
      <stop offset=".54" stop-color="#c9bbfa"/>
      <stop offset="1" stop-color="#7048fc"/>
    </linearGradient>
    <linearGradient id="linear-gradient-2" x1="-2004.77" y1="-5254.64" x2="-1982.24" y2="-5254.64" gradientTransform="translate(-289184.71 -53551.67) rotate(121.65) scale(52.78)" gradientUnits="userSpaceOnUse">
      <stop offset="0" stop-color="#e2dbf9"/>
      <stop offset=".54" stop-color="#c9bbfa"/>
      <stop offset="1" stop-color="#7048fc"/>
    </linearGradient>
    <linearGradient id="linear-gradient-3" x1="-1887.8" y1="-5324.16" x2="-1865.26" y2="-5324.16" gradientTransform="translate(-187268.35 519583.15) rotate(39.4) scale(97.5)" gradientUnits="userSpaceOnUse">
      <stop offset="0" stop-color="#e2dbf9"/>
      <stop offset=".56" stop-color="#cabdfa"/>
      <stop offset="1" stop-color="#7048fc"/>
    </linearGradient>
    <clipPath id="clippath">
      <path class="cls-18" d="M1820.38,2046.51c85.09,212.49,377.15,550.1,639.55,550.06,379.03,.02,784.77-992.57,784.77-992.57,153.2-104.32,59.42-249.17-9.81-370.61l-105.46,260.31s-456.25,638.11-652.9,609.37c-196.67-28.69-417.72-772.17-527.07-781.61-109.35-9.44-214.15,512.51-129.08,725.05h0Z"/>
    </clipPath>
    <linearGradient id="linear-gradient-4" x1="-1972.83" y1="-5334.29" x2="-1950.3" y2="-5334.29" gradientTransform="translate(-298170.08 141530.6) rotate(85.3) scale(58.29)" gradientUnits="userSpaceOnUse">
      <stop offset="0" stop-color="#4427aa"/>
      <stop offset=".45" stop-color="#361d90"/>
      <stop offset="1" stop-color="#160551"/>
    </linearGradient>
    <linearGradient id="linear-gradient-5" x1="-1979.43" y1="-5284.62" x2="-1956.89" y2="-5284.62" gradientTransform="translate(-365001.45 62420.41) rotate(101.02) scale(65.89)" gradientUnits="userSpaceOnUse">
      <stop offset="0" stop-color="#5f3ed3"/>
      <stop offset="1" stop-color="#160551"/>
    </linearGradient>
    <linearGradient id="linear-gradient-6" x1="-2024.63" y1="-5315.9" x2="-2002.1" y2="-5315.9" gradientTransform="translate(-225590.03 62057.6) rotate(96.04) scale(41.29)" gradientUnits="userSpaceOnUse">
      <stop offset="0" stop-color="#e9e3fe"/>
      <stop offset=".47" stop-color="#bdaef2"/>
      <stop offset="1" stop-color="#764fff"/>
    </linearGradient>
    <clipPath id="clippath-1">
      <path class="cls-18" d="M936.89,1323.18c-174.88,108-562.37,447.13-506.53,703.49,80.72,370.36,463.28,761.02,463.28,761.02,14.68,128.1,124.1,157.53,147.05,165.77,19.83,7.09-57.81-172.91-49.44-187.34,26.96-46.34,80.04,23.79,92.34-21.52,7.79-28.6-60.04-81.02-120.36-74.34,0,0-272.51-510.12-195-739.16,77.58-229.04,622.89-211.9,660.27-635.07,9.99-113.09-34.77-254.98-491.63,27.15h0Z"/>
    </clipPath>
    <linearGradient id="linear-gradient-7" x1="-1966.51" y1="-5212.59" x2="-1943.98" y2="-5212.59" gradientTransform="translate(-348078.44 -144265.08) rotate(133.26) scale(67.93)" gradientUnits="userSpaceOnUse">
      <stop offset="0" stop-color="#4729b3"/>
      <stop offset=".56" stop-color="#3e229f"/>
      <stop offset="1" stop-color="#160551"/>
    </linearGradient>
    <linearGradient id="linear-gradient-8" x1="-1995.04" y1="-5272.76" x2="-1972.51" y2="-5272.76" gradientTransform="translate(-374161.86 -47640.59) rotate(118.03) scale(67.6)" gradientUnits="userSpaceOnUse">
      <stop offset="0" stop-color="#bdaaff"/>
      <stop offset=".6" stop-color="#a991ff"/>
      <stop offset=".81" stop-color="#7e5aff"/>
      <stop offset="1" stop-color="#5322ff"/>
    </linearGradient>
    <linearGradient id="linear-gradient-9" x1="-2099.77" y1="-5272.2" x2="-2077.24" y2="-5272.2" gradientTransform="translate(-209213.08 -34963.21) rotate(121.3) scale(38.06)" gradientUnits="userSpaceOnUse">
      <stop offset="0" stop-color="#bdaaff"/>
      <stop offset=".47" stop-color="#a085ff"/>
      <stop offset="1" stop-color="#5322ff"/>
    </linearGradient>
    <linearGradient id="linear-gradient-10" x1="-2217.24" y1="-5319.81" x2="-2194.71" y2="-5319.75" gradientTransform="translate(77615.58 113021.35) rotate(123.5) scale(23.51 -23.53) skewX(-.15)" gradientUnits="userSpaceOnUse">
      <stop offset="0" stop-color="#af9afb"/>
      <stop offset=".64" stop-color="#a086fc"/>
      <stop offset=".84" stop-color="#7650fd"/>
      <stop offset="1" stop-color="#4612ff"/>
    </linearGradient>
    <linearGradient id="linear-gradient-11" x1="-1622.68" y1="-5049.69" x2="-1600.15" y2="-5049.69" gradientTransform="translate(116240.89 -80081.89) rotate(-107.54) scale(26.47)" gradientUnits="userSpaceOnUse">
      <stop offset="0" stop-color="#000"/>
      <stop offset=".53" stop-color="#121212"/>
      <stop offset="1" stop-color="#4d4d4d"/>
    </linearGradient>
  </defs>
  <path class="cls-4" d="M1904.01,659.34c1896.15-49.59,2077.17,1344.5,1679.09,1355.83-769.3,21.88-819.92,444.5-1326.87,912.53-818.81,756-1782.36,799.15-1724.88-1171.66,24.16-827.14,603.28-1076.58,1372.66-1096.7h0Z"/>
  <path class="cls-4" d="M3219.92,2199.59c547.9-122.35,653.32,123.93,538.33,149.79-222.22,49.96-191.95,127.19-346.8,250.71-225.99,180.28-486.72,109.69-547.89-116.3-40.74-150.56,134.04-234.55,356.35-284.2h0Z"/>
  <path class="cls-20" d="M3030.77,2752.38c-36.19-10.47-68.63-20.67-102.3-34.72-43.81-17.22-82.35-45.96-125.14-65.22-40.75-19.58-85.23-27.44-127.67-42.13-23.26-7.02-48.37-19.82-74.32-27.43,9.26-2.62,18.9-5.44,28.44-7.96,5.93-1.37,11.97-3.05,17.62-4.52,8.44,4.23,17.1,8.02,25.93,11.37,19.47,7.76,39.44,15.02,59.86,20.03,47,10.79,94.85,19.13,143.56,21.26,51.35,.99,100.09-13.64,149.03-15.88,16.24-.54,32.89,1.45,48.14,1.93,2.61-.12,5.96-2.39,5.66-5.23-2.2-3.84-7.57-5.02-11.17-7.63-34.71-21.26-72.79-36.49-113.66-38.99-51.26-4.04-101.91,6.85-150.24-4.74-12.79-2.38-25.4-5.6-37.76-9.65,18.03-8.48,36.16-17.27,53.65-26.97,29.48-16.51,56.67-37.57,84.59-57.01,40.58-29.1,83.56-54.97,120.53-89.43,5.45-4.62,18.7-17.84,4.07-16.4-18.9,5.44-37.47,12.71-56.63,17.04-113.42,16.24-218.1,70.08-297.27,152.9-11.18,11.88-21.88,24.27-30.8,37.96-.63,.77-1.15,1.63-1.53,2.55-18.41,4.93-36.34,10.37-54.67,16.01-.68,.11-1.07,.31-1.75,.42-6.82,2.09-13.65,4.18-20.19,6.37,4.87-7.56,10.05-16.04,14.14-20.44,12.73-15.45,24.93-22.87,39.72-35.9,35.94-32.42,67.48-72.52,84.81-118.91,16.04-41.71,33.64-77.72,59-114.83,12.09-35.88-126.99,101.57-133.65,107.83-31.49,28.82-51.9,68.32-68.56,108.1-7.88,20.9-14.2,44.74-23.7,61.99-4.14,9.18-10.65,16.86-15.55,25.44-.02,.48,.03,.96,.15,1.42-14.54,4.89-29,10.51-43.36,15.81-.39,.21-.68,.11-1.07,.31-6.64,2.5-13.28,4.99-19.75,7.89,.32-.92,.35-1.93,.67-2.85,1.3-5.15,3.23-10.11,5.76-14.78,29.36-47.71,66.76-89.89,98.47-136.09,16.77-24.33,33.46-49.37,44.34-77.1,7.95-20.19,11.83-46.24,20.26-63.18,10.43-18.99,22.93-36.58,35.62-53.76,1.74-3.17,14.2-15.97,17.42-23.42,1.62-12.11-15.17,.23-19.96,2-43.46,25.36-81.89,60.34-112.78,101.36-20.56,25.07-40.46,51.05-54.31,80.84-25.4,51.13-35.42,114.43-58.8,162.49-6.97,13.96-15.5,27.09-25.43,39.14-2.1,2.36-1.48,4.28,.24,4.88-18.5,7.98-36.52,16.46-54.66,25.25,4.62-28.19,21.72-57.2,37.61-84.57,18.73-31.87,35.1-65.24,51.18-98.7,10.65-23.36,20.55-47.33,25.76-72.58,6.78-39.08,7.66-77.81,16.68-114.07,2.99-11.72,6.85-23.2,11.56-34.35,1.8-5.2,5.53-10.41,4.25-15.99-1.27-2.84-5.16-1.79-7.34-.14-5.38,5.33-8.88,12.68-13.79,18.51-15.47,19.64-36.12,47.77-51.89,71.07-32.39,49.05-61.9,101.84-75.63,160.09-10.2,43.38-10.1,91.35-18.66,131.87-2.82,16.49-5.45,33.38-13.25,48.49-.21,.61-.92,1.74-.82,1.43-.63,1.83-2.63,3.88-2.01,5.81,.14,.31,.42,.53,.75,.6-24.23,12.5-47.93,26.21-71.44,40.34,.3-3.66-.25-7.62,.73-11.39,.61-7.32,3.95-18.83,7.05-28.72,8.25-23.85,20.78-45.2,30.13-70.38,20.24-46.41,21.59-97.64,26.17-147.08,4.45-54.61,0-108.54-.49-162.81,.21-9.15,.91-18.28,2.08-27.36l.32-.92c2.07-9.18,3.67-18.45,4.8-27.79,.7-3.87-3.89-5.45-6.56-3.3-3.93,2.07-3.4,7.04-4.38,10.81-1.47,7.03-2.26,13.94-3.05,20.85-5.94,27.39-15.14,56.74-24.06,83.44-16.85,43.13-40.01,84.08-50.95,129.6-9.65,38.1-6.8,78.11-.99,116.07,3.75,19.79,8.33,34.38,6.93,55.13,0,19.51-1.39,36.5-5.96,53.41-2.15,7.13-4.76,13.76-7.48,20.69-.29,.86-.14,1.81,.41,2.54,.63,.56,1.45,.85,2.29,.79-16.58,9.98-33.05,20.14-49.41,30.5,3.6-5.73,6.66-11.78,9.14-18.07,10.9-24.99,14.23-52.25,17.75-79.12,4.59-33.68,5.53-67.94-1.01-101.01-4.86-27.7-14.4-53.95-20.73-81.13-6.94-31.89-10.43-64.43-10.4-97.07,.07-1.77,.25-3.54,.55-5.29,1.01-4.79,1.92-9.26,2.54-13.84-7.22-6.95-10.37,1.2-11.66,15.14-6.49,32.68-18.65,70.59-21.91,105.07-3.65,50.44,2.15,101.41,12.95,150,5.83,27.7,19.26,52.89,19.72,79.41,.29,15.85-3.94,28.08-8.97,44.49-.45,2.24-2.66,4.9-.89,7.22l.57,.2c-.26,.61-.38,1.27-.35,1.93-74.58,48.49-145.98,103.56-209.17,168.32-7.79,8.6-15.98,17.41-23.3,26.52-1.56,3.57,2.74,5.06,5.49,3.61,9.33-8.41,16.72-19.55,25.87-28.37,71.35-72.55,152.27-132.88,239.17-186.36,27.7,22.94,48.5,53.76,75.21,77.73,51.86,45,121.31,57.73,182.09,85.27,6.13,1.78,15.89,7.9,20.29-.17,.37-1.1,.02-2.31-.87-3.04-3.88-2.71-8.07-4.51-12.16-6.61-24.18-11.79-42.07-26.89-61.57-46.64-6.83-7.16-13.78-14.01-20.82-20.56,9.94,6.52,20.39,12.53,30.83,18.54,32.23,20.06,72.3,33.24,105.24,42.92,32.84,12.54,63.14,30.92,89.44,54.24,6.07,3.81,11.65,10.88,18.77,11.63,11.29-2.94,1.59-11.09-2.62-15.63-35.2-33.75-65.6-73.03-104.21-102.49-22.41-15.97-43.61-27.08-63.66-44.29-21.73-16.08-40.23-36.86-63.16-51.3-29.5-17.74-64.26-21.21-93.03-34.59-8.28-3.89-14.43-8.42-20.57-12.94,21.62-12.38,43.03-24.14,65.2-35.3l15.53,13.59c28.23,27.91,60.97,50.2,94.85,70.15,26.38,15.63,55.66,24.74,80.62,42.62,54.61,37.05,99.29,99.07,157.37,136.29,14.68,9.53,28.66,20.19,43.55,29.11,6.1,2.8,14.68,9.53,20.59,2.67,2.37-5-4.01-7.89-6.53-10.82-8.45-8.06-17.19-16.22-24.64-25.3-38.27-47.14-72.85-98.48-120.09-136.4-50.02-41.96-102.64-81.06-161.39-108.92-21.7-10.59-43.63-23.32-68.43-24.02-2.84,.02-5.67-.16-8.48-.54,20.88-10.23,42.41-19.56,64.41-28.38,6.75-2.8,13.39-5.29,20.14-8.1,12.48,12.19,20.26,29.61,35.02,39.85,49.03,36.48,103.34,64.18,160.3,84.23,89.51,32.69,177.5,74.44,273.75,82.07,7.91,.34,16.12,3.52,24.02,1.12,11.13-7.11-8.57-10.5-12.95-12.7-16.24-5.96-27.74-8.92-44.52-16.09-18.44-9.81-36.07-21.04-54.08-32.07-47.13-28.98-94.12-59.28-145.46-79.78-53.67-20.28-105.86-31.84-156.76-57.33-15.24-6.99-29.99-14.49-44.41-22.9,25.89-9.87,51.58-19.13,77.9-27.48,.87,3.04,5.93,5.13,7.98,7.56,18.36,15.6,40.99,24.45,61.69,36.07,32.44,19.45,63.05,42.36,97.23,58.64,53.32,22.22,105.01,40.79,162.5,52.81,36.07,8.03,72.83,15.96,110.22,15.54,6.2,2.5,34.56,.33,24.71-9.24h0Zm-768.19-23.77c.18,.41,.47,.5,.65,.91s5.19,7.27,3.42,4.95c8.96,16.79,21.27,31.33,33.79,45.25,2.23,2.83,4.57,5.35,6.91,7.87-21.77-13.9-45.67-24.14-70.75-30.3-5.55-1.58-9.96-2.76-14.26-4.25,13.2-8.44,26.58-16.48,40.24-24.42h0Z"/>
  <path class="cls-15" d="M2664.3,1951.99c-35.36,25.81-67.66,48.59-103.8,70.74-46.22,29.28-97.1,49.13-144.08,76.66-45.67,25.68-85.36,59.58-128.64,88.8-22.95,16.46-51.64,31.97-77.07,50.43,5.06-8.9,10.27-18.21,15.62-27.31,3.48-5.57,6.8-11.36,9.99-16.74,9.66-5.24,19.03-10.91,28.24-16.81,20.62-12.96,41.24-26.56,60.52-41.51,43.8-34.74,86.42-71.25,125.02-111.18,39.75-42.64,65.77-89.86,101.26-131.88,11.93-13.86,26.08-26.95,38.02-39.53,1.89-2.24,2.74-6.04,.37-7.02-4.56,.18-9.53,4.18-14.21,6.06-42.34,19.89-82.72,45.22-115.64,78.42-41.98,41.24-72.26,88.44-117.68,123.95-10.21,8.83-23.8,18.97-35.93,27.49,7.32-18.8,14.48-37.82,20.47-56.69,9.98-31.88,14.8-63.82,21.39-95.67,8.94-46.65,22.15-93.93,24.33-139.88,.67-6.58,.79-23.42-9.24-10.52-10.27,18.21-18.91,36.94-30.2,54.89-72.15,99.32-113.24,211.85-110.85,315.64,.44,14.53,1.62,28.88,5.15,42.29,.09,.84,.35,1.65,.76,2.39-10.27,17.57-19.81,34.97-29.49,52.79-.44,.62-.58,1.03-1.01,1.65-3.61,6.63-7.22,13.26-10.54,19.69-1.99-7.36-4.43-15.38-4.63-20.73-1.95-17.38,1.75-30.83,3.18-48.88,2.93-44.2-3.26-88.05-24.96-122.71-19.17-31.54-32.88-61.93-41.5-99.29-17.78-25.7-20.09,150.56-20.45,158.86-2.25,38.91,11.94,73.16,29.19,104.39,9.73,15.67,22.85,31.31,28.6,46.77,3.76,7.46,4.58,16.24,7.31,24.07,.59,.25,.74,.47,1.18,.49-7.36,14.32-14.13,28.88-21.05,43.22-.14,.42-.44,.62-.58,1.03-3.17,6.65-6.34,13.31-9.07,19.98-.45-.66-1.19-1.13-1.64-1.8-2.88-3.33-5.16-7.13-6.74-11.24-13.57-45.31-16.88-94.97-27.51-141.62-5.55-24.62-11.7-49.48-24.28-70.63-9.14-15.42-25.78-29.98-32.11-44.4-6.36-16.98-10.08-35.1-13.35-53.19-1.06-2.83-1.22-18.84-4.38-24.76-7.87-6.61-11.35,12.82-13.66,17.6-13.94,47.45-16.84,94.85-9.47,138.55,3.23,28.12,7.64,56.08,19.53,80.62,19.14,43.48,59.11,79.34,77.49,119.8,5.27,12.19,8.68,25.1,10.11,38.3,.17,2.78,2.1,3.1,3.84,1.91-8.05,18.97-15.36,37.77-22.53,56.79-17.68-16.1-26.5-43.03-35-68.23-9.73-29.53-22.38-57.73-35.33-85.73-9.47-19.07-19.97-37.77-34.99-53.08-24.23-22.64-52.68-40.18-73.08-63.46-6.53-7.57-12.24-15.82-17.04-24.6-2.54-3.76-3.63-9.15-8.79-10.5-3.09-.17-5.26,3.55-5.68,6.09-.08,6.82,2.78,12.95,3.44,19.6,3.02,21.49,8.47,51.01,14.01,74.34,12.28,48.44,29.55,96.09,62.9,132.87,24.87,27.37,61,48.09,84.96,72.85,10.25,9.51,20.95,19.05,26.39,32.14,.3,.44,.6,1.53,.45,1.3,.9,1.33,.92,3.89,2.84,4.21,.38,0,.74-.13,1.03-.37-9.01,25.75-16.69,51.56-23.94,77.41-2.52-1.84-5.92-3.09-8.01-5.55-5.04-3.69-11.16-11.48-16.24-18.37-11.66-17.27-18.19-37.03-30.02-55.8-19.52-37.1-57.01-60.46-90.68-85.75-37.68-27.42-81.6-47.07-122.77-70.21-6.64-4.09-12.98-8.64-18.99-13.61l-.45-.66c-5.37-5.75-11.13-11.12-17.24-16.08-2.38-2.26-7.06,.9-7.47,4.08-1.43,4.19,2.71,5.91,4.8,8.36,4.21,4.15,8.67,8.02,13.37,11.6,16.08,16.87,31.15,37.31,44.45,56.37,19.62,32.84,32.81,70.03,58.73,98.94,21.31,24.61,53.55,39.58,86.5,51.18,17.72,5.44,32.18,7.92,46.71,18.1,14.66,8.47,26.38,17,35.62,28.16,3.58,4.89,6.88,9.98,9.87,15.25,.54,.65,1.39,.94,2.21,.76,.91-.29,1.73-.84,2.34-1.58-5.08,18.16-9.94,36.39-14.6,54.66-1.54-5.43-3.78-10.64-6.64-15.5-10.51-19.98-28.47-34.6-46-49.2-21.83-18.46-46.87-34.1-76.7-42.97-24.52-7.94-51.49-11.32-76.74-17.8-28.28-7.61-55.46-18.83-80.87-33.39-1.26-.82-2.45-1.74-3.56-2.75-2.68-2.86-5.51-5.57-8.47-8.14-10.72,3.05-6.97,9.22,2.52,16.35,19.63,19.62,38.9,46.25,62.34,63.95,35.15,24.94,77.87,42.18,122.6,54.2,25.25,7.13,54.39,6.78,74.68,17.91,12.14,6.63,18.12,15.48,26.63,26.82,1.34,1.35,1.66,4.36,4.75,3.88l.58-.39c.27,.49,.68,.89,1.19,1.13-20.19,83.58-33.02,167.35-32.34,248.44,.55,10.27,.95,20.95,2.23,31.05,1.5,2.85,5.89-.11,6.89-3.04,.77-11.48-2-22.5-1.67-34-.35-91.31,15.76-185.35,41.57-281.42,38.29-13.28,77.26-17.36,115.56-29.36,73.22-23.98,135.54-76.7,202.41-115.73,5.99-4.37,18.01-9.9,15.28-17.09-.75-.82-1.95-1.06-2.95-.58-4.98,2.08-9.52,4.82-14.21,7.34-27.23,15.16-52.17,23.62-81.83,31.4-10.57,2.63-21,5.47-31.27,8.54,12.46-5.51,24.91-11.66,37.36-17.81,39.56-18.33,79.91-46.22,112.2-69.64,33.83-21.84,70.38-39.16,108.71-51.49,7.47-3.43,17.03-5.05,23-10.7,6.37-10.75-7.13-6.15-13.74-4.58-52.11,14.88-104.73,23.34-156.2,42.95-29.03,11.87-53.48,24.83-81.65,34.18-28.59,11.25-58.26,17.75-86.54,30.72-35.75,17.05-64.76,44.7-96.66,63.02-8.14,4.51-16.62,8.4-25.35,11.64,7.12-23.5,14.54-46.56,22.98-69.99l22.01-7.13c42.43-11.57,84.05-29.36,124.77-49.13,31.79-15.34,60.87-35.95,93.27-49.13,69.33-29.73,149.9-40.3,221.99-72.87,18.32-8.18,36.94-15.28,54.96-23.9,6.73-3.9,18.32-8.18,17.65-16.11-1.96-4.16-8.98-.06-13.09,.78-12.48,3.59-25.25,7.38-37.74,9.69-64.51,11.65-129.36,18.38-193.76,41.55-69.54,23.75-138.89,50.92-204.46,88.11-24.45,13.61-50.67,26.48-70.04,46.97-2.16,2.41-4.45,4.71-6.85,6.88,8.17-21.95,17.51-44.06,27.58-66.33,3.02-6.87,6.19-13.53,9.21-20.4,18.64-5.18,37.65-4.15,56.56-12.08,64.66-25.29,126.74-58.83,185.08-97.9,92.56-60.9,190.78-116.58,269.63-194,6.26-6.49,14.89-11.99,19.08-19.66,3.11-12.42-14.4,2.63-19.38,5.35-16.82,11.03-27.77,19.4-45.91,30.36-21.38,11.21-43.21,21.12-65.19,31.45-57.58,26.96-116.05,53.22-170.47,87.39-56.01,36.21-104.34,74.97-162.17,106.61-16.83,9.75-33.67,18.87-50.95,27.32,12.25-26,24.79-51.55,38.51-77.26,2.95,.58,8.36-2.75,11.74-3.42,25.67-8.63,49.51-23.77,73.98-36.09,39.26-18.78,79.73-34.5,117.93-56.11,57.2-35.08,110.43-70.38,163.13-113.38,33.44-26.77,67.31-54.16,95.4-85.7,6.6-4.12,26.52-28.85,11.84-24.74h0Zm-601.35,633.97c.44,.02,.73-.17,1.18-.15s9.41-1.2,6.32-.72c19.43-.23,39.71-4.25,59.68-8.71,3.82-.65,7.49-1.51,11.16-2.38-27.22,12.37-52.9,27.87-76.52,46.19-5.41,3.97-9.64,7.16-14.03,10.12,3.68-14.73,7.79-29.44,12.2-44.34h0Z"/>
  <path class="cls-19" d="M506.93,2772.24c-5.62-25.28,4.36-54.3,22.85-71.72l5.49-4.62c-4.49-3.11-9.65-6.27-13.34-10.66-6.83-7.38-9.69-17.48-9.86-27.34,.24-7.28,3-14.24,7.82-19.7,4.15-4.74,9.89-8.31,14.96-11.95,8.12-7.45,18.7-11.97,29-9.38,5.14-16.19,18.88-25.87,41.69-22.54,17.78,2.56,35.3,15.96,35.01,34.95,.78,10.59-4.31,22.38-.97,30.82,3.84,10.52,18.58,16.89,24.1,4.12,4.61-10.14,.47-21.02-7.24-30.17-15.45-17.64-37.15-33.79-29.42-60.28,12.75-41.35,81.76-49.98,100.62-8.95,.85,1.67,1.5,3.44,1.92,5.26q.37-.31,1.04-.25c-.1-3.52,.32-7.03,1.24-10.42,2.42-8.28,6.43-15.41,7.07-22.82,.95-7.05-1.34-12-5.65-17.13-8.12-8.17-22.68-16.57-25.19-30.71-1.19-5.88,.13-13.23,5.14-16.19,4.64-2.65,12.73-1.95,13.86,4.6,.38,3.43-2.24,6.26-5.05,7.37-1.41,.56-4.04-.35-3.87-2.37,.43-.98,1.83-1.54,2.2-1.85l.73-.62c2.07-4.24-1.13-6.55-5.1-3.84-5.98,6.27-2.68,19.13,5.14,26.94,4.31,5.13,12.42,9.56,17.29,16.1,3.64,5.07,6.48,11.43,5.59,17.8-.76,8.77-6.72,18.78-7.67,25.83-.1,1.92-.38,3.83-.83,5.7,3.47-1.34,7.09-2.28,10.77-2.8,16.72-.93,34.28,8.06,42.5,23.04,4.53,7.59,7.72,15.91,9.42,24.59,8.57-.96,18.3-3.51,27.32-1.71,.67,.06,1.66,.48,2.33,.54-1.17-2.14-2.04-3.91-3.21-6.05-24.13-54.73-37.01-113.92-62.18-168.4-2.54-5.99-5.44-11.68-8.29-18.04-.73,.62-1.83,1.54-1.89,2.21-5.98,6.27-11.77,14.26-20.2,17.61-8.8,3.09-18.57,1.34-25.75-4.61-4.43-3.78-7.08-8.42-10.78-12.82-4.93-5.86-11.99-10.55-18.81-14.19-10.13-4.61-22.03-8.36-27.96-18.38-4.5-6.84-6.86-14.86-8.24-22.45-20.93,6.34-43.83,8.09-61.78-4.33-1.41,.56-3.18,1.42-3.24,2.1-8.41,5.41-17.34,9.98-26.66,13.64-33.15,14.11-70.16-1.66-78.95-37.4-.44-2.75-1.19-5.88-1.63-8.63-15.93-.36-22.97-13.2-27.45-28.19-2-8.32-1.6-16.78-3.23-25.41-.63-4.47-1.88-9.67-3.07-15.55-10.62,8.93-22.73,27.24-38.16,17.07-23.85-18.71-25.98-56.93-8.31-80.53-3.6-1.12-7.27-2-10.98-2.65-3.31-.97-15.32,.37-21.63-1.19-14.41-2.26-12.7-18.08-6.8-27.42,10.06-17.8,25.42-32.02,43.94-40.69,1.04-.25,1.77-.87,2.81-1.11-.87-1.77-1.67-4.22-2.23-5.63-1.25-5.18-.78-10.62,1.34-15.51,12.39-25.42,48.93-19.88,74.56-13.92-2.38-14.01,1.6-28.35,10.86-39.14,14.94-15.69,39.57-29.52,60.33-18.21,8.62-5.37,19.46-5.11,29.03-1.9,7.48,2.37,14.51,5.96,20.82,10.63,1.29,.79,2.21,1.89,3.5,2.68-5.21-14.38-9.74-28.69-15.32-42.76-1.4-.18-2.68-.9-3.56-2.01-5.25-9.96-11.51-12.2-20.6-17.07-16.33-7.53-29.33-10.35-47.86-16.03-18.22-5.31-36.01-11.61-53.75-18.58-7.13,7.87-15.08,13.3-22.09,19.82-5.98,6.27-8.08,14.92-11.53,23.45-5.46,12.09-13.31,24.32-25.67,29.7-8.82,3.96-18.62,5.24-28.17,3.68-.67-.06-.98-.42-1.35-.12-.08,.73-.38,1.41-.85,1.96-5.35,10.74-12.71,21.32-23.66,26.14-9.6,4.94-25.22,4.95-33.18,6.64-13.16,2.94-21.7,11.37-35.34,15.96-11.93,4.4-26.14,3.84-37.08-3.21-10.01-5.96-15.34-18.99-11.65-30.21,1.47-4.23,3.65-8.17,6.44-11.67-3.88-2.89-7.46-6.16-10.7-9.76-9.66-10.01-11.81-24.45-2.67-35.89,3.78-4.43,10.86-11.63,12.55-15.55,7.06-10.94,2.47-24.58,4.98-37.95,4.39-19.32,19.27-34.33,36.95-42.31-7.41-12.53-1.4-26.95,4.67-38.31,3.4-7.86,3.06-15.7-.65-23.83-4.39-8.19-7.9-14.61-2.24-21.25-2.58-1.58-4.79-3.47-7.68-5.42-8.97-6.21-15.03-18.62-10.73-29.12,2.61-6.57,8.1-11.18,12.92-15.86,5.61-6.46,9.64-14.13,11.79-22.41,2.11-8.65,3.29-18.39,10.12-26.63,17.26-18.88,53.56-26.27,71.36-4.35,8.26,10.56,7.78,27.84,20.72,31.34,1.37,.23,2.78,.12,4.1-.32-10.35-13.8-16-30.93-30.19-39.63-10.63-6.69-25.3-13.74-33.75-26.01-4.44-7.52-6.57-18.23-2.14-26.34,3.95-6.45,11.35-9.55,18.14-13.37l1.1-.92c-3.94-3.98-7.9-7.95-11.88-11.9l-.37,.31c-6.87,4.8-16.29,3.38-21.46-3.22-3.08-3.66-4.62-5.49-7.81-7.81-.74-.6-1.68-.93-2.64-.91-4.72-.41-8.57,.96-14.33,.8-17.28-.48-21.16-18.47-14.23-31.8,2.43-4.54,6.09-7.62,10.06-10.34-2.77-3.3-5.91-6.29-8.68-9.58-.73,.62-2.14,1.17-2.87,1.79-8.67,6.04-11.44,18.37-13.84,30.39-2.34,11.34-8.84,23.69-20.71,27.41-16.09,5.4-33.71-2.91-43.81-15.68-6.72-8.74-10.62-18.58-20.38-23.5-3.2-2.31-13.81-5.27-18.97-8.43-5.9-3.3-10.39-8.64-12.62-15.02-1.15-3.2-1.67-6.59-1.51-9.98l-.73,.62c-4.71,5.35-7.86,11.89-9.11,18.91-1.01,7.72,2.4,15.49,5.67,20.87,5.62,9.66,17.38,22.9,8.97,33.72-4.57,5.72-11.99,5.07-18.48,5.53-.37,.31,0,0,.67,.06-7.78-.33-14.32,4.53-15.15,10.24-.77,5.03,5.66,5.24,10.36,1.92l1.46-1.23c.98,.42-2.02-.17-2.33-.54-1.91-1.52,.29-3.37,2.31-3.2,3.06-.07,7.3,1.99,5.29,5.55-2.37,3.87-7.27,5.48-11.37,5.81-12.99,.91-14.02-10.72-4.92-17.75,6.96-5.85,18.67-3.82,23.51-4.76,9.42-2.92,6.73-15.04,1.93-22.25-8.14-11.91-17.39-26.64-11.02-41.37,2.55-5.89,5.52-12.77,11.57-15.98-.29-.44-.76-.73-1.29-.79-4.49-3.1-6.39-4.63-11-6.39-10.13-4.61-27.8,3.37-43.86,.62-16.49-1.77-31.69-18.37-27.17-35.3,3.32-10.92,12.85-18.93,22.81-24.18-12.48-8.89-29.14-8.64-42.36-20.65-9.35-9.64,7.41-14.98,14.14-18.14,5.32-2.6,16.5-10.12,25.32-10.03,1.04-.25,2.02,.17,3.06-.07l-.31-.37c-.69-3.8-.96-8.57,1.72-12.08,11.15-15,50.38-9.22,67.96,3.5l-.31-.37c-4.96-9.26-6.45-19.99-4.17-30.25,7.42-20.1,27.2-32.9,48.57-31.46l.67,.06c-3.41-2.71-6.68-5.6-9.78-8.66-5.29-4.73-11.08-8.88-17.27-12.36-21.06-11.67-46.14-16.22-65.2-31.46-4.43-3.78-10.53-11.78-4.97-17.07,4.7-3.33,11.02-1.76,16.41-1.3,11.04,1.97,24.27,2.1,34.43-1.44,12.18-3.36,23.97-10.15,37.09-8.68,1.38-1.15,2.54-2.55,3.41-4.12,13.28-16.17,35.52-17.98,55.3-18.99,13.66-.86,24.8-3.96,35.49-9.83,23.17-12.6,44.76-34.5,72.64-34.81,12.61-.02,24.41,6.22,31.5,16.65,8.45,12.28,5.83,30.73-9.22,35.88-18.11,5.22-26.97-17.96-41.94-21.63-1.66-.48-6.68-1.26-9.13-.45-3.24,1.15-6.25,2.84-8.92,5-3.66,3.08-6.71,6.89-10.62,8.93,.92,1.1,1.48,2.51-.1,5.09-5.3,6.33-14.49,6.56-21.28,10.38-8.5,4.02-18.5,13.68-25.81,23.58-6.52,8.6-11.91,23.77-17.92,34.45-4.92,9.04-11.74,16.91-20,23.07-1.54,1.19-3.23,2.18-5.01,2.96,.03,7.47,.43,14.64,.52,21.44,.37-.31,1.04-.25,1.41-.56,3.12-1.07,6.1-2.52,8.86-4.33,8.62-5.37,16.12-13.55,26.15-15.74,5.88-1.19,12.25-.3,17.05,3.17,4.49,3.11,8.43,8.54,8.64,13.99,1.21,9.61-4.64,18.28-9.75,26.33-2.43,4.54-4.19,9.15-3.44,12.27,.98,2.47,2.88,4.46,5.29,5.55,3.99,1.03,8.52-.28,15.06-1.41,1.35-.3,2.73-.41,4.1-.32l.23-2.7c.55-14.21,10.98-24.86,25.2-24.31,29.65-1.17,51.36,46.22,13.46,52.45-5.51,.88-11.69,1.71-17.09,1.24,.56,3.63,.92,7.29,1.09,10.96,2.05,1.06,3.88,2.48,5.41,4.2,4.99,5.19,5.38,12.35,4.8,19.09-.82,9.68-5.38,18.66-12.7,25.05-8.42,7.08-18.29,7.25-24.38,14.87-2.62,2.83-3.45,8.53-2.76,12.33,1.25,5.2,3.48,10.83,3.68,16.28,.26,3.52-.16,7.06-1.24,10.42l9.24,10.99,1.1-.92c7.04-4.72,13.82-9.8,20.34-15.22,12.93-12.13,21.15-24.66,28.31-40.68,1.7-3.93,3.4-7.86,4.73-11.48-14.02-26.35,12.53-34.92,11.07-61.19-.26-5.53-.92-11.04-1.97-16.47-3.96-5.2-6.37-11.41-6.94-17.92-.34-7.84,1.65-15.15-.83-21.81-2.11-6.98-6.31-13.45-5.67-20.87,.26-10.85,12.93-12.13,21.16-9.04,15.89,4.77,28.81,16.42,37.5,29.74,5.67,8.98,9.58,18.83,10.36,29.42-.06,.67,.25,1.04-.12,1.35,3.89-.75,7.65-2.02,11.2-3.79,.67,.06,6.84-4.5,9.9-4.58,4.67-.46,9.35,.67,13.31,3.19,9.84,7.98,12.77,21.14,17.91,32.46,8.6,18.41,17.07,38.16,14.22,59.31-.17,2.02-.66,3.68-.83,5.7,5.33-.28,10.67,.3,15.81,1.71,7.24,2.66,14.42,6,19.35,11.86,4.16,6.85,4.45,15.37,.77,22.48-5.29,10.07-13.78,14.09-20.55,21.66-8.91,8.74-8.53,24.05-16.33,35.61-5.48,8.36-12.25,15.92-20.86,21.29-.73,.62-2.14,1.17-2.87,1.79,.62,.73,.86,1.77,1.48,2.51,1.67,4.22,3.59,9.48,5.25,9.96,5.64,1.51,15.05-5.15,24.43-3.66,14.72,2.63,26.11,16.18,26.85,31.19-.13,13.23-8.96,25.04-14.5,34.07-1.74,2.63-3.13,5.48-4.13,8.47,19.69,4.08,37.98,12.46,53.11,25.99,9.41,8.97,20,20.07,20.49,34.04-.92,14.52-16.51,22-23.63,33.62-3.16,5.16-4.29,14.23-2.48,20.84,2.52,12.79,6.82,25.17,12.78,36.77,6.61,13.82,15.25,27.81,14.22,43.69-.41,5.22-1.89,10.29-4.35,14.91-.43,.98-1.22,2.27-1.64,3.25,7.73,16.63,15.15,32.9,22.15,50.14,11.77,28.87,21.82,57.92,32.18,87.35,.8,.1,1.61,.06,2.39-.13,21.44-.52,49.94,15.53,43.73,40.12-1.13,6.53-3.51,12.79-7.03,18.41-.37,.31-.79,1.29-1.16,1.6,5.44,3.77,10.31,8.31,14.46,13.48,9.62,14.42,11.24,34.93,2.79,50.17-1.86,2.9-3.92,5.67-6.15,8.3l-1.46,1.23c4.15,10.89,8.3,21.78,12.82,32.35,18.92-2.78,24.25,10.25,35.2,21.05,5.29,5.55,11.24,7.43,15.52,5.08,6.05-3.21,6.69-10.63,4.35-14.91-5.54-6.59-17.93-8.68-27.07-12.87-7.55-3.03-14.87-8.76-18.27-16.52-3.29-9.09-3.73-18.96-1.28-28.3,2.4-12.02,17.16-41.31,32.24-38.98,1.36-5.55,4.27-10.6,8.39-14.56,13.3-12.43,35.09-17,51.25-7.45,4.54,2.43,9.03,5.54,11.74,9.51,2.99,5.13,4.81,10.85,5.34,16.76,.36,.98,.39,2.06,.07,3.06,2.15-.09,4.3-.01,6.43,.22,9.69,1.86,22.65,9.09,29.58,11.39,8.28,2.42,17.36,3.54,24.36,8.9,17.15,13.71,18.29,35.88,8.2,54.37-1.64,3.25-3.59,6.14-5.17,8.72,11.42,5.4,22.47,11.11,33.89,16.52,22.05,12.1,33.2,28.34,24.04,47.93,18.56,13.15,31.6,39.07,19.56,60.45-11.75,18-35.99,23.37-48.73,37.22-5.61,5.97-10.91,12.3-18.01,15.76-5.87,2.39-12.26,3.24-18.55,2.47-.73,.62-1.52,1.91-2.26,2.52-6.96,5.85-16.76,5.34-25.05,2.93-12.63-3.13-21.33-16.45-31.4-21.74-2.95-1.27-7.42-.64-10.29,1.15-5.69,2.9-11.12,6.85-17.36,8.35,7.79,15.96,15.52,32.59,22.57,49.16,24.86,54.11,37.07,113.24,61.93,167.36,7.92,18.35,19.45,34.29,32.2,51.69,.77-5.03,2.22-10,5.64-14.12,6.83-8.24,15.44-13.61,19.94-22.39,6.44-11.67,5.34-26.37,13.75-37.19,14.5-18.44,43.69-14.21,59,1.03,8.55,7.19,11.16,16.25,11.69,25.8,16.25-11.16,33.11-21.59,52.65-23.63,16.47-1.97,37.33,4.25,44.08,20.46,2.57,13.47-6.94,25.21-12.34,36.63-4.01,7.12-6,14.42-7.69,22.09l.67,.06c14.16,1.23,28.68,2.14,43.02,1.35,14.27-.12,30.55-3.81,43.82,3.79,9.09,4.86,13.91,15.81,9.36,25.26-10.02,21.55-38.84,28.9-60.96,29.36-23.77-.02-42.4-.61-61.14,15.77-5.92,5.6-15.06,17.04-22.81,24.18-9.27,9.05-19.53,17.67-31.57,23.42-1.27,.36-2.48,.95-3.55,1.73,17.19,21.18,34.31,43.04,50.03,65.46,2.1,3.24,4.87,6.53,6.6,10.08,.5,2.08-2.01,3.56-4.09,4.06-6.18,.82-8.36-5.48-11.07-9.45-7.52-11.18-16.09-22.11-24.34-32.67-27.48-35.66-56.48-69.42-83.59-105.39-23.36-32.25-49.53-63.38-69.65-97.73-4.7,3.33-9.96,5.25-14.36,8.95-6.53,4.87-15,16.36-15.15,25.86-1.9,14.1,1.9,29.03,7.77,39.73,5.93,10.02,12.93,15.38,23.16,14.91,2.02,.18,6.73-3.15,5.24-5.66-1.54-1.83-2.52-2.26-5.59-2.18-1.71,.19-3.2-2.31-1.42-3.18,1.77-.87,3.43-.38,5.14-.57,7.67,1.68,10.76,9.09,2.94,13.16-6.78,3.83-15.74,1.36-22.25-1.93-13.77-9.68-19.72-27.18-20.71-43.22-1.8-15.36,4.84-30.5,17.35-39.59,4.34-3.02,8.62-5.37,13.26-8.02-9.01-1.8-18.8,1.43-30.07,2.15-2.39,.13-4.72-.41-7.11-.28l.62,.73c1.23,1.47,5.12,7.57,5.81,11.37,5.72,20.19-17.28,27.03-32.96,27.71-16.41,1.3-31.51-4.77-44.91,.87-5.11,1.74-9.84,4.44-13.93,7.96,4.85,2.8,10.07,5.29,14.92,8.08,15.6,8.14,31.08,17.63,39.91,33.34,10.68,17.91,16.28,39.45,10.8,59.69-2.88,13.68-10.91,27.92-24.97,33.5-11.14,3.11-18.63-.59-23.75-8.17,2.99,24.37-1.55,53.19-18.99,70.36-12.63,12.49-32.25,23.36-49.86,15.04-8.12-3.66-14.94-9.7-19.56-17.32-5.31-9.29-6.94-17.92-14.87-24.38-5.78-3.9-11.59-3.38-18.52-5.68-8.59-3.43-15.12-10.64-17.67-19.53-1-4.16-1.69-7.96-2.32-12.43-5.2,1.25-10.77,2.8-17.32,3.94-13.16,2.94-23.07-8.11-33.76-14.13-6.39-4.63-21.49-10.69-24.85-22.87h0Zm-117.08-836.77l.73-.62c1.71-.19,2.87-1.79,3.72-3.75,2.83-4.92,4.9-10.23,6.12-15.77,1.92-10.36,.88-22-5.16-30.67s-15.36-10.83-24.65-5.53c-6.42,3.52-18.23,6.57-16.35,16.24,5.13,11.31,17.48,17.81,24.08,27.9,1.99,2.32,3.7,4.86,5.12,7.57,1.79,2.87,2.84,6.37,6.39,4.63h0Zm-18.16-304.17c3.95-6.45,14.28-12.01,18.25-14.72,4.45-4.37,7.56-8.85,9.01-13.82-14.81-9.44-34.91-12.53-48.69-10.33-7.59,1.38-11.91,8.14-16.17,14.22,10.95,10.8,21.85,22.27,32.43,33.37,1.26-3.16,3-6.1,5.17-8.72h0Zm-41.58,5.57c-11.55,7.83-8.04,26.13,3.03,35.58,9.05,9.27,26.23,14.84,36.45,26.25,6.52,7.02,9.87,15.46,15.29,23.4,1.17,2.14,3.94,5.44,5.43,7.94,5.42-4.1,6.49-11.81,2.39-17.23-.26-.34-.53-.66-.82-.97-1.53-1.95-3.48-3.51-5.72-4.57,1.21,2.14,1.93,4.52,2.11,6.98,.36,.99,.39,2.06,.07,3.06-1.16,1.6-5.2,1.25-5.03-.77-.51-5.82-3.98-12.91-9.64-18.16-6.72-8.73-29.59-15.13-26.48-31.5,1.26-6.68,5.1-11.79,9.86-15.79l2.93-2.46c-5.91-6.29-11.82-12.57-17.42-18.49-3.91,2.04-8.8,3.65-12.46,6.73h0Zm-180.69-215.67c4.4,11.93,3,28.11,13.01,34.07,2.95,1.27,3.49-1.06,2.61-6.57-.46-6.49-4.23-13.95-9.15-19.81-1.79-2.87-4.31-5.13-6.47-7.69h0Zm251.89,75.8c-3-.6-8.15-.03-8.5,4.02-.53,6.07-.38,12.19,2.22,17.51,1.17,2.14,1.92,5.26,4.68,4.82l.37-.31c.25,1.04,1.91,1.52,2.95,1.27,2.39-.13,2.93-2.46,3.41-4.12,1.82-5.28,3.75-11.9,1.15-17.22-.55-3.15-3.1-5.58-6.27-5.98h0Zm101.37,645.56c2.67,8.38,11.54,19.68,19.63,20.38,9.31-1.57,3.91-17.66-2.19-25.66-3.89-6.11-12.86-12.32-19.31-16.27,.03,7.47,.06,14.95,1.87,21.56h0Zm140.34,38.3c-7.52,4.44-16.82,6.02-25.28,5.62,.55,13.29,.42,26.53-5.72,38.56-8.03,14.25-25.26,24.98-37.76,8.62-1.85-2.2-3.33-4.7-4.87-6.53-6.92,1.44-14.02,1.17-19.29,3.08-12.1,6.42-9.46,22.95,3.37,27.8,9.2,3.51,19.2,5.74,26.34,13.49,4.31,5.13,7.52,11.18,12.2,16l1.54,1.83,.06-.67c-.4-7.17-6.02-16.82-5.26-25.59,2.31-18.82,20.33-30.84,35.61-38.69,8.5-4.02,14.23-11.33,23.34-14.62,2.08-.5,4.53-1.31,6.61-1.8-3.9-9.85-7.55-18.66-10.9-27.1h0Zm291.24,562.82c2.53,2.88,4.87,5.92,7.02,9.1l1.35,.12c3.68,.66,7.05,.95,9.13,.45,4.47-.63,11.62-4.77,11.97-8.81,.82-9.44-11.03-13.86-19.85-13.95-2.02-.17-8.69,2.31-10.83,3.48-1.41,.56-2.51,1.48-4.28,2.35,1.65,2.56,3.48,4.99,5.49,7.27h0Z"/>
  <path class="cls-2" d="M1348.82,692.91c1.86-2.89,5.77-6.32,10.17-9.94,13.06-10.63,31.71-21.91,33.49-23.12,28.32-18.68,58.08-35.81,86.66-54.27,12.38-8.05,24.59-16.34,36.37-25.12,3.82-2.9,29.25-20.23,34.76-32.61,1.37-2.9,1.76-6.18,1.1-9.32-.93-3.41-3.28-6.25-6.44-7.81-5.93-3.23-14.16-4.17-23.15-3.49-16.87,1.28-36.88,8.07-47.14,10.83-34.06,9.3-67.6,20.4-100.47,33.26-33.07,12.76-65.46,26.83-97.34,41.26-90.72,41.11-180.09,85.46-266.58,133.64-87.67,48.88-172.38,101.72-252.33,159.23-36.54,26.23-76.82,54.24-111.5,85.79-24.42,22.25-46.04,46.29-61.73,72.63-2.38,4.03-1.05,9.22,2.98,11.61,4.03,2.38,9.22,1.05,11.61-2.98h0c14.75-25.07,35.18-47.92,58.25-69.16,34-31.32,73.6-59.15,109.46-85.24,79.28-57.59,163.22-110.59,250.13-159.62,85.89-48.43,174.75-92.98,264.97-134.36,31.54-14.45,63.68-28.54,96.49-41.34,32.46-12.82,65.57-23.9,99.2-33.2,8.56-2.32,24.08-7.65,38.66-9.85,8.82-1.34,17.21-1.75,22.81,1.31,1.61,.86,.34,2.25-.68,3.84-2.35,3.46-5.15,6.61-8.31,9.36-8.65,7.98-19.42,15.21-21.71,16.96-11.53,8.65-23.57,16.83-35.7,24.76-28.57,18.54-58.25,35.73-86.57,54.47-2.37,1.56-31.37,19.29-43.24,31.79-2.42,2.38-4.35,5.22-5.68,8.34-1.78,4.94-.51,8.8,3.99,11.34,8.65,4.76,23.91,4.81,41.46,1.86,31.88-5.39,71.82-19.82,86.66-23.65,69.53-17.86,139.05-35.82,209.43-51.03,46.55-10.08,93.52-18.94,141-25.8,167.12-24.04,346.87-29.98,524.34-15.47,178.14,14.58,354,49.76,512.21,107.67,4.4,1.59,9.26-.69,10.85-5.09,1.59-4.4-.69-9.26-5.09-10.85h0c-159.74-57.52-337.21-92.01-516.88-105.86-178.48-13.75-359.25-7.15-527.22,17.71-47.65,7.04-94.88,16.11-141.77,26.35-70.38,15.4-140.07,33.47-209.68,51.48-14.67,3.8-54.18,18.14-85.72,23.46-13.23,2.22-24.85,3.13-32.14,.27h0Zm1862.49,2097.36c50.53-8.03,102.26-24.78,150.16-48.83,47.91-24.08,92-55.45,126.75-93.46,32.9-35.22,56.72-79.54,87.42-117.25,12.8-15.77,26.88-30.31,43.41-42.49,16.53-12.22,34.93-20.35,54.27-25.89,19.5-5.62,40.02-8.53,60.46-10.23,4.66-.47,8.06-4.62,7.59-9.28-.46-4.63-4.57-8.02-9.2-7.6-21.45,2.31-42.9,5.95-63.34,12.35-20.77,6.5-40.53,15.82-58.25,29.49-17.13,13.19-31.63,28.84-44.94,45.68-29.93,37.97-53.24,82.21-85.64,117.59-34.25,36.51-77.41,66.7-124.39,89.25-46.36,22.14-95.87,36.95-146.77,43.89-4.65,.57-7.96,4.8-7.39,9.45,.57,4.65,4.8,7.96,9.45,7.39,.13-.02,.27-.04,.4-.06h0Z"/>
  <path class="cls-8" d="M1820.38,2046.51c85.09,212.49,377.15,550.1,639.55,550.06,379.03,.02,784.77-992.57,784.77-992.57,153.2-104.32,59.42-249.17-9.81-370.61l-105.46,260.31s-456.25,638.11-652.9,609.37c-196.67-28.69-417.72-772.17-527.07-781.61-109.35-9.44-214.15,512.51-129.08,725.05h0Z"/>
  <g class="cls-17">
    <path class="cls-1" d="M2928.48,1519.18c-200.53-258.73-320.42-627.6-657.46-742.71-236.48-80.78-449.05,41.44-583.01,236.9-208.58,304.38-275.99,741.14-155,1090.92,173.73,502.22,762,671.89,1224.7,476.69,143.38-60.5,285.91-151.11,365.36-289.17,59.35-103.13,115.4-307.06,11.02-405.67-34.43-32.54-92.42-18.83-121.93-56.35-22.47-28.5-11.45-66.43-24.5-98.25-21.28-52.19-101.92-63.82-151.18-57.55l92-154.81Z"/>
  </g>
  <path class="cls-7" d="M1786.45,2317.11c121.37-147.59,306.4-782.06,211.78-960.11-94.62-178.05-596.31-367.88-779.49-108.2-160.98,228.19-43.36,815.7,51.26,993.75,81.58,153.61,405.97,208.91,516.45,74.56Z"/>
  <path class="cls-3" d="M1747.8,1523.82c-13.3-35.19-52.59-52.95-87.79-39.67l-956.65,361.06c-35.18,13.29-52.92,52.58-39.63,87.76,0,0,0,0,0,0l564.6,1495.93c13.27,35.18,52.54,52.95,87.73,39.69l956.65-361.06c35.18-13.3,52.94-52.58,39.68-87.78l-564.6-1495.93Z"/>
  <path class="cls-11" d="M1025.79,1993.11c-3.48-9.21-13.77-13.86-22.98-10.39l-164.6,62.12c-9.21,3.48-13.86,13.77-10.39,22.99h0c3.48,9.22,13.77,13.87,22.98,10.4l164.6-62.12c9.21-3.48,13.86-13.77,10.39-22.98h0Zm-25.86-68.54c-3.48-9.21-13.77-13.86-22.98-10.39l-164.6,62.12c-9.21,3.48-13.86,13.77-10.38,22.99h0c3.48,9.22,13.77,13.87,22.98,10.4l164.6-62.12c9.21-3.48,13.86-13.77,10.39-22.98v-.02Z"/>
  <path class="cls-3" d="M1744.95,1516.26c-11.7-31.01-46.32-46.66-77.33-34.96,0,0,0,0-.01,0l-971.76,366.76c-31.01,11.7-46.66,46.32-34.97,77.32,0,0,0,0,0,.01h0c11.7,31.02,46.32,46.67,77.33,34.97,0,0,0,0,.01,0l971.76-366.76c31.01-11.7,46.66-46.32,34.97-77.32,0,0,0,0,0-.01h0Z"/>
  <path class="cls-6" d="M1488.8,2381.75c-1.28,.13-2.48-.61-2.94-1.81l-118.08-312.85c-10.79-28.55-42.67-42.95-71.22-32.19l-.04,.02c-28.53,10.76-42.94,42.61-32.18,71.14,0,.02,.02,.04,.03,.07l119.04,315.39h0s-.04,.02-.04,.02l-5.18,1.96c-2.97,1.14-6.31-.15-7.75-2.98-14.7-28.59-89.37-173.89-127.34-247.73-12.25-23.86-41.52-33.28-65.39-21.03,0,0,0,0-.01,0t-.04,.02c-23.88,12.26-33.29,41.55-21.03,65.43,0,0,0,0,0,0,25.11,48.84,66.68,129.72,98.99,192.58,31.03,60.42,58.61,122.56,82.59,186.11,0,0-45.01-45.85-80.25-81.76-22.86-23.26-60.23-23.59-83.5-.75h0c-23.1,22.69-23.44,59.81-.75,82.91,.12,.12,.24,.24,.35,.36,39.47,39.56,100.52,100.63,153.95,154.16,67.2,67.28,167.59,88.94,256.56,55.36,126.22-47.64,189.93-188.57,142.3-314.77l-20.47-54.24s-20.48-211.46-29.93-309.1c-2.6-26.72-26.36-46.27-53.07-43.68h0c-26.72,2.58-46.29,26.33-43.72,53.05,7.09,72.91,19.64,202.59,19.64,202.59l-.97,.36c-2.06,.23-3.98-1.07-4.52-3.07-7.32-28.03-48.21-184.66-70.3-269.26-7.83-29.94-38.43-47.88-68.38-40.08l-.04,.02c-29.93,7.81-47.87,38.4-40.06,68.34,0,.02,0,.03,.01,.05,25.03,95.83,74.42,285.09,74.42,285.09l-.66,.24Z"/>
  <path class="cls-11" d="M2109.31,2768.92l42.48,112.56c13.2,34.99-4.46,74.07-39.45,87.28l-118.82,44.84-11.07-29.34,118.82-44.84c18.81-7.08,28.33-28.07,21.25-46.89,0,0,0,0,0,0l-42.48-112.56,29.27-11.05Zm-868.56,327.82l42.48,112.56c7.07,18.78,28.02,28.28,46.81,21.21,.02,0,.04-.01,.05-.02l118.82-44.84,11.07,29.34-118.82,44.84c-35,13.2-74.06-4.46-87.28-39.45l-42.48-112.56,29.35-11.08Zm-204.28-1003.86l11.07,29.34-118.82,44.84c-18.78,7.07-28.27,28.03-21.19,46.81,0,.02,.01,.04,.02,.06l42.48,112.56-29.34,11.08-42.48-112.56c-13.2-34.99,4.46-74.07,39.44-87.28l118.82-44.84Zm533.55-201.37l118.82-44.85c35-13.2,74.07,4.46,87.28,39.45l42.48,112.56-29.28,11.05-42.48-112.56c-7.11-18.8-28.12-28.28-46.92-21.17,0,0,0,0,0,0l-118.82,44.84-11.07-29.34Z"/>
  <path d="M1321.98,2979.1c5.7-2.15,10.94-1.8,15.71,1.07,5.67,3.38,10.62,10.66,14.84,21.86,4.22,11.17,5.25,19.95,3.25,26.29-1.64,5.22-5.35,8.92-11.05,11.07-5.37,2.21-11.46,1.69-16.38-1.39-5.24-3.07-9.93-10.29-14.21-21.62-4.19-11.11-5.29-19.84-3.29-26.18,1.71-5.24,5.42-8.94,11.12-11.09Zm3.54,9.38c-1.35,.5-2.49,1.46-3.22,2.71-.78,1.76-1.02,3.72-.71,5.62,.35,3.21,1.8,8.3,4.41,15.22s4.75,11.55,6.42,13.88c1.73,2.31,3.21,3.72,4.63,4.16,1.34,.46,2.81,.43,4.13-.09,1.33-.49,2.45-1.44,3.15-2.68,.84-1.75,1.08-3.73,.7-5.63-.27-3.21-1.78-8.25-4.39-15.17-2.62-6.93-4.75-11.55-6.42-13.88s-3.21-3.73-4.57-4.21c-1.34-.47-2.8-.45-4.13,.06Zm42.3-26.68c5.7-2.15,10.94-1.8,15.71,1.06,5.67,3.38,10.62,10.67,14.84,21.86,4.22,11.17,5.32,19.92,3.32,26.26-1.71,5.25-5.42,8.95-11.12,11.1-5.37,2.19-11.46,1.67-16.38-1.39-5.17-3.1-9.93-10.29-14.21-21.62-4.19-11.11-5.29-19.84-3.22-26.2,1.64-5.22,5.35-8.92,11.05-11.07h0Zm3.54,9.38c-1.34,.48-2.46,1.44-3.15,2.69-.83,1.76-1.11,3.73-.77,5.65,.35,3.21,1.86,8.27,4.48,15.2,2.62,6.92,4.75,11.55,6.42,13.88s3.21,3.72,4.56,4.19c2.78,.92,5.81-.24,7.28-2.77,.83-1.76,1.1-3.73,.77-5.65-.34-3.19-1.78-8.25-4.39-15.18s-4.75-11.55-6.42-13.88c-1.73-2.31-3.21-3.73-4.64-4.18-1.34-.48-2.81-.46-4.14,.06h0Zm74.49,28.88l-11.27,4.25-16.09-42.64c-2.72,5.48-6.61,10.29-11.4,14.1l-3.87-10.27c3.02-2.59,5.57-5.67,7.55-9.13,2.35-3.61,3.59-7.83,3.58-12.14l9.14-3.45,22.37,59.27Zm41.37-15.61l-11.34,4.28-16.09-42.64c-2.72,5.48-6.61,10.29-11.4,14.1l-3.87-10.27c3.02-2.59,5.57-5.67,7.55-9.13,2.35-3.61,3.59-7.83,3.58-12.14l9.2-3.48,22.38,59.27Zm41.3-15.59l-11.34,4.28-16.09-42.64c-2.72,5.48-6.61,10.29-11.4,14.1l-3.87-10.27c3.03-2.6,5.6-5.7,7.61-9.15,2.3-3.62,3.52-7.83,3.51-12.12l9.2-3.48,22.38,59.28Zm13.64-72.86c5.71-2.15,10.94-1.8,15.71,1.06,5.67,3.38,10.62,10.67,14.84,21.86,4.22,11.17,5.32,19.92,3.32,26.26-1.71,5.25-5.42,8.94-11.12,11.1-5.37,2.19-11.46,1.67-16.38-1.39-5.17-3.1-9.93-10.29-14.21-21.62-4.19-11.11-5.29-19.84-3.22-26.2,1.64-5.22,5.35-8.92,11.05-11.07h0Zm3.54,9.38c-1.33,.5-2.45,1.45-3.15,2.69-.84,1.75-1.09,3.72-.7,5.62,.28,3.24,1.8,8.3,4.41,15.22,2.61,6.93,4.75,11.55,6.42,13.88s3.21,3.72,4.56,4.19c1.34,.45,2.8,.42,4.13-.09,1.35-.5,2.49-1.46,3.22-2.71,.77-1.77,1.02-3.72,.7-5.63-.34-3.19-1.78-8.25-4.39-15.18s-4.75-11.55-6.42-13.88-3.21-3.73-4.64-4.18c-1.34-.48-2.81-.46-4.13,.06Zm42.37-26.71c5.7-2.15,10.94-1.8,15.71,1.07,5.67,3.38,10.55,10.69,14.78,21.88,4.21,11.17,5.32,19.92,3.32,26.26-1.64,5.22-5.35,8.92-11.05,11.07-5.37,2.21-11.46,1.69-16.38-1.39-5.24-3.07-9.93-10.29-14.21-21.62-4.19-11.11-5.29-19.84-3.28-26.18,1.71-5.24,5.35-8.91,11.12-11.09h0Zm3.54,9.38c-1.35,.5-2.49,1.46-3.22,2.71-.78,1.76-1.02,3.72-.71,5.62,.35,3.21,1.8,8.3,4.41,15.22,2.61,6.93,4.75,11.55,6.42,13.88s3.21,3.72,4.63,4.16c1.34,.46,2.81,.43,4.13-.09,1.33-.49,2.45-1.44,3.15-2.68,.84-1.75,1.08-3.73,.7-5.63-.27-3.21-1.78-8.25-4.39-15.17s-4.75-11.55-6.42-13.88-3.21-3.73-4.57-4.21c-1.34-.47-2.8-.45-4.13,.06Zm42.3-26.68c5.7-2.15,10.94-1.8,15.71,1.07,5.67,3.38,10.62,10.66,14.84,21.86,4.22,11.17,5.32,19.92,3.32,26.26-1.71,5.25-5.42,8.94-11.12,11.1-5.36,2.21-11.46,1.69-16.38-1.39-5.17-3.1-9.93-10.29-14.21-21.62-4.19-11.11-5.29-19.84-3.22-26.2,1.64-5.22,5.35-8.92,11.05-11.07h0Zm3.54,9.38c-1.34,.48-2.46,1.44-3.15,2.69-.84,1.76-1.11,3.73-.77,5.65,.35,3.21,1.8,8.3,4.41,15.22,2.62,6.93,4.75,11.55,6.49,13.86,1.66,2.33,3.21,3.72,4.56,4.19,2.78,.92,5.81-.24,7.28-2.77,.83-1.76,1.1-3.73,.77-5.65-.34-3.19-1.78-8.25-4.39-15.18-2.61-6.93-4.75-11.55-6.49-13.86-1.66-2.33-3.15-3.75-4.57-4.21-1.34-.49-2.81-.47-4.14,.05h0Zm74.49,28.88l-11.27,4.25-16.09-42.64c-2.72,5.48-6.61,10.29-11.4,14.1l-3.88-10.27c3.02-2.59,5.58-5.67,7.55-9.13,2.32-3.63,3.56-7.84,3.58-12.14l9.14-3.45,22.37,59.27Zm41.3-15.59l-11.27,4.25-16.09-42.64c-2.72,5.48-6.61,10.29-11.4,14.1l-3.87-10.27c3.02-2.59,5.57-5.67,7.55-9.13,2.35-3.61,3.59-7.83,3.58-12.14l9.14-3.45,22.37,59.27Zm41.37-15.61l-11.34,4.28-16.09-42.64c-2.72,5.48-6.61,10.29-11.4,14.1l-3.87-10.27c3.02-2.59,5.57-5.67,7.55-9.13,2.35-3.61,3.59-7.83,3.58-12.14l9.2-3.48,22.38,59.27Zm41.3-15.59l-11.34,4.28-16.09-42.64c-2.72,5.48-6.61,10.29-11.4,14.1l-3.87-10.27c3.04-2.59,5.62-5.69,7.61-9.15,2.3-3.62,3.52-7.83,3.51-12.12l9.2-3.48,22.38,59.28Zm13.64-72.86c5.77-2.18,10.94-1.8,15.71,1.07,5.67,3.38,10.62,10.66,14.84,21.86,4.22,11.17,5.32,19.92,3.32,26.26-1.71,5.24-5.35,8.92-11.12,11.1-5.37,2.19-11.46,1.67-16.38-1.39-5.17-3.1-9.93-10.29-14.21-21.62-4.19-11.11-5.29-19.84-3.22-26.2,1.64-5.22,5.35-8.92,11.05-11.07h0Zm3.54,9.38c-1.33,.5-2.45,1.45-3.15,2.69-.84,1.75-1.09,3.72-.7,5.62,.28,3.24,1.8,8.3,4.41,15.22,2.61,6.93,4.75,11.55,6.42,13.88s3.21,3.72,4.56,4.19c1.34,.45,2.8,.42,4.13-.09,1.35-.5,2.49-1.46,3.22-2.71,.77-1.77,1.02-3.72,.7-5.63-.34-3.19-1.78-8.25-4.39-15.18-2.61-6.93-4.75-11.55-6.42-13.88s-3.21-3.73-4.64-4.18c-1.34-.48-2.81-.46-4.13,.06h0Zm42.36-26.71c5.7-2.15,10.94-1.8,15.71,1.06,5.67,3.38,10.62,10.66,14.85,21.86,4.21,11.17,5.25,19.95,3.25,26.29-1.64,5.22-5.35,8.92-11.05,11.07-5.37,2.21-11.46,1.69-16.38-1.39-5.24-3.07-9.93-10.29-14.21-21.62-4.19-11.11-5.29-19.84-3.28-26.18,1.71-5.24,5.42-8.94,11.12-11.09Zm3.54,9.38c-1.35,.5-2.49,1.46-3.22,2.71-.78,1.76-1.02,3.72-.71,5.62,.35,3.21,1.8,8.3,4.41,15.22,2.61,6.93,4.75,11.55,6.42,13.88s3.21,3.72,4.63,4.16c1.34,.46,2.81,.43,4.13-.09,1.33-.49,2.45-1.44,3.15-2.68,.84-1.75,1.08-3.73,.7-5.63-.27-3.21-1.78-8.25-4.39-15.17-2.61-6.93-4.75-11.55-6.42-13.88s-3.21-3.73-4.57-4.21c-1.34-.47-2.81-.45-4.13,.06h0Zm42.3-26.68c5.7-2.15,10.94-1.8,15.71,1.07,5.67,3.38,10.62,10.66,14.85,21.86,4.22,11.17,5.32,19.92,3.32,26.26-1.71,5.25-5.42,8.94-11.12,11.1-5.36,2.21-11.46,1.69-16.38-1.39-5.17-3.1-9.93-10.29-14.21-21.62-4.19-11.11-5.29-19.84-3.22-26.2,1.64-5.22,5.35-8.92,11.05-11.07h0Zm3.54,9.38c-1.34,.48-2.46,1.44-3.15,2.69-.84,1.76-1.11,3.73-.77,5.65,.35,3.21,1.8,8.3,4.41,15.22s4.82,11.53,6.49,13.86,3.21,3.72,4.56,4.19c1.34,.46,2.81,.43,4.13-.09,1.34-.48,2.46-1.44,3.15-2.68,.83-1.76,1.1-3.73,.77-5.65-.34-3.19-1.78-8.25-4.39-15.18-2.61-6.93-4.75-11.55-6.49-13.86-1.67-2.33-3.21-3.73-4.57-4.21-1.34-.48-2.81-.46-4.13,.06Z"/>
  <path d="M1390.28,3130.33l-11.34,4.28-16.09-42.64c-2.72,5.48-6.61,10.29-11.4,14.1l-3.87-10.27c3.02-2.59,5.57-5.67,7.55-9.13,2.35-3.61,3.59-7.83,3.58-12.14l9.2-3.48,22.37,59.27Zm41.3-15.59l-11.34,4.28-16.09-42.64c-2.71,5.46-6.57,10.26-11.33,14.08l-3.87-10.27c3.01-2.6,5.56-5.69,7.55-9.13,2.33-3.61,3.55-7.82,3.51-12.12l9.2-3.48,22.38,59.27Zm41.3-15.59l-11.34,4.28-16.09-42.64c-2.71,5.46-6.58,10.26-11.33,14.08l-3.87-10.27c3.01-2.6,5.56-5.68,7.55-9.13,2.32-3.63,3.56-7.84,3.58-12.14l9.14-3.45,22.37,59.27Zm13.71-72.89c5.7-2.15,10.94-1.8,15.71,1.06,5.6,3.41,10.55,10.69,14.78,21.89,4.21,11.17,5.32,19.92,3.32,26.26-1.64,5.22-5.35,8.92-11.05,11.07-5.39,2.2-11.5,1.69-16.45-1.36-5.17-3.1-9.86-10.32-14.14-21.65-4.19-11.11-5.29-19.84-3.28-26.18,1.64-5.22,5.35-8.91,11.12-11.09h0Zm3.54,9.38c-1.35,.5-2.49,1.46-3.22,2.71-.84,1.75-1.09,3.72-.71,5.62,.35,3.21,1.8,8.3,4.41,15.22,2.61,6.93,4.75,11.55,6.42,13.88s3.21,3.72,4.56,4.19c1.37,.44,2.85,.4,4.19-.12,1.33-.5,2.44-1.45,3.15-2.68,.78-1.77,1.02-3.72,.7-5.63-.34-3.19-1.78-8.25-4.39-15.18-2.61-6.93-4.75-11.55-6.42-13.88s-3.21-3.73-4.57-4.21c-1.34-.46-2.8-.44-4.13,.06h0Zm42.3-26.68c5.7-2.15,10.94-1.8,15.71,1.07,5.67,3.38,10.62,10.66,14.85,21.86,4.22,11.17,5.32,19.92,3.25,26.29-1.64,5.22-5.35,8.92-11.05,11.07-5.37,2.21-11.46,1.69-16.38-1.39-5.17-3.1-9.93-10.29-14.21-21.62-4.19-11.11-5.29-19.84-3.28-26.18,1.71-5.24,5.42-8.94,11.12-11.09h0Zm3.54,9.38c-1.34,.49-2.46,1.44-3.15,2.69-.84,1.76-1.11,3.73-.77,5.65,.35,3.21,1.8,8.3,4.41,15.22s4.75,11.55,6.42,13.88c1.73,2.31,3.21,3.72,4.63,4.16,1.34,.46,2.81,.43,4.13-.09,1.34-.48,2.46-1.44,3.15-2.68,.84-1.75,1.08-3.73,.7-5.63-.27-3.21-1.71-8.28-4.32-15.2-2.61-6.93-4.82-11.53-6.49-13.86s-3.21-3.73-4.57-4.21c-1.34-.47-2.8-.44-4.13,.06h0Zm42.29-26.68c5.71-2.15,10.94-1.8,15.71,1.06,5.67,3.38,10.62,10.67,14.84,21.86,4.22,11.17,5.32,19.92,3.32,26.26-1.71,5.25-5.42,8.94-11.12,11.1-5.37,2.19-11.46,1.67-16.38-1.39-5.17-3.1-9.93-10.29-14.21-21.62-4.19-11.11-5.29-19.84-3.22-26.2,1.65-5.22,5.35-8.92,11.05-11.07h0Zm3.54,9.38c-1.33,.5-2.45,1.45-3.15,2.69-.84,1.75-1.09,3.72-.71,5.62,.28,3.24,1.8,8.3,4.41,15.22s4.75,11.55,6.42,13.88c1.66,2.33,3.21,3.72,4.56,4.19,1.34,.45,2.8,.42,4.13-.09,1.35-.5,2.49-1.46,3.22-2.71,.77-1.77,1.02-3.72,.7-5.63-.34-3.19-1.78-8.25-4.39-15.18s-4.75-11.55-6.42-13.88-3.21-3.73-4.64-4.18c-1.34-.48-2.81-.46-4.13,.06h0Zm74.57,28.86l-11.34,4.28-16.09-42.64c-2.72,5.48-6.61,10.29-11.4,14.1l-3.87-10.27c3.02-2.59,5.57-5.67,7.55-9.13,2.35-3.61,3.59-7.83,3.58-12.14l9.2-3.48,22.38,59.27Zm41.31-15.59l-11.34,4.28-16.09-42.64c-2.72,5.48-6.61,10.29-11.4,14.1l-3.87-10.27c3.02-2.59,5.57-5.67,7.55-9.13,2.35-3.61,3.59-7.83,3.58-12.14l9.2-3.48,22.38,59.27Zm41.3-15.59l-11.34,4.28-16.09-42.64c-2.71,5.46-6.57,10.26-11.33,14.07l-3.87-10.27c3.01-2.6,5.56-5.69,7.55-9.13,2.33-3.61,3.55-7.82,3.51-12.12l9.2-3.48,22.38,59.27Zm41.3-15.59l-11.34,4.28-16.09-42.64c-2.71,5.46-6.57,10.26-11.33,14.07l-3.88-10.27c3.01-2.6,5.56-5.68,7.55-9.13,2.32-3.63,3.56-7.84,3.58-12.14l9.14-3.45,22.37,59.27Zm13.71-72.89c5.7-2.15,10.94-1.8,15.71,1.06,5.67,3.38,10.55,10.69,14.78,21.89,4.21,11.17,5.32,19.92,3.32,26.26-1.64,5.22-5.35,8.92-11.05,11.07-5.39,2.2-11.5,1.69-16.45-1.36-5.17-3.1-9.86-10.32-14.14-21.65-4.19-11.11-5.29-19.84-3.28-26.18,1.71-5.24,5.35-8.91,11.12-11.09h0Zm3.54,9.38c-1.35,.5-2.49,1.46-3.22,2.71-.78,1.76-1.02,3.72-.7,5.62,.35,3.21,1.8,8.3,4.41,15.22s4.75,11.55,6.42,13.88,3.21,3.72,4.63,4.16c1.34,.47,2.81,.43,4.13-.09,1.33-.5,2.44-1.45,3.15-2.68,.84-1.75,1.08-3.73,.7-5.63-.27-3.21-1.78-8.25-4.39-15.18-2.61-6.93-4.75-11.55-6.42-13.88s-3.21-3.73-4.57-4.21c-1.34-.46-2.8-.44-4.13,.06h0Zm42.3-26.68c5.7-2.15,10.94-1.8,15.71,1.06,5.67,3.38,10.62,10.66,14.85,21.86,4.22,11.17,5.32,19.92,3.25,26.29-1.64,5.22-5.35,8.92-11.05,11.07-5.37,2.21-11.46,1.69-16.38-1.39-5.17-3.1-9.93-10.29-14.21-21.62-4.19-11.11-5.29-19.84-3.28-26.18,1.71-5.24,5.42-8.94,11.12-11.09h0Zm3.54,9.38c-1.34,.49-2.46,1.44-3.15,2.69-.83,1.76-1.11,3.73-.77,5.65,.35,3.21,1.8,8.3,4.41,15.22s4.75,11.55,6.49,13.86c1.66,2.33,3.15,3.75,4.56,4.19,1.34,.46,2.81,.43,4.13-.09,1.34-.48,2.46-1.43,3.15-2.68,.83-1.76,1.1-3.73,.77-5.65-.34-3.19-1.78-8.25-4.39-15.17s-4.75-11.55-6.49-13.86c-1.66-2.33-3.21-3.73-4.57-4.21-1.34-.47-2.81-.45-4.13,.05Zm74.49,28.88l-11.27,4.25-16.09-42.64c-2.73,5.47-6.62,10.28-11.4,14.1l-3.87-10.27c3.02-2.59,5.57-5.68,7.55-9.13,2.32-3.63,3.56-7.84,3.58-12.14l9.14-3.45,22.37,59.27Zm41.3-15.59l-11.27,4.25-16.09-42.64c-2.72,5.48-6.61,10.29-11.4,14.1l-3.87-10.27c3.02-2.59,5.57-5.67,7.55-9.13,2.35-3.61,3.59-7.83,3.58-12.14l9.14-3.45,22.37,59.27Zm13.71-72.89c5.7-2.15,10.94-1.8,15.71,1.06,5.67,3.38,10.62,10.66,14.85,21.86,4.21,11.17,5.32,19.92,3.25,26.29-1.64,5.22-5.35,8.92-11.05,11.07-5.37,2.21-11.46,1.69-16.38-1.39-5.17-3.1-9.93-10.29-14.21-21.62-4.19-11.11-5.29-19.84-3.28-26.18,1.71-5.24,5.42-8.94,11.12-11.09Zm3.54,9.38c-1.34,.49-2.46,1.44-3.15,2.69-.83,1.76-1.11,3.73-.77,5.65,.35,3.21,1.8,8.3,4.41,15.22,2.61,6.93,4.75,11.55,6.42,13.88,1.73,2.3,3.21,3.72,4.63,4.16,1.34,.46,2.81,.43,4.13-.09,1.34-.48,2.46-1.43,3.15-2.68,.84-1.76,1.1-3.73,.77-5.65-.34-3.19-1.85-8.22-4.46-15.15s-4.75-11.55-6.42-13.88-3.21-3.73-4.57-4.21c-1.34-.47-2.81-.45-4.14,.06h0Z"/>
  <path class="cls-14" d="M1602.32,2724.48c-13.45,8.38-28.57,13.74-44.3,15.7-4.89,.55-8.4,4.95-7.86,9.84,.55,4.89,4.95,8.4,9.84,7.86,.08,0,.15-.02,.23-.03,18.29-2.27,35.86-8.5,51.49-18.25,4.15-2.63,5.39-8.13,2.75-12.28-2.6-4.11-8.02-5.37-12.16-2.83h0Zm52.8-71.24c-4.82,15.37-12.21,29.82-21.87,42.71-2.96,3.93-2.18,9.53,1.76,12.49,3.93,2.97,9.53,2.18,12.49-1.75,10.83-14.52,19.14-30.75,24.59-48.02,1.45-4.7-1.19-9.69-5.89-11.14-4.63-1.43-9.56,1.11-11.08,5.71Zm-139.21,84.38c-15.66-3.82-30.56-10.26-44.07-19.05-4.15-2.66-9.67-1.44-12.32,2.71-2.66,4.15-1.45,9.67,2.71,12.32,15.2,9.8,31.92,17.01,49.48,21.36,4.79,1.14,9.6-1.82,10.74-6.61,1.13-4.76-1.78-9.55-6.54-10.72h0Zm143.58-175.68c3.13,16.04,4.27,32.41,3.38,48.73-.27,4.92,3.5,9.12,8.42,9.39,4.9,.27,9.09-3.47,9.38-8.37,.96-17.8-.3-35.66-3.75-53.15-.88-4.83-5.51-8.02-10.34-7.14-4.83,.88-8.02,5.51-7.14,10.34,.01,.07,.03,.13,.04,.2h0Zm-220.91,128.89c-11.2-11.92-20.88-25.18-28.8-39.49-2.35-4.29-7.74-5.85-12.02-3.5-.01,0-.03,.01-.04,.02-4.3,2.39-5.85,7.8-3.49,12.12,8.61,15.61,19.15,30.07,31.36,43.06,3.36,3.58,8.98,3.76,12.57,.4,3.55-3.39,3.74-8.99,.43-12.61h0Zm183.82-213.18c9.74,13.16,17.89,27.43,24.29,42.51,1.92,4.52,7.14,6.63,11.66,4.72,4.52-1.92,6.63-7.14,4.72-11.66-6.95-16.37-15.79-31.88-26.33-46.21-3.01-3.9-8.61-4.63-12.52-1.62-3.8,2.93-4.6,8.35-1.81,12.26h0Zm-229.74,133.47c-4.84-15.64-7.79-31.8-8.81-48.13-.29-4.91-4.5-8.65-9.41-8.36s-8.65,4.5-8.36,9.41c1.08,17.77,4.29,35.34,9.56,52.34,1.49,4.7,6.49,7.31,11.2,5.86,4.67-1.45,7.27-6.4,5.82-11.07,0-.01,0-.03-.01-.04h0Zm158.84-190.47c14.93,6.28,28.81,14.82,41.15,25.31,3.76,3.16,9.38,2.67,12.54-1.09s2.67-9.38-1.09-12.54c-13.74-11.63-29.16-21.11-45.73-28.12-4.54-1.9-9.75,.25-11.65,4.79-1.9,4.54,.25,9.75,4.79,11.65h0Zm-165.12,98.95c2.73-15.93,7.91-31.34,15.38-45.68,2.33-4.33,.71-9.73-3.62-12.06s-9.73-.71-12.06,3.62c-.02,.04-.04,.08-.07,.12-8.3,15.98-14.11,33.14-17.21,50.88-.85,4.86,2.41,9.48,7.26,10.33,4.84,.84,9.44-2.38,10.32-7.21h0Zm76-101.59l1.29-.5c14.85-5.57,30.72-7.89,46.54-6.8,4.91,.26,9.1-3.52,9.36-8.43,.25-4.82-3.38-8.96-8.19-9.34-17.78-1.22-35.61,1.28-52.37,7.32l-1.63,.59c-15.61,5.9-29.91,14.79-42.1,26.19-3.6,3.35-3.8,8.99-.44,12.59,3.35,3.6,8.99,3.8,12.59,.44h0c10.16-9.49,22.02-16.98,34.95-22.06h0Zm101.31,242.36c-2.33,1.19-4.72,2.25-7.17,3.18-26.38,9.95-55.4,2.95-77.81-15.43-3.79-3.11-9.39-2.56-12.5,1.24-3.11,3.79-2.56,9.39,1.24,12.5,27.38,22.53,63.03,30.56,95.36,18.35,3.06-1.15,6.05-2.47,8.95-3.96,4.4-2.18,6.2-7.53,4.02-11.93-2.18-4.4-7.53-6.2-11.93-4.02-.05,.03-.1,.05-.16,.08h0Zm33.8-116.94c.52,1.26,1.02,2.53,1.49,3.81,11.42,30.27,8.35,62.03-6.03,85.57-2.56,4.2-1.23,9.68,2.97,12.24s9.68,1.23,12.24-2.97h0c16.98-27.83,20.99-65.36,7.49-101.14-.56-1.49-1.12-2.96-1.78-4.4-1.87-4.54-7.07-6.71-11.61-4.84-4.54,1.87-6.71,7.07-4.84,11.61,.02,.04,.03,.08,.05,.12h0Zm-144.76,72.09c-1.88-3.63-3.55-7.37-4.98-11.21-10.32-27.35-8.76-55.93,2.21-78.56,2.15-4.43,.3-9.76-4.13-11.9-4.43-2.15-9.76-.3-11.9,4.13-12.96,26.69-15.02,60.38-2.85,92.63,1.68,4.45,3.61,8.8,5.78,13.03,2.29,4.36,7.68,6.04,12.04,3.75,4.29-2.25,6-7.53,3.83-11.87h0Zm36.58-127.15l.96-.37c28.8-10.87,60.79-1.51,83.78,20.85,3.56,3.4,9.2,3.27,12.61-.29,3.36-3.52,3.28-9.07-.17-12.5-27.69-26.87-66.11-37.67-100.88-25.33l-1.62,.59c-6.15,2.32-12.03,5.32-17.52,8.95-4.1,2.72-5.21,8.26-2.49,12.36,2.72,4.1,8.26,5.21,12.36,2.49,4.08-2.7,8.43-4.97,12.99-6.76h0Zm51.41,86.75c-4.83,2.66-9.84,4.96-15,6.9-6.39,2.45-13.01,4.3-19.75,5.5-4.85,.83-8.11,5.43-7.28,10.27,.83,4.85,5.43,8.11,10.27,7.28,7.87-1.41,15.58-3.55,23.05-6.41,5.97-2.24,11.77-4.91,17.36-7.99,4.3-2.39,5.85-7.81,3.46-12.1-2.39-4.3-7.81-5.85-12.11-3.46h0Zm-21.77-4.78l2.06-.8c12.76-4.82,24.85-7.1,32.94-6.34,4.89,.51,9.27-3.05,9.78-7.94,.51-4.89-3.05-9.27-7.94-9.78-.06,0-.12-.01-.17-.02-9.74-.9-24.16,1.3-39.4,6.86l-1.48,.55c-13.27,5.01-24.47,11.52-31.76,17.79-3.75,3.18-4.22,8.8-1.04,12.55,3.18,3.75,8.8,4.22,12.55,1.04,.04-.04,.08-.07,.13-.11,5.64-4.87,14.25-9.81,24.35-13.83h0Z"/>
  <path class="cls-8" d="M936.89,1323.18c-174.88,108-562.37,447.13-506.53,703.49,80.72,370.36,463.28,761.02,463.28,761.02,14.68,128.1,124.1,157.53,147.05,165.77,19.83,7.09-57.81-172.91-49.44-187.34,26.96-46.34,80.04,23.79,92.34-21.52,7.79-28.6-60.04-81.02-120.36-74.34,0,0-272.51-510.12-195-739.16,77.58-229.04,622.89-211.9,660.27-635.07,9.99-113.09-34.77-254.98-491.63,27.15h0Z"/>
  <g class="cls-16">
    <path class="cls-12" d="M1133.8,2393.63c207.51-253.17,540.34-452.3,577.41-806.52,26.01-248.54-140.52-428.49-360.94-515.51-343.23-135.46-784.03-103.78-1098.02,92.17-450.84,281.35-485.06,892.64-191.6,1300.16,90.94,126.28,211.06,245.01,363.36,291.68,113.77,34.86,325.06,44.02,397.92-79.72,24.05-40.81-2.25-94.29,27.74-131.42,22.77-28.26,62.21-25.97,90.32-45.8,46.13-32.39,39.49-113.58,22.4-160.21l171.43,55.16Z"/>
  </g>
  <g>
    <path class="cls-13" d="M3976,1015.02s-216.43-63.71-369.24-228.5c-171.64,154.35-395.14,228.5-395.14,228.5v348.06c0,138.2,71.35,266.61,188.69,339.61,6.26,3.94,12.57,7.82,18.78,11.71,104.23,64.84,236.07,65.57,341.02,1.89,134.03-81.32,215.88-226.71,215.89-383.48v-317.79Z"/>
    <path class="cls-3" d="M3874.77,1090.32s-159.1-47.07-271.44-168.82c-126.18,114.04-290.48,168.82-290.48,168.82v257.64c0,101.85,52.45,196.51,138.79,250.52,4.52,2.8,9.04,5.62,13.53,8.45,76.69,47.95,173.87,48.49,251.09,1.4h.04c98.42-60.04,158.47-167,158.47-282.29v-235.71Z"/>
    <path class="cls-5" d="M3436.1,1364.43l105.14,140.87c8.78,11.73,22.16,18.33,36.08,17.81,14.29-.68,27.34-8.32,34.93-20.44l196.37-303.99c13.92-21.59,8.95-51.29-11.17-66.28-20.12-14.99-47.7-9.61-61.7,11.98l-162.5,251.57-68-91.1c-15.25-20.5-43.17-23.81-62.24-7.37-19.15,16.44-22.16,46.44-6.91,66.94h0Z"/>
  </g>
  <path class="cls-8" d="M3173.98,1357.95c6.38-36,26.84-72.8,38.93-77.02,80.74-28.08,123.48,52.62,40.26,77.64-40.26,12.12-80.58,116.04-80.58,116.04,0,0-3.44-89.06,1.39-116.67Z"/>
  <path class="cls-9" d="M1681.77,702.88c-107.02,0-185.05,98.26-169.82,231.63,10.81,94.52,130.24,196.15,228.13,205.73,80.69,7.89,112.28-73.98,112.28-208.21s-63.64-229.15-170.58-229.15h0Z"/>
  <path class="cls-10" d="M1722.66,1050.14c2.03-9.33,9.92-17.6,16.36-24.21,5.68-5.81,11.62-11.45,18.65-15.56,4.18-2.62,8.72-4.62,13.48-5.92,27.73-6.67,40.95,16.84,62.49,28.24,8.31,4.41,17.21,5.2,26.45,5.53,26.28,40.08-20.35,83.94-54.52,98.24-17.04,7.15-61.56,63.72-115.82-1.31-12.29-14.7-78.94-10.25-58.08-84.98,5.43-19.55-2.46-44.46-3.9-64.59-2.12-29.51,.25-63.84-28.57-81.94-4.55-2.83-9.38-5.18-14.41-7.01-3.56-1.31-7.63-4.13-11.02-2.53-25.01,11.62,16.11,57.39-45.53,76.2,3.99,20.43-15.6,34.76-33.58,37.48-28.15,4.26-58.33-7.96-76.99-29.35-17.21-19.76-38.07-50.51-41.63-76.02-4.32-31.24-2.8-99.01,26.2-139.12,22.64-31.32,56.05-55.66,95.9-53.21-.42-7.91,4.83-15.8,8.9-22.14,9.57-14.88,21.68-27.95,35.78-38.64,22.64-16.96,50.62-29.58,79.02-31.72,38.07-2.86,78.77,18.21,95.31,53.28,7.21-7.73,18.14-10.22,28.15-12.19,24.5-4.84,47.57-1.78,69.36,10.81,47.23,27.33,63.51,80.6,43.58,129.95-7.12-2.3-15.43-2.35-22.81-3.42-17.81-2.54,43.33,35.3-80.8,57.14-32.3,5.68-80.21-19.01-103.53,11.36-15.26,19.81-4.66,43.46-1.53,65.24,2.8,19.48,1.36,39.4,5,58.76,5.17,27.54,26.29,61.28,55.88,67.45l12.21-5.82Z"/>
</svg>