<?xml version="1.0" encoding="UTF-8"?>
<svg id="Accessdenied" xmlns="http://www.w3.org/2000/svg" viewBox="0 0 1080 1080">
  <defs>
    <style>
      .cls-1 {
        fill: #cacaca;
      }

      .cls-2 {
        fill: #696969;
      }

      .cls-3 {
        fill: #929292;
      }

      .cls-4 {
        fill: #858585;
      }

      .cls-5 {
        fill: #7a7a7a;
      }

      .cls-6 {
        fill: #d9d9d9;
      }

      .cls-7 {
        fill: none;
        stroke: #cacaca;
        stroke-linecap: round;
        stroke-miterlimit: 10;
        stroke-width: 5.51px;
      }
    </style>
  </defs>
  <circle class="cls-6" cx="377.83" cy="372.44" r="151.33"/>
  <line class="cls-7" x1="279.01" y1="323.09" x2="338.38" y2="323.09"/>
  <line class="cls-7" x1="279.01" y1="340.2" x2="338.38" y2="340.2"/>
  <line class="cls-7" x1="279.01" y1="357.31" x2="338.38" y2="357.31"/>
  <path class="cls-6" d="M1057.57,592.94v-33.43c0-13.28-10.76-24.04-24.04-24.04h-84.85c-13.28,0-24.04-10.76-24.04-24.04h0v-33.43c0-13.28,10.76-24.04,24.04-24.04h2.68c13.28,0,24.04-10.76,24.04-24.04h0v-33.43c0-13.28-10.76-24.04-24.04-24.04H175.92c-13.28,0-24.04,10.76-24.04,24.04h0v33.43c0,13.28,10.76,24.04,24.04,24.04h0c13.28,0,24.04,10.76,24.04,24.04h0v33.43c0,13.28-10.76,24.04-24.04,24.04H82.96c-13.28,0-24.04,10.76-24.04,24.04h0v33.43c0,13.28,10.76,24.04,24.04,24.04h36.48c13.28,0,24.04,10.76,24.04,24.04v33.43c0,13.28-10.76,24.04-24.04,24.04h-.09c-13.28,0-24.04,10.76-24.04,24.04v33.43c0,13.28,10.76,24.04,24.04,24.04h5.28c13.28,0,24.04,10.76,24.04,24.04h0v33.43c0,13.28-10.76,24.04-24.04,24.04H38.01c-13.28,0-24.04,10.76-24.04,24.04v33.43c0,13.28,10.76,24.04,24.04,24.04H964.26c13.28,0,24.04-10.76,24.04-24.04h0v-33.43c0-13.28-10.76-24.04-24.04-24.04h-20.84c-13.28,0-24.04-10.76-24.04-24.04h0v-33.43c0-13.28,10.76-24.04,24.04-24.04h49.15c13.28,0,24.04-10.76,24.04-24.04v-33.43c0-13.28-10.76-24.04-24.04-24.04h-14.91c-13.28,0-24.04-10.76-24.04-24.04v-33.43c0-13.28,10.76-24.04,24.04-24.04h55.87c13.28,0,24.04-10.76,24.04-24.04h0Z"/>
  <rect class="cls-2" x="321.62" y="192.81" width="494.54" height="725.17" rx="16.54" ry="16.54"/>
  <rect class="cls-6" x="351.49" y="228.3" width="434.8" height="654.21" rx="16.54" ry="16.54"/>
  <circle class="cls-3" cx="568.89" cy="406.59" r="81.5"/>
  <path class="cls-5" d="M555.2,399.48v-16.95c0-7.1,5.76-12.86,12.86-12.86,.04,0,.08,0,.12,0h1.41c7.1-.07,12.91,5.63,12.98,12.73,0,.04,0,.09,0,.13v5.71c0,.8,.65,1.44,1.44,1.45l6.84,.03c.8,0,1.46-.65,1.46-1.45h0v-4.8c0-12.36-10.01-22.38-22.37-22.38-.01,0-.02,0-.04,0h-2.05c-12.36-.01-22.39,10-22.4,22.36v16.48l9.73-.45Z"/>
  <path class="cls-2" d="M595.55,448.21c3.56,0,6.45-2.9,6.46-6.46v-36.73c0-3.56-2.89-6.45-6.46-6.46h-53.33c-3.56,0-6.45,2.9-6.46,6.46v36.73c0,3.56,2.89,6.45,6.46,6.46h53.33Z"/>
  <circle class="cls-3" cx="568.89" cy="228.3" r="23.28"/>
  <circle class="cls-3" cx="568.89" cy="836.89" r="23.28"/>
  <rect class="cls-3" x="398.13" y="516.59" width="134.17" height="46.83" rx="5.51" ry="5.51"/>
  <rect class="cls-4" x="577.76" y="516.59" width="163" height="215.22" rx="5.51" ry="5.51"/>
  <rect class="cls-3" x="398.13" y="600.79" width="134.17" height="46.83" rx="5.51" ry="5.51"/>
  <rect class="cls-3" x="398.13" y="684.98" width="134.17" height="46.83" rx="5.51" ry="5.51"/>
  <path class="cls-3" d="M659.26,670.04h-46.97c-2.85,0-5.17-2.31-5.17-5.17,0-.91,.24-1.8,.69-2.58l23.48-40.68,23.48-40.68c1.43-2.47,4.59-3.32,7.06-1.89,.79,.45,1.44,1.11,1.89,1.89l23.48,40.68,23.48,40.68c1.43,2.47,.58,5.63-1.89,7.06-.79,.45-1.68,.69-2.58,.69h-46.97Z"/>
  <path class="cls-5" d="M659.26,599.86h0c1.43,0,2.58,1.16,2.58,2.58v38.52c0,1.43-1.16,2.58-2.58,2.58h0c-1.43,0-2.58-1.16-2.58-2.58v-38.52c0-1.43,1.16-2.58,2.58-2.58Z"/>
  <circle class="cls-5" cx="659.26" cy="655.01" r="6.18"/>
  <path class="cls-4" d="M258.34,793.61v-43.26c0-18.13,14.7-32.83,32.84-32.83,.1,0,.2,0,.3,0h3.61c18.13-.18,32.96,14.37,33.14,32.5,0,.11,0,.22,0,.33v14.57c.02,2.03,1.65,3.68,3.69,3.71l17.45,.08c2.05,0,3.72-1.65,3.73-3.7,0,0,0,0,0,0v-12.24c0-31.54-25.56-57.12-57.1-57.13-.03,0-.06,0-.09,0h-5.23c-31.55-.03-57.15,25.52-57.17,57.07,0,.02,0,.04,0,.06v42l24.84-1.16Z"/>
  <path class="cls-3" d="M361.35,917.99c9.09-.02,16.46-7.39,16.48-16.48v-93.75c-.02-9.09-7.39-16.46-16.48-16.48H225.24c-9.09,.02-16.46,7.39-16.48,16.48v93.75c.02,9.09,7.39,16.46,16.48,16.48h136.11Z"/>
  <path class="cls-4" d="M293.29,823.43c-9.74,.03-17.63,7.92-17.66,17.66,.16,5.39,2.82,10.39,7.18,13.55v20.73c0,5.79,4.71,10.47,10.5,10.46,5.78,0,10.45-4.69,10.46-10.46v-20.73c4.36-3.17,7.01-8.17,7.18-13.55-.03-9.74-7.92-17.63-17.66-17.66Z"/>
  <line class="cls-7" x1="52.49" y1="885.88" x2="111.86" y2="885.88"/>
  <line class="cls-7" x1="52.49" y1="902.99" x2="111.86" y2="902.99"/>
  <line class="cls-7" x1="52.49" y1="920.1" x2="111.86" y2="920.1"/>
  <line class="cls-7" x1="844.24" y1="619.45" x2="903.61" y2="619.45"/>
  <line class="cls-7" x1="844.24" y1="636.56" x2="903.61" y2="636.56"/>
  <line class="cls-7" x1="844.24" y1="653.68" x2="903.61" y2="653.68"/>
  <circle class="cls-1" cx="189.1" cy="655.99" r="30.19" transform="translate(-478.65 798.11) rotate(-85.93)"/>
  <circle class="cls-1" cx="190.32" cy="594.43" r="15.73"/>
  <circle class="cls-1" cx="295.08" cy="603.62" r="13.61"/>
  <circle class="cls-1" cx="245.55" cy="590.39" r="9.07"/>
  <circle class="cls-1" cx="256.1" cy="639.91" r="21.75"/>
  <circle class="cls-1" cx="916.08" cy="880.14" r="30.19"/>
  <circle class="cls-1" cx="852.17" cy="895.02" r="15.73"/>
  <circle class="cls-1" cx="852.17" cy="831.35" r="21.75"/>
  <circle class="cls-1" cx="918.54" cy="344.66" r="30.19"/>
  <circle class="cls-1" cx="858.65" cy="374.86" r="13.61"/>
  <circle class="cls-1" cx="841.96" cy="322.91" r="21.75"/>
</svg>