<?xml version="1.0" encoding="UTF-8"?>
<svg id="SignUpform" xmlns="http://www.w3.org/2000/svg" xmlns:xlink="http://www.w3.org/1999/xlink" viewBox="0 0 2000 2000">
  <defs>
    <style>
      .cls-1, .cls-2 {
        fill: #fff;
      }

      .cls-2, .cls-3, .cls-4, .cls-5, .cls-6, .cls-7, .cls-8, .cls-9 {
        fill-rule: evenodd;
      }

      .cls-3 {
        fill: #00fe94;
      }

      .cls-4 {
        fill: #eff4f2;
      }

      .cls-10 {
        clip-path: url(#clippath-2);
      }

      .cls-5 {
        fill: #52cc99;
      }

      .cls-11 {
        fill: #d8e4df;
      }

      .cls-12 {
        clip-path: url(#clippath-1);
      }

      .cls-6 {
        fill: #97ffd4;
      }

      .cls-13 {
        clip-path: url(#clippath);
      }

      .cls-14 {
        fill: none;
      }

      .cls-15 {
        clip-path: url(#clippath-3);
      }

      .cls-7 {
        fill: #cfe1d9;
      }

      .cls-8 {
        fill: #537768;
      }
    </style>
    <clipPath id="clippath">
      <path class="cls-14" d="M1277.12,960.25c-37.13,55.64-411.11,86.15-459.72,17.78-75.13-105.57,141.24-407.29,141.24-407.29-2.79-14.42-3.31-49.28,8.05-62.88,17.21-20.68-8.39-40.32,7.53-44.78,20.47-5.71,36.87,13.62,72.52,23.29,21.12,5.67,18.18,61.12-1.8,92.15-7.11,11.01-20.69,12.02-20.69,12.02,0,0-83.47,205.38-65.74,244.72,21.99,48.65,126.67-7.36,287.5-30.07,76.92-10.87,51.55,124.39,31.09,155.05h0Z"/>
    </clipPath>
    <clipPath id="clippath-1">
      <path class="cls-14" d="M1243.48,1413.56c9.52-179.61-53.61-335.93-47.87-438.61,3.68-65.14-24.52-161.81,82.53-177.48,91.78-13.43,205.21,10.83,227.57,35.53,45.26,49.82,28.83,319.98-14.19,356.83-86.21,55.04-180.69,168.74-248.04,223.73h0Z"/>
    </clipPath>
    <clipPath id="clippath-2">
      <path class="cls-14" d="M1495.11,836.26c61.7,26.05,187.35,380.56,115.12,446.61-72.23,66.05-548.39-50.3-548.39-50.3-13.64,5.45-47.7,12.5-63.28,3.89-23.45-13.01-9.02-42.07-16.39-56.87-9.45-19.03-76.95,23.79-74.23-13.07,1.69-21.8,111.12-34,145.35-20.19,12.24,4.92,15.77,18.08,15.77,18.08,0,0,339.15,31.41,374.46,6.61,43.67-30.72-65.79-141.49-48.75-266.71,10.48-76.97,66.45-82.39,100.33-68.06h0Z"/>
    </clipPath>
    <clipPath id="clippath-3">
      <path class="cls-14" d="M1292.72,795.05s36.19-26.77,27.75-54.95c-2.16-7.4-18.5,13.45-33.23,4.43-20.12-12.41-24.97-83.96-2.25-121.18,14.1-23.07,63.67-36.91,79.84-21.19,16.17,15.72,22.54,82.7,16.97,115.5-8.8,52.32,38.89,83.8,38.89,83.8,0,0-79.21,63.39-99.15,116.01-5.84,15.45-28.83-122.41-28.83-122.41h0Z"/>
    </clipPath>
  </defs>
  <path class="cls-4" d="M767.91,1579.84c-285.64,19.45-590.97-211.43-590.97-492.42s452.75-161.25,599.61-384.27c351.89-533.99,1062.3,325.29,812.55,421.2-500.41,192.03-136.01,408.8-821.2,455.49h0Z"/>
  <path class="cls-11" d="M1548.39,1076.12c.15,.75,.54,1.45,.7,2.2,1.26,7.02,2.07,11.8,1.23,17.93-2,13.12-11.17,25.83-5.87,42.44,5.71,23.54,34.54,37.85,42.3,14.52,4.45-15.41-3.12-34.18-11.59-51.2-4.72-9.13-10.15-17.87-16.24-26.14,6.67-.44,13.23-1.91,19.45-4.35,1.31-.52,2.38-.99,3.7-1.51,.37,.19,.98,.32,1.35,.51,11.43-4.85,20.81-9.55,32.44-12.62,20-5.75,45.34-11.52,47.23-32.92,.2-6.79-6.02-13.61-12.53-18.57-8.79-5.9-19.53-8.16-29.96-6.3-17.97,2.24-30.37,12.99-37.08,26.25-4.14,8.34-6.05,17.81-7.34,27.41-.29,4.73-1.4,9.88-.23,14.84-7.63,3.06-16.07,4.2-25.03,4.41-.44-.12-.9-.12-1.33,0-3.2,.08-6.41-.07-9.59-.45-.73-14.66,5.24-28.3,10.48-42.31,1.71-5.53,4.03-10.92,4.62-17.01,4.6,1.4,9.36,2.21,14.16,2.41,8.87,.59,16.42-4.53,13.03-12.95-6.05-11.27-27-16.75-38.36-18.93-9.68-1.48-19.5-1.72-29.24-.73-1.34,.04-2.67,.22-3.98,.52,5.71-5.54,11.18-11.03,16.52-16.75,4.77-4.83,9.27-10.13,13.91-15.2,15.16,3.25,28.97,11.69,43.02,20.09,17.06,10.92,34.89,22.73,52.35,17.21,14.69-5.23,13.92-23.77-2.79-35.02-16.95-11.2-37.27-16.03-55.26-17.16-7.31-.47-14.64-.33-21.92,.42-.72,.14-1.57,.05-2.53,.24l12.53-13.37c7.09-7.37,14.3-14.5,21.39-21.87,.85,.09,1.94,.14,3.04,.18,4.63,.65,6.58,.78,11.34,1.66,11.86,2.6,23.9,6.46,35.75,8.54,11.35,1.88,22.9,2.32,34.36,1.28,8.33-.86,17.13-1.82,24.02-5.25,12.46-6.35,13.67-20.87-4.09-31.13-15.52-8.02-33.1-11.16-50.43-9.02-4.57,.9-10.01,1.19-14.06,3.02l-3.41-3.22,.48-.09c9.84-5.31,20.7-9.27,31.81-13.28,14.58-4.95,30.14-9.57,45.93-14.75,6.58,3.64,12.28,6.67,19.05,12.09,18.17,14.34,31.14,37.49,48.81,54.26,12.12,11.63,43.88,32.12,59.16,29.37,31.52-5.69-28.42-50.75-42.68-61.44-16.38-12.09-34.01-22.12-51.84-31.08-5.9-3.02-12.01-5.64-18.27-7.83,20.92-6.98,41.58-14.42,60.73-23.12,3.45-1.46,6.78-3.15,9.86-4.8l.37,.19c2.34,.84,5.05,1.86,7.52,2.93,3.93,1.3,11.99,5.69,13.61,6.67,31.44,18.48,51.08,50.7,85.25,67.86,14.38,7.56,32.51,12.29,43.99,5.62,18.96-16.19-23.02-46.36-42.33-58.91-18.29-11.2-38.11-18.46-57.83-23.67-9.88-2.75-19.98-4.67-30.18-5.74-3.18-.41-6.39-.56-9.59-.45,23.7-12.42,45.85-27.59,65.99-45.19,.98,.32,2.08,.37,3.06,.7,5.65,1.59,11.2,3.54,16.61,5.82,13.94,5.82,24.51,12.31,37.13,21.51,15.62,11.2,31.32,24.47,49.94,29.11,6.47,1.06,13.9,1.94,18.25-1.26,3.74-3.33,4.57-9.47,.71-14.94-5.33-8.56-14.81-15-23.78-21.02-8.18-5.48-16.73-10.39-25.58-14.7-10.74-5.42-22.01-9.73-33.62-12.85-9.28-2.62-18.72-4.67-28.25-6.12,3.48-3.8,6.96-7.6,10.3-11.63l.24-.05c14.45-8.04,31.41-13.97,41.06-26.78,3.89-5.44,7.29-11.3,6.85-18.75,.16-10.68-15.26-20.1-26.34-21.3-11.58-1.62-19.43,4.86-22.24,13.21-2.96,10.45-.28,22.38-1.03,33.44-.17,5.21-.85,10.38-2.02,15.46-.22,.5-.2,1.07,.06,1.54-4.05,4.69-8.1,9.38-12.62,14.17-3.32,3.47-6.82,6.76-10.5,9.86,2.02-6.89,1.32-14.8-2.76-22.56-2.53-5.47-8.76-9.44-14.9-11.35-13.85-3.76-17.68,6.08-12.03,16.65,4.23,8.51,13.52,18.89,13.16,24.94,.07,1.66,.01,3.32-.16,4.97-.32,.56-.34,1.25-.05,1.83-9.82,7.71-20.13,14.77-30.87,21.14,3.9-8.3,6.79-17.43,4.17-27.82-2.33-9.41-11.96-19.45-23.33-18.78-10.64,.54-17.79,6.36-23.59,12.69-11.74,11.92-13.71,31.78-18.19,46.16-2.02,6.89-5.39,13.26-8.89,19.4-.32,.84-1.62,1.88-1.45,3.14-27.46,10.08-55.59,18.47-84.29,27.76-12.31,4.24-24.48,8.72-35.63,14.55,4.86-5.63,9.47-11.21,13.96-17.03,5.72,.69,10.9-.07,14.19-2.79,3.63-3.05,2.04-9.23-2.61-13.25,2.38-3.85,5.01-7.74,7.26-11.82,12.54,7.14,24.62,12.03,34.15,8.08,8.07-4.19,1.89-15.69-6.58-21.29-3.57-2.44-7.35-4.56-11.29-6.35,4.17-3.14,8.59-5.92,13.23-8.31,20.64-10.81,45.23-16.95,62.94-31.09,8.92-6.95,18.91-14.37,21.35-25.75,.79-4.31,1.06-9.55-2.77-13.99-14.52-14.02-34.26-4.94-45.44,.38-9.61,4.77-17.82,11.93-23.86,20.79-5.95,8.44-9.78,18.28-14.36,27.75-1.94,3.91-4.09,7.71-6.43,11.39,.57-.89,1.01-2.02,1.58-2.91,4.22-9.14,7.71-18.65,11.19-28.17,.48-.1,.59-.38,1.07-.47,.39-.27,.64-.7,.68-1.17-.07-.52-.25-1.02-.55-1.45,.11-.28,.22-.56,.46-.61,.68,.15,1.38-.21,1.66-.85,6.26-15.51,25.84-42.99,10.58-63.1-2.06-1.87-4.74-2.91-7.52-2.93-7.28-.13-11.06,5.03-13.4,9.91-5.3,12.47-5.66,27.08-2,42.2,.95,4.24,2.13,8.43,3.55,12.54,.52,.94,.57,1.97,1.33,2.85-2.38,.99-4.64,2.21-7.02,3.2-2.32-7.39-3.98-14.97-4.95-22.65-1.39-10.11-2.91-26.17-14.88-34.2-3.81-2.16-8.65-.97-11.04,2.7-5.03,7.22-2.66,17.66,1.01,27.06,3.24,8.18,7.56,15.88,12.83,22.92,2.2,3.03,4.67,5.84,7.38,8.41l.13,.23c-3.67,2.02-7.34,4.04-10.65,6.25-12.51,8.17-23.11,18.31-33.61,28.17-1.05,.99-1.99,1.69-3.04,2.68-1.42-2.06-2.6-4.16-3.78-6.27-3.82-6.88-7.12-14.04-9.86-21.43-4.75-12.31-11.43-32.8-27.37-43.16-5.11-3.41-10.75-2.04-12.92,1.24-3.52,5.63,.1,14,2.94,20.97,5.11,11.98,13.23,23.62,22.29,34.56,5.35,6.22,10.57,12.2,16.51,18.04,1.38,1.03,2.53,2.62,4.02,3.36-7,6.57-14.24,13.19-21.48,19.81-6.48-13-10.6-24.66-15.77-38.18-5-12.26-10.15-25.26-21.13-35.82-8.93-7.85-18.92-6.14-21.51,1.64-4.8,12.89,1.25,29.87,9.37,44.37,5.31,8.84,11.68,17,18.95,24.31,4.35,4.45,8.93,8.66,13.74,12.61,1.25,.79,2.38,1.87,3.63,2.66-3.39,3-6.89,6.29-10.28,9.29l-10.17,9.01c-.24,.05-.48,.1-.35,.32-.24,.05-.11,.28-.11,.28-2.58,2.07-5.27,4.41-7.85,6.48l-.24,.05c-8.66-18.81-19.03-37.79-34.77-54.95-7.25-8.18-15.35-16.45-25.29-22.28-11.05-6.39-28.01-11.88-29.55,.62-.58,12.32,8.74,23.72,20.06,33.44-7.56-3.96-15.67-6.52-23.32-6.83-9.43-.48-17.6,6.48-18.61,15.87-.71,17.8,17.48,35.5,30.38,51.4,7.01,8.23,13.45,17.34,13.4,24.88-.11,2.36-.5,4.71-1.16,6.98-.32,.84-1.03,1.5-.5,2.44,.29,.62,.85,1.08,1.51,1.26-.6,.57-1.14,1.2-1.62,1.88-4.76,1.98-8.77,4.84-9.4,9.9,.06,.54,0,1.08-.18,1.59-.27,.55-.62,1.05-1.03,1.5-2.22,3.06-4.27,6.24-6.15,9.52,.93-12.64,2.33-25.38-2.97-39.14-8.35-23.02-31.98-46.15-38.94-67.63-3.51-11.51-2.43-20.55-3.36-31.27,1.22,.28,2.29-.19,2.49-1.27,.61-2.72,1.12-5.15,1.86-7.64,2.28-9.28,4.16-16.4,7.06-25.53,1.6-5.25,3.44-10.54,5.28-15.84l.24-.05c3.38-.67,6.81-1.08,10.26-1.24,6.51-.76,22.16-.47,29.61,.92,15.47,1.89,34.85,10.27,46.02,2.1,8.33-6.57,1.33-20.51-9.64-27.7-12.87-9.15-28.93-13.52-42.32-12.18-9.9,.91-17.34,5.75-24.29,10.49-1.24,.8-2.5,1.57-3.78,2.3,1.42-6.51,2.61-12.98,4.21-18.22,4.32-15.65,11.23-29.99,17.41-44.71,1.22,.28,2.29-.19,3.39-.15,2.91-.05,5.81-.11,8.61,.12,8.44,.66,16.82,2.05,25.02,4.16,9.92,2.46,20.01,6.19,30,7.34,14.14,1.89,28.11-.34,36.13-8.41,7.41-8.21-2.19-20.6-13.97-26.85-12.04-6.72-25.37-9.55-37.63-9.99-17.96-.62-28.46,6.38-35.09,18.85-1.82,2.95-6.26,6.94-9.86,7.65-1.28,.47-2.61,.82-3.96,1.04,1.12-2.3,1.86-4.78,2.85-7.31,5.54-15.37,6.71-30.92,16.21-44.47,5.05-6.71,15.83-15.58,21.17-24.16,2.63-3.89,5.25-7.78,7.5-11.86,16.61-2.75,37.61,.9,56.06-1.43,6.86-1.09,13.68-3.21,17.36-8.1,7.46-10.04,.45-21.12-15.17-26.61-16.62-6.33-30.29,.25-41.05,6.78-3.45,2.32-6.56,5.12-9.23,8.31,.88-3.22,1.97-6.38,3.24-9.47,2.65-6.23,5.89-9.99,11.4-14.45,6.14-4.17,11.9-8.87,17.23-14.03,4.08-2.28,8.02-4.79,11.81-7.52,4.94-3.57,9.88-7.14,12.58-12.34,3.83-6.99,5.67-17.99-4.35-25.89-5.53-4.62-13.83-6.1-19.08-4.03-12.57,6.63-14.05,26.39-10.54,40.76,.85,2.95,1.7,5.9,2.55,8.85l.13,.23c-2.34,2.02-4.68,4.04-7.15,5.82-4.38,2.84-8.43,6.16-12.07,9.91-.22-8.01,2.83-16.4,2.23-25.1-.45-13.67-10.67-29.06-25.48-38.34-18.5-10.64-33.2-2.55-29.23,14.06,1.65,7.72,6.46,15.35,11.13,22.73,5.55,7.99,11.46,16.18,18.8,23.56,3.67,3.69,7.69,7.05,11.84,10.65,1.24,1.07,2.58,2.02,3.99,2.85-2.56,5.44-3.88,11.67-5.7,17.48-2.9,8.65-7.19,16.77-12.69,24.05-4.88,7.97-15.55,16.56-21.98,25.1-1.23,1.66-2.3,3.43-3.17,5.3-.25-.51-.6-.98-1.03-1.36-2.77-11.14-2.74-22.05-4.04-32.96-2.04-19.85-10.18-40.58-34.45-52.93-10.9-5.64-25.08-8.56-32.32-1.94-8.16,7.84-6.84,22.12,.57,33.9,10.41,17.16,28.69,31.22,46.87,42.7,7.34,4.53,13.98,6.85,18.78,11.62l.26,.47c.35,1.5,.82,2.97,1.4,4.4,.35,.56,.96,.93,1.62,.98-4.75,11.06-6.77,23.66-10.69,34.3-5.89,15.7-13.27,30.66-19.16,46.35-.68-1.68-1.53-4.63-2.2-6.32-2.72-8.43-4.94-17-6.65-25.69-4.81-22.42-11.55-50.17-39.42-64.68-36.46-16.97-65.79,3.61-42.1,36.85,12.99,17.95,33.52,30.79,53.97,41.56,10.31,6.02,21.54,10.82,28.62,17.73,1.18,1.5,2.18,3.14,2.99,4.86,.52,.93,.43,1.73,1.31,2.34l1.11,.56c-.42,1.64-1.07,3.33-1.49,4.97-3.42,11.06-5.22,23.1-7.89,34.53-.65,2.82-1.5,5.6-2.56,8.29-.24,.05-.11,.28-.22,.56-.66,1.69-1.07,3.33-1.73,5.01-11.7-13.28-18.1-29.93-29.49-44.56-11.2-12.85-28.61-26.3-45.59-26.59-24.96,.24-7.98,32.47,5.78,45.6,11.25,11.03,25.64,19.1,40.41,24.5,1.7,5.9,3.89,11.7,6.19,17.73-1.66-2.01-3.56-3.97-5.22-5.98-4.7-5.05-15.94-18.93-22.85-16.01-6.49,4.13,4.1,16.85,10.58,21.28,6.15,4.6,13.07,8.07,20.43,10.26l.24-.05c1.75,5.25,2.99,10.66,3.7,16.15,.55,4.33,.85,8.69,.91,13.06-.5-.42-1.14-1.08-1.64-1.49-2.4-2.38-4.57-4.81-6.73-7.24-4.96-5.52-9.43-11.12-15.68-15.61-11.64-8.87-21.85-3.75-13.97,7.94,6.07,8.93,17.52,13.17,27.33,15.91,1.97,.65,6.88,2.28,9.15,4.43l.13,.23c.5,.42,.76,.89,1.27,1.31,.54,10.02,2.06,20.37,8.43,30.79,12.05,21.51,31.59,42.59,35.86,63.56,2.7,15.31-1.03,30.58-.23,46.78,.29,18.64,4.63,38.29,5.53,57.07,.37,3.04,.74,6.09,1.22,8.85-6.49-7.29-13.32-14.25-20.51-20.89-14.85-13.17-29.94-26.3-43.96-39.9,.07-1.3,.35-2.58,.81-3.79,1.3-4.71,3.28-9.21,5.87-13.36,6.48-10.36,21.54-21.12,24.33-35.69,4.43-18.78-19.3-32.55-36.83-25.72-15.33,7.43-15.23,27.14-13.71,43.2,.8,6.59,2.12,13.1,3.96,19.47l-1.9-1.96c-9.89-10.52-19.32-21.64-29.11-32.44-.04-1.03-1.07-2.39-1.48-3.6-1.38-2.43-2.54-4.99-3.47-7.63-3.38-8.42-6.26-22.14-6.12-30.47-.29-18.64,11.13-32.57,6.4-52.93-2.33-12.26-16.74-29.42-30.25-22.08-4.26,2.4-6.26,6.94-8.03,10.93-2.87,6.8-3.88,14.52-3.67,22.53,.44,11.63,2.89,23.09,7.23,33.89,2.66,6.86,5.77,13.53,9.32,19.97-17.58-14.71-36.78-27.55-54.21-41.51,.24-.59,.16-1.26-.2-1.78-.35-1.49-.57-3.01-.67-4.54-.3-4.35,.31-12.78,2.44-17.1,7.84-15.56,16.76-31.08,15.84-50.37-.57-22.48-6.99-60.16-38.35-73.72-21.46-8.76-31.2,7.7-31.29,22.78-1.57,26.27,12.94,54.57,24.86,81.57,4.82,10.99,8.47,19.88,12.28,30.04-4.51-4.2-8.78-8.64-12.8-13.32-11.09-13.13-18.91-26.14-28.25-40.91-8.08-13.47-17.12-26.75-25.19-40.22-1.57-2.81-3.03-5.89-4.61-8.7,.58-.58,.59-1.52,.01-2.11-.07-.07-.14-.13-.23-.19-11.42-12.29-18.45-23.89-28.69-36.93-15.61-19.77-33.78-39.82-56.78-53.73-10.2-6.3-21.28-7.49-25.04,1.04-2.26,6.94,1.74,15.5,5.58,23.31,4.06,7.25,8.49,14.68,14.34,21.32,9.54,10.84,21.21,20.23,33.33,29.01,14,9.88,28.84,18.52,44.35,25.8l15.21,7.13c.38,.19,.8,.28,1.22,.28,5.22,8.84,11.29,17.77,16.74,26.56-1.57-.29-3.13-.68-4.65-1.16-7.52-1.88-14.82-4.53-21.78-7.91-25.1-11.93-48.52-29.91-76.01-38-5.27-1.3-10.75-2.04-14.8-.2-4.72,2.41-6.88,7.97-5.04,12.93,3.6,10.72,15,19.64,25.7,26.36,24.88,15.35,53.68,25.78,79.71,25.07,8.72-.16,17.29-1.07,24.57-3.8l.24-.05c7.92,12.72,16.08,25.39,26.15,37.17,8.67,10.24,19.11,19.35,29.88,27.61,1.66,1.38,3.37,2.69,5.13,3.92-12.48-2.74-24.07-7.72-37.17-13.45-13.46-5.92-26.9-11.32-40.79-16.11-16.58-5.3-34.81-12.1-50.21-9.59-9.38,1.85-11.31,10.79-4.65,19.35,6.05,8.42,16.12,14.48,25.21,20.22,15.36,9.06,32.03,15.67,49.42,19.61,17.5,4.08,34.92,6.11,51.49,5.18,11.37-.68,23.08-1.69,33.11-5.22,.24-.05,.11-.28,.11-.28,13.52,10.32,26.8,20.69,38.18,31.95,6.97,7.2,13.69,14.44,20.18,21.73-17.15-1-34.16-3.74-50.76-8.18-23.49-5.24-52.64-15.34-68.45-2.1-9.75,7.37-5.87,21.93,7.02,31.59,12.38,9.24,27.44,12.77,41.19,13.96,21.31,2.3,38.97-4.3,54.38-12.52,6.65-3.39,15.06-7.9,20.81-9.55,1.62-.58,3.33-.91,5.05-.99l1.44-.28c4.32,4.86,9.02,9.91,13.58,14.72,1.77,1.73,3.3,3.51,4.94,5l.26,.47c.26,.47,.63,.65,1.38,1.03l7.21,7.15c-.06,.54,.14,1.08,.54,1.45,.54,.44,1.18,.76,1.86,.93,11.62,11.21,23.83,22.05,36.28,32.84,10.65,9.2,20.66,19.11,29.96,29.67,.5,.42,.89,1.12,1.53,1.78,.1,.61,.09,1.23-.05,1.83-1.52,15.88,1.11,32.49,3.88,49.35-10.12,7.19-27.91,4.98-41.68,8.99-9.57,2.92-17.27,10.15-16.73,20.17,.34,11.1,9.1,23.39,21.51,30.3,17.02,9.89,33.39,1.47,36.38-11.32,2.76-9.37,3.44-19.11,4.24-29.13,2.53,11.19,4.94,22.65,6.01,33.61,1.7,11.61,0,23.37,.28,35.77,.32,2.01-.2,3.93,.61,5.85,1.29,1.82,4.54,1.44,4.22-.57-.78-7.12,.14-16.9,.28-25.24-.16-8.22-.75-16.42-1.75-24.58-1.63-12.92-5.34-26.21-7.95-39.46l.26-2.39c.07-.26,.02-.54-.15-.75,2.16-.43,2.14-.94,3.58-1.23,8.02-2.36,16.37-2.7,25.24-2.11-.32,.84-.05,1.83-.5,2.44-.29,1.87-.72,3-.92,4.08-2.02,6.89-5.28,12.98-8.41,19.31-5.82,11.53-12.39,25.55-2.65,41.02,16.26,26.66,47.47,22.33,40.8-3.88-3.16-14.7-15.45-30.45-20.12-43.55-1.57-5.66-1.96-9.22-.6-14.42,.23-1.35,.66-2.67,1.3-3.89,7.8,1.06,15.49,2.4,23.53,3.42,3.94,.51,7.91,.77,11.89,.78h0Zm-140.86-320.18c-.96-2.67-1.68-5.38-2.51-7.81,1.97,.65,4.17,1.26,6.01,1.67,4.54,1.44,7.6,2.14,11.23,4.8l.13,.23,.37,.19c1.01,.84,1.66,2.01,2.77,2.57-.11,.28,.02,.52-.22,.56-3.12,9.29-5.76,18.74-7.91,28.3-.11,.28,.02,.51-.22,.56-1.39-10.11-5.71-20.68-9.66-31.07h0Zm88.86,244.48c2.64-.52,12.72-.17,15.17,.39,2.35,.35,4.68,.84,6.97,1.48-3.53,5.87-5.58,12.51-5.98,19.35-2.55-2.53-5.46-4.67-8.63-6.35-5.83-3.52-12.26-5.95-18.96-7.17l-.13-.23c1.97-2.2,3.94-4.41,6.04-6.38l.24-.05c1.71-.59,3.49-.95,5.29-1.04h0Zm71.68-86.03c-1.73-10.39-4.71-20.52-8.89-30.18-2.73-6.39-5.78-12.63-9.14-18.71-.6-1.13-1.29-2.21-2.07-3.23l3.87-3.1c9.15,4.43,17.26,9.84,26.39,16.61,5,3.69,10.4,8.08,16.14,12.14-8.59,8.97-17.56,17.74-26.29,26.47h0Zm88.84-148.35c6.81-4.79,14.01-8.99,21.54-12.55,1.55-.56,2.73-1.32,4.28-1.88-2.74,7.03-5.34,14.29-8.45,21.14s-6.58,13.5-10.07,20.16c-.39,.27-.64,.7-.68,1.17-.22,.56-.57,.89-.79,1.45-7.78-2.32-15.82-3.7-23.93-4.12-3.89-.27-7.54-.59-11.3-.63,9.82-8.68,19.4-17.32,29.39-24.74h0Zm-37.09,31.97c8.87,3.45,19.99,11.38,31.55,18.2-2.38,3.84-4.53,7.64-7.04,11.25-4.26-2.34-8.87-3.97-13.66-4.84-11.6-2.26-23.47-2.72-35.21-1.38,8.05-7.56,16.45-15.45,24.36-23.23Zm-39.67,36.89c.86-.72,1.68-1.49,2.45-2.3,1.6,.47,3.41,.37,5,.83,6.12,1.39,12.5,3.25,18.64,5.16,6.75,2.05,16.1,5.4,24.78,7.07-4.48,5.82-9.34,11.44-14.2,17.08-6.12-4.25-13.02-7.04-19.9-9.32-6.27-2.17-12.75-3.68-19.34-4.5-4.26-.46-8.39-.68-12.52-.91,5.27-4.42,10.3-8.78,15.09-13.1h0Zm-84.09,55.77c4.09-6.52,8.16-13.55,10.4-21,2.23,3.97,4.45,7.95,7.05,12.11-7.71,5.45-15.12,11.33-22.17,17.61,1.57-2.91,3.15-5.82,4.72-8.73h0Zm-7.05,16.97c8.48-8.04,17.53-15.46,27.07-22.21,7.84,11.63,16.78,22.47,26.69,32.39,3.41,3.22,7.18,6.63,10.7,9.58,.42,.39,.89,.73,1.38,1.03-5.69,6.05-11.24,12.34-16.8,18.63-.5-.16-1.04-.06-1.44,.28-.65,.3-.94,1.06-.64,1.72,.03,.07,.07,.14,.12,.21-3.13,3.47-6.01,6.9-9.27,10.13-2.35-9.92-4.22-19.94-9-29.9-5.98-12.59-15.87-23.1-28.79-21.85h0Zm-20.59,99.08c-1.25-21.3-6.11-41.9-5.61-61.99,.07-1.31,0-2.86,.07-4.17,2.56,.28,2.89-3.43,4.16-4.97,1.47-2.63,3.06-5.02,4.66-7.41,2.2,6.32,6.72,12.95,11.68,18.47,6.86,7.48,16.58,11.01,25.25,15.54,1.66,.95,3.25,2.03,4.74,3.22,.13,.23,.63,.65,.76,.89,.37,.19,1.03,1.36,1.4,1.54,.49,.64,.89,1.35,1.18,2.1-8.84,9.01-18.41,17.65-27.49,26.7,.8-6.64,.81-13.35,.01-20-.67-4.54-1.74-9.78-5.56-14.22-2.79-3.09-8.04-3.87-10.25-1.62-2.34,2.02-2.32,5.39-2.43,8.53,.37,5.9,2.2,12.03,4.38,17.83,1.84,4.87,3.3,9.88,4.38,14.98,.29,1.24,.47,2.51,.52,3.79-3.59,4.08-7.04,8.4-10.36,12.95-.42-4.07-1.07-8.1-1.48-12.17h0Zm9.99,62.16c-1.63,.36-3.23,.85-4.79,1.46l-.24,.05c-1.78-10.81-3.26-22.98-3.87-31.69-.18-1.73-.17-3.47,.02-5.2,.27,.45,.73,.74,1.25,.79,1.97,.65,3.37-.66,2.32-2.53-.41-1.22-.59-2.48-1-3.7,.96-.19,1.66-.85,1.38-1.83q.24-.05,.61,.14c2.4,.13,4.77,.54,7.08,1.2,4.54,1.44,12.72,5.55,19.1,7.4,4.3,1.49,9.18,2.09,12.65,1.14,.33,2.96,.89,5.89,1.7,8.75,2.41,8.79,6.41,17.07,11.81,24.42,.26,.47,.76,.89,1.03,1.35-15.62-2.64-34.9-5.59-49.04-1.77h0Z"/>
  <path class="cls-11" d="M619.57,654.07c.15,.75,.54,1.45,.7,2.2,1.26,7.02,2.07,11.8,1.23,17.93-2,13.12-11.17,25.83-5.87,42.44,5.71,23.54,34.54,37.85,42.3,14.52,4.45-15.41-3.12-34.18-11.59-51.2-4.72-9.13-10.15-17.87-16.24-26.14,6.67-.44,13.23-1.91,19.45-4.35,1.31-.52,2.38-.99,3.7-1.51,.37,.19,.98,.32,1.35,.51,11.43-4.85,20.81-9.55,32.44-12.62,20-5.75,45.34-11.52,47.23-32.92,.2-6.79-6.02-13.61-12.53-18.57-8.79-5.9-19.53-8.16-29.96-6.3-17.97,2.24-30.37,12.99-37.08,26.25-4.14,8.34-6.05,17.81-7.34,27.41-.29,4.73-1.4,9.88-.23,14.84-7.63,3.06-16.07,4.2-25.03,4.41-.44-.12-.9-.12-1.33,0-3.2,.08-6.41-.07-9.59-.45-.73-14.66,5.24-28.3,10.48-42.31,1.71-5.53,4.03-10.92,4.62-17.01,4.6,1.4,9.36,2.21,14.16,2.41,8.87,.59,16.42-4.53,13.03-12.95-6.05-11.27-27-16.75-38.36-18.93-9.68-1.48-19.5-1.72-29.24-.73-1.34,.04-2.67,.22-3.98,.52,5.71-5.54,11.18-11.03,16.52-16.75,4.77-4.83,9.27-10.13,13.91-15.2,15.16,3.25,28.97,11.69,43.02,20.09,17.06,10.92,34.89,22.73,52.35,17.21,14.69-5.23,13.92-23.77-2.79-35.02-16.95-11.2-37.27-16.03-55.26-17.16-7.31-.47-14.64-.33-21.92,.42-.72,.14-1.57,.05-2.53,.24l12.53-13.37c7.09-7.37,14.3-14.5,21.39-21.87,.85,.09,1.94,.14,3.04,.18,4.63,.65,6.58,.78,11.34,1.66,11.86,2.6,23.9,6.46,35.75,8.54,11.35,1.88,22.9,2.32,34.36,1.28,8.33-.86,17.13-1.82,24.02-5.25,12.46-6.35,13.67-20.87-4.09-31.13-15.52-8.02-33.1-11.16-50.43-9.02-4.57,.9-10.01,1.19-14.06,3.02l-3.41-3.22,.48-.09c9.84-5.31,20.7-9.27,31.81-13.28,14.58-4.95,30.14-9.57,45.93-14.75,6.58,3.64,12.28,6.67,19.05,12.09,18.17,14.34,31.14,37.49,48.81,54.26,12.12,11.63,43.88,32.12,59.16,29.37,31.52-5.69-28.42-50.75-42.68-61.44-16.38-12.09-34.01-22.12-51.84-31.08-5.9-3.02-12.01-5.64-18.27-7.83,20.92-6.98,41.58-14.42,60.73-23.12,3.45-1.46,6.78-3.15,9.86-4.8l.37,.19c2.34,.84,5.05,1.86,7.52,2.93,3.93,1.3,11.99,5.69,13.61,6.67,31.44,18.48,51.08,50.7,85.25,67.86,14.38,7.56,32.51,12.29,43.99,5.62,18.96-16.19-23.02-46.36-42.33-58.91-18.29-11.2-38.11-18.46-57.83-23.67-9.88-2.75-19.98-4.67-30.18-5.74-3.18-.41-6.39-.56-9.59-.45,23.7-12.42,45.85-27.59,65.99-45.19,.98,.32,2.08,.37,3.06,.7,5.65,1.59,11.2,3.54,16.61,5.82,13.94,5.82,24.51,12.31,37.13,21.51,15.62,11.2,31.32,24.47,49.94,29.11,6.47,1.06,13.9,1.94,18.25-1.26,3.74-3.33,4.57-9.47,.71-14.94-5.33-8.56-14.81-15-23.78-21.02-8.18-5.48-16.73-10.39-25.58-14.7-10.74-5.42-22.01-9.73-33.62-12.85-9.28-2.62-18.72-4.67-28.25-6.12,3.48-3.8,6.96-7.6,10.3-11.63l.24-.05c14.45-8.04,31.41-13.97,41.06-26.78,3.89-5.44,7.29-11.3,6.85-18.75,.16-10.68-15.26-20.1-26.34-21.3-11.58-1.62-19.43,4.86-22.24,13.21-2.96,10.45-.28,22.38-1.03,33.44-.17,5.21-.85,10.38-2.02,15.46-.22,.5-.2,1.07,.06,1.54-4.05,4.69-8.1,9.38-12.62,14.17-3.32,3.47-6.82,6.76-10.5,9.86,2.02-6.89,1.32-14.8-2.76-22.56-2.53-5.47-8.76-9.44-14.9-11.35-13.85-3.76-17.68,6.08-12.03,16.65,4.23,8.51,13.52,18.89,13.16,24.94,.07,1.66,.01,3.32-.16,4.97-.32,.56-.34,1.25-.05,1.83-9.82,7.71-20.13,14.77-30.87,21.14,3.9-8.3,6.79-17.43,4.17-27.82-2.33-9.41-11.96-19.45-23.33-18.78-10.64,.54-17.79,6.36-23.59,12.69-11.74,11.92-13.71,31.78-18.19,46.16-2.02,6.89-5.39,13.26-8.89,19.4-.32,.84-1.62,1.88-1.45,3.14-27.46,10.08-55.59,18.47-84.29,27.76-12.31,4.24-24.48,8.72-35.63,14.55,4.86-5.63,9.47-11.21,13.96-17.03,5.72,.69,10.9-.07,14.19-2.79,3.63-3.05,2.04-9.23-2.61-13.25,2.38-3.85,5.01-7.74,7.26-11.82,12.54,7.14,24.62,12.03,34.15,8.08,8.07-4.19,1.89-15.69-6.58-21.29-3.57-2.44-7.35-4.56-11.29-6.35,4.17-3.14,8.59-5.92,13.23-8.31,20.64-10.81,45.23-16.95,62.94-31.09,8.92-6.95,18.91-14.37,21.35-25.75,.79-4.31,1.06-9.55-2.77-13.99-14.52-14.02-34.26-4.94-45.44,.38-9.61,4.77-17.82,11.93-23.86,20.79-5.95,8.44-9.78,18.28-14.36,27.75-1.94,3.91-4.09,7.71-6.43,11.39,.57-.89,1.01-2.02,1.58-2.91,4.22-9.14,7.71-18.65,11.19-28.17,.48-.1,.59-.38,1.07-.47,.39-.27,.64-.7,.68-1.17-.07-.52-.25-1.02-.55-1.45,.11-.28,.22-.56,.46-.61,.68,.15,1.38-.21,1.66-.85,6.26-15.51,25.84-42.99,10.58-63.1-2.06-1.87-4.74-2.91-7.52-2.93-7.28-.13-11.06,5.03-13.4,9.91-5.3,12.47-5.66,27.08-2,42.2,.95,4.24,2.13,8.43,3.55,12.54,.52,.94,.57,1.97,1.33,2.85-2.38,.99-4.64,2.21-7.02,3.2-2.32-7.39-3.98-14.97-4.95-22.65-1.39-10.11-2.91-26.17-14.88-34.2-3.81-2.16-8.65-.97-11.04,2.7-5.03,7.22-2.66,17.66,1.01,27.06,3.24,8.18,7.56,15.88,12.83,22.92,2.2,3.03,4.67,5.84,7.38,8.41l.13,.23c-3.67,2.02-7.34,4.04-10.65,6.25-12.51,8.17-23.11,18.31-33.61,28.17-1.05,.99-1.99,1.69-3.04,2.68-1.42-2.06-2.6-4.16-3.78-6.27-3.82-6.88-7.12-14.04-9.86-21.43-4.75-12.31-11.43-32.8-27.37-43.16-5.11-3.41-10.75-2.04-12.92,1.24-3.52,5.63,.1,14,2.94,20.97,5.11,11.98,13.23,23.62,22.29,34.56,5.35,6.22,10.57,12.2,16.51,18.04,1.38,1.03,2.53,2.62,4.02,3.36-7,6.57-14.24,13.19-21.48,19.81-6.48-13-10.6-24.66-15.77-38.18-5-12.26-10.15-25.26-21.13-35.82-8.93-7.85-18.92-6.14-21.51,1.64-4.8,12.89,1.25,29.87,9.37,44.37,5.31,8.84,11.68,17,18.95,24.31,4.35,4.45,8.93,8.66,13.74,12.61,1.25,.79,2.38,1.87,3.63,2.66-3.39,3-6.89,6.29-10.28,9.29l-10.17,9.01c-.24,.05-.48,.1-.35,.32-.24,.05-.11,.28-.11,.28-2.58,2.07-5.27,4.41-7.85,6.48l-.24,.05c-8.66-18.81-19.03-37.79-34.77-54.95-7.25-8.18-15.35-16.45-25.29-22.28-11.05-6.39-28.01-11.88-29.55,.62-.58,12.32,8.74,23.72,20.06,33.44-7.56-3.96-15.67-6.52-23.32-6.83-9.43-.48-17.6,6.48-18.61,15.87-.71,17.8,17.48,35.5,30.38,51.4,7.01,8.23,13.45,17.34,13.4,24.88-.11,2.36-.5,4.71-1.16,6.98-.32,.84-1.03,1.5-.5,2.44,.29,.62,.85,1.08,1.51,1.26-.6,.57-1.14,1.2-1.62,1.88-4.76,1.98-8.77,4.84-9.4,9.9,.06,.54,0,1.08-.18,1.59-.27,.55-.62,1.05-1.03,1.5-2.22,3.06-4.27,6.24-6.15,9.52,.93-12.64,2.33-25.38-2.97-39.14-8.35-23.02-31.98-46.15-38.94-67.63-3.51-11.51-2.43-20.55-3.36-31.27,1.22,.28,2.29-.19,2.49-1.27,.61-2.72,1.12-5.15,1.86-7.64,2.28-9.28,4.16-16.4,7.06-25.53,1.6-5.25,3.44-10.54,5.28-15.84l.24-.05c3.38-.67,6.81-1.08,10.26-1.24,6.51-.76,22.16-.47,29.61,.92,15.47,1.89,34.85,10.27,46.02,2.1,8.33-6.57,1.33-20.51-9.64-27.7-12.87-9.15-28.93-13.52-42.32-12.18-9.9,.91-17.34,5.75-24.29,10.49-1.24,.8-2.5,1.57-3.78,2.3,1.42-6.51,2.61-12.98,4.21-18.22,4.32-15.65,11.23-29.99,17.41-44.71,1.22,.28,2.29-.19,3.39-.15,2.91-.05,5.81-.11,8.61,.12,8.44,.66,16.82,2.05,25.02,4.16,9.92,2.46,20.01,6.19,30,7.34,14.14,1.89,28.11-.34,36.13-8.41,7.41-8.21-2.19-20.6-13.97-26.85-12.04-6.72-25.37-9.55-37.63-9.99-17.96-.62-28.46,6.38-35.09,18.85-1.82,2.95-6.26,6.94-9.86,7.65-1.28,.47-2.61,.82-3.96,1.04,1.12-2.3,1.86-4.78,2.85-7.31,5.54-15.37,6.71-30.92,16.21-44.47,5.05-6.71,15.83-15.58,21.17-24.16,2.63-3.89,5.25-7.78,7.5-11.86,16.61-2.75,37.61,.9,56.06-1.43,6.86-1.09,13.68-3.21,17.36-8.1,7.46-10.04,.45-21.12-15.17-26.61-16.62-6.33-30.29,.25-41.05,6.78-3.45,2.32-6.56,5.12-9.23,8.31,.88-3.22,1.97-6.38,3.24-9.47,2.65-6.23,5.89-9.99,11.4-14.45,6.14-4.17,11.9-8.87,17.23-14.03,4.08-2.28,8.02-4.79,11.81-7.52,4.94-3.57,9.88-7.14,12.58-12.34,3.83-6.99,5.67-17.99-4.35-25.89-5.53-4.62-13.83-6.1-19.08-4.03-12.57,6.63-14.05,26.39-10.54,40.76,.85,2.95,1.7,5.9,2.55,8.85l.13,.23c-2.34,2.02-4.68,4.04-7.15,5.82-4.38,2.84-8.43,6.16-12.07,9.91-.22-8.01,2.83-16.4,2.23-25.1-.45-13.67-10.67-29.06-25.48-38.34-18.5-10.64-33.2-2.55-29.23,14.06,1.65,7.72,6.46,15.35,11.13,22.73,5.55,7.99,11.46,16.18,18.8,23.56,3.67,3.69,7.69,7.05,11.84,10.65,1.24,1.07,2.58,2.02,3.99,2.85-2.56,5.44-3.88,11.67-5.7,17.48-2.9,8.65-7.19,16.77-12.69,24.05-4.88,7.97-15.55,16.56-21.98,25.1-1.23,1.66-2.3,3.43-3.17,5.3-.25-.51-.6-.98-1.03-1.36-2.77-11.14-2.74-22.05-4.04-32.96-2.04-19.85-10.18-40.58-34.45-52.93-10.9-5.64-25.08-8.56-32.32-1.94-8.16,7.84-6.84,22.12,.57,33.9,10.41,17.16,28.69,31.22,46.87,42.7,7.34,4.53,13.98,6.85,18.78,11.62l.26,.47c.35,1.5,.82,2.97,1.4,4.4,.35,.56,.96,.93,1.62,.98-4.75,11.06-6.77,23.66-10.69,34.3-5.89,15.7-13.27,30.66-19.16,46.35-.68-1.68-1.53-4.63-2.2-6.32-2.72-8.43-4.94-17-6.65-25.69-4.81-22.42-11.55-50.17-39.42-64.68-36.46-16.97-65.79,3.61-42.1,36.85,12.99,17.95,33.52,30.79,53.97,41.56,10.31,6.02,21.54,10.82,28.62,17.73,1.18,1.5,2.18,3.14,2.99,4.86,.52,.93,.43,1.73,1.31,2.34l1.11,.56c-.42,1.64-1.07,3.33-1.49,4.97-3.42,11.06-5.22,23.1-7.89,34.53-.65,2.82-1.5,5.6-2.56,8.29-.24,.05-.11,.28-.22,.56-.66,1.69-1.07,3.33-1.73,5.01-11.7-13.28-18.1-29.93-29.49-44.56-11.2-12.85-28.61-26.3-45.59-26.59-24.96,.24-7.98,32.47,5.78,45.6,11.25,11.03,25.64,19.1,40.41,24.5,1.7,5.9,3.89,11.7,6.19,17.73-1.66-2.01-3.56-3.97-5.22-5.98-4.7-5.05-15.94-18.93-22.85-16.01-6.49,4.13,4.1,16.85,10.58,21.28,6.15,4.6,13.07,8.07,20.43,10.26l.24-.05c1.75,5.25,2.99,10.66,3.7,16.15,.55,4.33,.85,8.69,.91,13.06-.5-.42-1.14-1.08-1.64-1.49-2.4-2.38-4.57-4.81-6.73-7.24-4.96-5.52-9.43-11.12-15.68-15.61-11.64-8.87-21.85-3.75-13.97,7.94,6.07,8.93,17.52,13.17,27.33,15.91,1.97,.65,6.88,2.28,9.15,4.43l.13,.23c.5,.42,.76,.89,1.27,1.31,.54,10.02,2.06,20.37,8.43,30.79,12.05,21.51,31.59,42.59,35.86,63.56,2.7,15.31-1.03,30.58-.23,46.78,.29,18.64,4.63,38.29,5.53,57.07,.37,3.04,.74,6.09,1.22,8.85-6.49-7.29-13.32-14.25-20.51-20.89-14.85-13.17-29.94-26.3-43.96-39.9,.07-1.3,.35-2.58,.81-3.79,1.3-4.71,3.28-9.21,5.87-13.36,6.48-10.36,21.54-21.12,24.33-35.69,4.43-18.78-19.3-32.55-36.83-25.72-15.33,7.43-15.23,27.14-13.71,43.2,.8,6.59,2.12,13.1,3.96,19.47l-1.9-1.96c-9.89-10.52-19.32-21.64-29.11-32.44-.04-1.03-1.07-2.39-1.48-3.6-1.38-2.43-2.54-4.99-3.47-7.63-3.38-8.42-6.26-22.14-6.12-30.47-.29-18.64,11.13-32.57,6.4-52.93-2.33-12.26-16.74-29.42-30.25-22.08-4.26,2.4-6.26,6.94-8.03,10.93-2.87,6.8-3.88,14.52-3.67,22.53,.44,11.63,2.89,23.09,7.23,33.89,2.66,6.86,5.77,13.53,9.32,19.97-17.58-14.71-36.78-27.55-54.21-41.51,.24-.59,.16-1.26-.2-1.78-.35-1.49-.57-3.01-.67-4.54-.3-4.35,.31-12.78,2.44-17.1,7.84-15.56,16.76-31.08,15.84-50.37-.57-22.48-6.99-60.16-38.35-73.72-21.46-8.76-31.2,7.7-31.29,22.78-1.57,26.27,12.94,54.57,24.86,81.57,4.82,10.99,8.47,19.88,12.28,30.04-4.51-4.2-8.78-8.64-12.8-13.32-11.09-13.13-18.91-26.14-28.25-40.91-8.08-13.47-17.12-26.75-25.19-40.22-1.57-2.81-3.03-5.89-4.61-8.7,.58-.58,.59-1.52,.01-2.11-.07-.07-.14-.13-.23-.19-11.42-12.29-18.45-23.89-28.69-36.93-15.61-19.77-33.78-39.82-56.78-53.73-10.2-6.3-21.28-7.49-25.04,1.04-2.26,6.94,1.74,15.5,5.58,23.31,4.06,7.25,8.49,14.68,14.34,21.32,9.54,10.84,21.21,20.23,33.33,29.01,14,9.88,28.84,18.52,44.35,25.8l15.21,7.13c.38,.19,.8,.28,1.22,.28,5.22,8.84,11.29,17.77,16.74,26.56-1.57-.29-3.13-.68-4.65-1.16-7.52-1.88-14.82-4.53-21.78-7.91-25.1-11.93-48.52-29.91-76.01-38-5.27-1.3-10.75-2.04-14.8-.2-4.72,2.41-6.88,7.97-5.04,12.93,3.6,10.72,15,19.64,25.7,26.36,24.88,15.35,53.68,25.78,79.71,25.07,8.72-.16,17.29-1.07,24.57-3.8l.24-.05c7.92,12.72,16.08,25.39,26.15,37.17,8.67,10.24,19.11,19.35,29.88,27.61,1.66,1.38,3.37,2.69,5.13,3.92-12.48-2.74-24.07-7.72-37.17-13.45-13.46-5.92-26.9-11.32-40.79-16.11-16.58-5.3-34.81-12.1-50.21-9.59-9.38,1.85-11.31,10.79-4.65,19.35,6.05,8.42,16.12,14.48,25.21,20.22,15.36,9.06,32.03,15.67,49.42,19.61,17.5,4.08,34.92,6.11,51.49,5.18,11.37-.68,23.08-1.69,33.11-5.22,.24-.05,.11-.28,.11-.28,13.52,10.32,26.8,20.69,38.18,31.95,6.97,7.2,13.69,14.44,20.18,21.73-17.15-1-34.16-3.74-50.76-8.18-23.49-5.24-52.64-15.34-68.45-2.1-9.75,7.37-5.87,21.93,7.02,31.59,12.38,9.24,27.44,12.77,41.19,13.96,21.31,2.3,38.97-4.3,54.38-12.52,6.65-3.39,15.06-7.9,20.81-9.55,1.62-.58,3.33-.91,5.05-.99l1.44-.28c4.32,4.86,9.02,9.91,13.58,14.72,1.77,1.73,3.3,3.51,4.94,5l.26,.47c.26,.47,.63,.65,1.38,1.03l7.21,7.15c-.06,.54,.14,1.08,.54,1.45,.54,.44,1.18,.76,1.86,.93,11.62,11.21,23.83,22.05,36.28,32.84,10.65,9.2,20.66,19.11,29.96,29.67,.5,.42,.89,1.12,1.53,1.78,.1,.61,.09,1.23-.05,1.83-1.52,15.88,1.11,32.49,3.88,49.35-10.12,7.19-27.91,4.98-41.68,8.99-9.57,2.92-17.27,10.15-16.73,20.17,.34,11.1,9.1,23.39,21.51,30.3,17.02,9.89,33.39,1.47,36.38-11.32,2.76-9.37,3.44-19.11,4.24-29.13,2.53,11.19,4.94,22.65,6.01,33.61,1.7,11.61,0,23.37,.28,35.77,.32,2.01-.2,3.93,.61,5.85,1.29,1.82,4.54,1.44,4.22-.57-.78-7.12,.14-16.9,.28-25.24-.16-8.22-.75-16.42-1.75-24.58-1.63-12.92-5.34-26.21-7.95-39.46l.26-2.39c.07-.26,.02-.54-.15-.75,2.16-.43,2.14-.94,3.58-1.23,8.02-2.36,16.37-2.7,25.24-2.11-.32,.84-.05,1.83-.5,2.44-.29,1.87-.72,3-.92,4.08-2.02,6.89-5.28,12.98-8.41,19.31-5.82,11.53-12.39,25.55-2.65,41.02,16.26,26.66,47.47,22.33,40.8-3.88-3.16-14.7-15.45-30.45-20.12-43.55-1.57-5.66-1.96-9.22-.6-14.42,.23-1.35,.66-2.67,1.3-3.89,7.8,1.06,15.49,2.4,23.53,3.42,3.94,.51,7.91,.77,11.89,.78h0Zm-140.86-320.18c-.96-2.67-1.68-5.38-2.51-7.81,1.97,.65,4.17,1.26,6.01,1.67,4.54,1.44,7.6,2.14,11.23,4.8l.13,.23,.37,.19c1.01,.84,1.66,2.01,2.77,2.57-.11,.28,.02,.52-.22,.56-3.12,9.29-5.76,18.74-7.91,28.3-.11,.28,.02,.51-.22,.56-1.39-10.11-5.71-20.68-9.66-31.07h0Zm88.86,244.48c2.64-.52,12.72-.17,15.17,.39,2.35,.35,4.68,.84,6.97,1.48-3.53,5.87-5.58,12.51-5.98,19.35-2.55-2.53-5.46-4.67-8.63-6.35-5.83-3.52-12.26-5.95-18.96-7.17l-.13-.23c1.97-2.2,3.94-4.41,6.04-6.38l.24-.05c1.71-.59,3.49-.95,5.29-1.04h0Zm71.68-86.03c-1.73-10.39-4.71-20.52-8.89-30.18-2.73-6.39-5.78-12.63-9.14-18.71-.6-1.13-1.29-2.21-2.07-3.23l3.87-3.1c9.15,4.43,17.26,9.84,26.39,16.61,5,3.69,10.4,8.08,16.14,12.14-8.59,8.97-17.56,17.74-26.29,26.47h0Zm88.84-148.35c6.81-4.79,14.01-8.99,21.54-12.55,1.55-.56,2.73-1.32,4.28-1.88-2.74,7.03-5.34,14.29-8.45,21.14s-6.58,13.5-10.07,20.16c-.39,.27-.64,.7-.68,1.17-.22,.56-.57,.89-.79,1.45-7.78-2.32-15.82-3.7-23.93-4.12-3.89-.27-7.54-.59-11.3-.63,9.82-8.68,19.4-17.32,29.39-24.74h0Zm-37.09,31.97c8.87,3.45,19.99,11.38,31.55,18.2-2.38,3.84-4.53,7.64-7.04,11.25-4.26-2.34-8.87-3.97-13.66-4.84-11.6-2.26-23.47-2.72-35.21-1.38,8.05-7.56,16.45-15.45,24.36-23.23Zm-39.67,36.89c.86-.72,1.68-1.49,2.45-2.3,1.6,.47,3.41,.37,5,.83,6.12,1.39,12.5,3.25,18.64,5.16,6.75,2.05,16.1,5.4,24.78,7.07-4.48,5.82-9.34,11.44-14.2,17.08-6.12-4.25-13.02-7.04-19.9-9.32-6.27-2.17-12.75-3.68-19.34-4.5-4.26-.46-8.39-.68-12.52-.91,5.27-4.42,10.3-8.78,15.09-13.1h0Zm-84.09,55.77c4.09-6.52,8.16-13.55,10.4-21,2.23,3.97,4.45,7.95,7.05,12.11-7.71,5.45-15.12,11.33-22.17,17.61,1.57-2.91,3.15-5.82,4.72-8.73h0Zm-7.05,16.97c8.48-8.04,17.53-15.46,27.07-22.21,7.84,11.63,16.78,22.47,26.69,32.39,3.41,3.22,7.18,6.63,10.7,9.58,.42,.39,.89,.73,1.38,1.03-5.69,6.05-11.24,12.34-16.8,18.63-.5-.16-1.04-.06-1.44,.28-.65,.3-.94,1.06-.64,1.72,.03,.07,.07,.14,.12,.21-3.13,3.47-6.01,6.9-9.27,10.13-2.35-9.92-4.22-19.94-9-29.9-5.98-12.59-15.87-23.1-28.79-21.85h0Zm-20.59,99.08c-1.25-21.3-6.11-41.9-5.61-61.99,.07-1.31,0-2.86,.07-4.17,2.56,.28,2.89-3.43,4.16-4.97,1.47-2.63,3.06-5.02,4.66-7.41,2.2,6.32,6.72,12.95,11.68,18.47,6.86,7.48,16.58,11.01,25.25,15.54,1.66,.95,3.25,2.03,4.74,3.22,.13,.23,.63,.65,.76,.89,.37,.19,1.03,1.36,1.4,1.54,.49,.64,.89,1.35,1.18,2.1-8.84,9.01-18.41,17.65-27.49,26.7,.8-6.64,.81-13.35,.01-20-.67-4.54-1.74-9.78-5.56-14.22-2.79-3.09-8.04-3.87-10.25-1.62-2.34,2.02-2.32,5.39-2.43,8.53,.37,5.9,2.2,12.03,4.38,17.83,1.84,4.87,3.3,9.88,4.38,14.98,.29,1.24,.47,2.51,.52,3.79-3.59,4.08-7.04,8.4-10.36,12.95-.42-4.07-1.07-8.1-1.48-12.17h0Zm9.99,62.16c-1.63,.36-3.23,.85-4.79,1.46l-.24,.05c-1.78-10.81-3.26-22.98-3.87-31.69-.18-1.73-.17-3.47,.02-5.2,.27,.45,.73,.74,1.25,.79,1.97,.65,3.37-.66,2.32-2.53-.41-1.22-.59-2.48-1-3.7,.96-.19,1.66-.85,1.38-1.83q.24-.05,.61,.14c2.4,.13,4.77,.54,7.08,1.2,4.54,1.44,12.72,5.55,19.1,7.4,4.3,1.49,9.18,2.09,12.65,1.14,.33,2.96,.89,5.89,1.7,8.75,2.41,8.79,6.41,17.07,11.81,24.42,.26,.47,.76,.89,1.03,1.35-15.62-2.64-34.9-5.59-49.04-1.77h0Z"/>
  <path class="cls-11" d="M1069.31,1400.11c-.64-.42-1.41-.64-2.05-1.06-5.86-4.07-9.8-6.88-13.55-11.81-7.86-10.69-10.37-26.16-25.86-34.16-20.68-12.61-51.19-2.34-40.18,19.64,7.76,14.04,26.37,21.96,44.4,28.01,9.79,3.12,19.81,5.46,29.97,7-4.41,5.03-8.01,10.7-10.68,16.83-.56,1.29-.99,2.38-1.54,3.68-.39,.13-.92,.47-1.32,.6-4.66,11.51-7.96,21.47-14.02,31.86-10.07,18.21-23.91,40.21-10.12,56.68,4.66,4.94,13.89,5.37,21.99,4.27,10.39-2.05,19.58-8.04,25.64-16.73,11.12-14.29,12.29-30.66,7.66-44.79-2.97-8.82-8.32-16.87-14.19-24.57-3.14-3.55-6-7.98-10.33-10.66,3.23-7.56,8.39-14.33,14.58-20.81,.39-.23,.72-.55,.94-.94,2.21-2.32,4.58-4.48,7.1-6.47,10.88,9.85,16.3,23.72,22.51,37.32,2.7,5.12,4.87,10.57,8.76,15.3-4.24,2.26-8.18,5.06-11.71,8.31-6.69,5.86-8.4,14.81-.06,18.38,12.25,3.7,30.94-7.25,40.51-13.74,7.89-5.8,15.01-12.57,21.2-20.16,.92-.98,1.74-2.04,2.44-3.18-.12,7.95-.1,15.7,.17,23.52,.05,6.79,.61,13.72,.91,20.59-13.02,8.43-28.75,12.22-44.62,16.21-19.78,4.34-40.74,8.59-49.19,24.85-6.69,14.09,6.97,26.65,26.74,22.79,19.9-4.06,37.69-15.02,51.21-26.94,5.5-4.83,10.58-10.12,15.2-15.8,.41-.61,1.08-1.15,1.62-1.96l.59,18.32c.2,10.22,.14,20.37,.34,30.59-.67,.54-1.47,1.28-2.28,2.02-3.73,2.82-5.2,4.1-9.19,6.85-10.23,6.55-21.47,12.34-31.32,19.24-9.36,6.69-17.83,14.55-25.2,23.38-5.28,6.5-10.83,13.4-13.27,20.7-4.32,13.3,5.09,24.42,24.9,19.12,16.64-5.3,31.3-15.51,42.04-29.28,2.59-3.87,6.24-7.92,7.8-12.08l4.69-.13-.27,.41c-3.2,10.71-8.08,21.19-13.1,31.88-6.81,13.81-14.55,28.08-22.04,42.91-7.22,2.08-13.4,3.97-22.02,4.92-22.99,2.71-48.53-4.49-72.88-3.86-16.8,.34-53.74,8.32-62.6,21.06-18.27,26.31,55.98,15.79,73.63,13.26,20.13-3.03,39.69-8.41,58.63-14.68,6.31-2.04,12.48-4.5,18.45-7.38-9.86,19.73-19.21,39.59-26.59,59.29-1.41,3.47-2.56,7.02-3.58,10.36l-.39,.13c-2.25,1.06-4.89,2.25-7.39,3.24-3.7,1.86-12.5,4.46-14.34,4.91-35.29,9.16-71.97,.27-108.26,12.3-15.51,4.82-31.68,14.3-35.08,27.13-1.96,24.86,49.06,16.5,71.59,11.72,20.85-5.01,40-13.89,57.63-24.16,8.93-5.04,17.43-10.82,25.4-17.28,2.54-1.96,4.91-4.12,7.1-6.47-7.97,25.54-12.91,51.92-14.71,78.61-.92,.47-1.73,1.21-2.65,1.67-5.12,2.87-10.42,5.42-15.86,7.63-13.97,5.74-26.03,8.63-41.47,11.05-18.97,3.12-39.45,4.85-55.9,14.73-5.33,3.82-11.2,8.46-12.02,13.79-.29,5,3.46,9.93,10.06,11.07,9.82,2.29,21.08,.14,31.68-1.95,9.66-1.91,19.18-4.48,28.48-7.7,11.43-3.76,22.44-8.68,32.86-14.69,8.42-4.71,16.54-9.94,24.31-15.65,.23,5.15,.46,10.29,.94,15.51l-.14,.2c-4.53,15.9-12.33,32.09-10.1,47.97,1.09,6.6,2.84,13.14,8.41,18.1,7.44,7.66,25.01,3.42,33.68-3.57,9.33-7.04,10.3-17.18,6.39-25.06-5.3-9.48-15.63-16.02-22.92-24.37-3.56-3.8-6.74-7.94-9.5-12.36-.19-.51-.62-.9-1.14-1.05-.46-6.18-.91-12.36-1.09-18.94-.11-4.8,.04-9.61,.45-14.39,3.45,6.3,9.53,11.4,17.9,14,5.66,2.08,12.87,.48,18.56-2.51,12.46-7.13,8.21-16.8-3.26-20.28-9.01-3.03-22.91-3.8-26.94-8.33-1.22-1.12-2.36-2.33-3.4-3.62-.17-.63-.64-1.12-1.26-1.32,1.49-12.4,3.79-24.68,6.88-36.78,3.11,8.62,7.53,17.13,16.72,22.62,8.3,5,22.22,5.3,29.77-3.22,7.14-7.91,8.08-17.08,7.7-25.66-.12-16.73-12.78-32.16-19.78-45.51-3.44-6.3-5.57-13.19-7.44-20.01-.37-.83-.18-2.47-1.2-3.24,12.29-26.54,26.25-52.37,39.97-79.23,5.7-11.7,11.15-23.48,14.91-35.48,.55,7.42,1.23,14.63,2.17,21.91-4.53,3.56-7.66,7.76-8.06,12.01-.41,4.72,5.08,7.97,11.21,7.52,1.03,4.41,1.93,9.01,3.22,13.49-13.91,3.82-25.92,8.9-29.86,18.44-2.75,8.66,9.76,12.43,19.71,10.4,4.25-.8,8.43-1.97,12.47-3.5-.72,5.17-1.89,10.26-3.48,15.23-6.95,22.24-20,43.97-22.52,66.49-1.39,11.22-3.21,23.54,3.12,33.31,2.49,3.61,6.01,7.5,11.85,7.94,20.18-.36,27.72-20.74,31.86-32.4,3.42-10.16,4.17-21.04,2.16-31.57-1.76-10.18-6.01-19.85-9.47-29.77-1.39-4.14-2.56-8.34-3.51-12.61,.23,1.03,.71,2.14,.94,3.17,3.48,9.45,7.74,18.64,12.01,27.83-.27,.41-.15,.68-.42,1.09-.09,.47,.04,.95,.35,1.31,.41,.32,.9,.54,1.41,.64,.12,.27,.25,.55,.11,.76-.59,.38-.83,1.12-.58,1.77,6.54,15.4,12.13,48.67,37.14,52.1,2.78-.14,5.41-1.29,7.39-3.24,5.23-5.06,4.26-11.38,2.47-16.48-5.07-12.56-15.15-23.15-28.42-31.25-3.67-2.33-7.47-4.45-11.38-6.36-1.03-.29-1.79-.99-2.96-1.08,.99-2.38,1.71-4.84,2.7-7.22,6.87,3.58,13.4,7.77,19.51,12.52,8.13,6.17,20.56,16.45,34.7,13.66,4.22-1.17,6.81-5.43,5.9-9.71-1.55-8.66-10.61-14.37-19.85-18.42-8.07-3.49-16.57-5.89-25.28-7.13-3.69-.59-7.43-.83-11.17-.73l-.26-.07c1.17-4.02,2.33-8.05,3.11-11.95,3.06-14.62,3.4-29.29,3.85-43.68,.05-1.44,.21-2.6,.26-4.04,2.46,.45,4.78,1.11,7.1,1.76,7.57,2.16,14.97,4.9,22.12,8.18,12.06,5.34,31.27,15.11,49.88,11.16,6.02-1.2,9.04-6.16,8.25-10.01-1.49-6.47-9.97-9.83-16.9-12.75-12.08-4.86-26.05-7.35-40.2-8.67-8.18-.61-16.1-1.15-24.43-1.08-1.7,.25-3.64-.06-5.22,.46,.3-9.59,.74-19.39,1.18-29.19,13.77,4.61,24.93,9.94,38.15,15.84,12.2,5.13,25.04,10.69,40.27,10.39,11.87-.77,17.72-9.04,14.05-16.37-5.72-12.5-22-20.24-37.99-24.75-10.01-2.49-20.28-3.76-30.59-3.79-6.22-.07-12.44,.19-18.63,.79-1.44,.32-3.01,.36-4.45,.68,.27-4.52,.42-9.32,.7-13.84l.82-13.56c.14-.2,.27-.41,.02-.48,.14-.2-.12-.28-.12-.28,.36-3.29,.61-6.85,.97-10.13l.14-.2c19.42,7.17,40.18,13.27,63.44,14.26,10.91,.66,22.49,.78,33.64-2.13,12.34-3.3,28.21-11.4,20.45-21.34-8.3-9.12-22.96-10.59-37.83-9.46,8.15-2.54,15.69-6.47,21.32-11.66,7.01-6.33,7.86-17.03,1.94-24.38-12.08-13.09-37.47-12.74-57.83-14.86-10.77-.86-21.77-2.75-27.07-8.12-1.59-1.75-2.97-3.68-4.11-5.76-.37-.83-.33-1.79-1.37-2.08-.65-.23-1.36-.17-1.96,.18,.01-.83-.05-1.66-.18-2.47,1.97-4.77,2.78-9.62-.35-13.65-.42-.34-.76-.77-1-1.25-.2-.58-.31-1.18-.33-1.79-.59-3.73-1.39-7.43-2.38-11.08,8.29,9.6,16.3,19.6,29.77,25.58,22.18,10.37,55.25,10.02,75.35,20.29,10.62,5.66,16.25,12.81,24.49,19.73-1.06,.67-1.49,1.76-.86,2.66,1.49,2.35,2.85,4.43,4.08,6.72,4.95,8.17,8.65,14.54,13.07,23.04,2.58,4.84,5.02,9.89,7.47,14.93l-.14,.2c-1.92,2.86-4.05,5.58-6.38,8.13-4.07,5.15-15.34,16-21.59,20.29-12.27,9.61-31.91,17.38-34.03,31.06-1.24,10.54,13.57,15.44,26.4,12.77,15.57-2.63,30.02-10.9,38.54-21.32,6.36-7.65,8.19-16.32,9.75-24.59,.31-1.44,.65-2.88,1.04-4.3,3.6,5.61,7.33,11.02,9.91,15.86,8.01,14.12,13.27,29.15,19.31,43.92-1.06,.67-1.49,1.76-2.29,2.5-2.02,2.09-4.03,4.19-6.17,6-6.44,5.5-13.34,10.44-20.64,14.75-8.75,5.28-18.53,9.78-26.4,16.02-11.34,8.66-19.63,20.12-19.6,31.5,.56,11.05,16.12,13.02,28.86,9.11,13.26-3.76,24.69-11.19,33.67-19.54,13.14-12.27,15.61-24.64,11.48-38.14-.8-3.37-.49-9.33,1.56-12.39,.57-1.24,1.26-2.42,2.06-3.53,.83,2.41,2.06,4.7,3.16,7.18,6.95,14.79,17.12,26.61,19.99,42.91,1.17,8.32-.18,22.21,2.11,32.06,.9,4.61,1.79,9.22,3.08,13.69-9.8,13.69-27.23,25.96-38.63,40.65-4.08,5.62-7.4,11.95-6.55,18,1.82,12.37,14.61,15.25,29.54,8.09,16.23-7.28,21.24-21.6,24.23-33.82,.8-4.08,1.02-8.26,.65-12.4,1.65,2.9,3.12,5.9,4.4,8.98,2.53,6.28,2.9,11.22,2.16,18.27-1.39,7.29-2.15,14.69-2.26,22.11-1.27,4.49-2.28,9.05-3.03,13.66-.97,6.02-1.94,12.04-.17,17.62,2.23,7.65,8.71,16.73,21.38,15.23,7.18-.64,14.1-5.46,16.34-10.64,4.2-13.58-8.73-28.6-21.37-36.28-2.69-1.49-5.37-2.97-8.06-4.45l-.26-.07c.23-3.08,.45-6.16,.94-9.17,1.09-5.11,1.6-10.32,1.53-15.54,5.81,5.51,9.59,13.6,16.18,19.32,9.99,9.35,28.09,13,45.13,9.1,20.6-5.56,25.28-21.67,10.72-30.61-6.63-4.29-15.42-6.28-23.95-8.21-9.57-1.73-19.54-3.33-29.95-3.37-5.21-.02-10.42,.45-15.9,.84-1.63,.13-3.25,.4-4.84,.81-2.03-5.66-5.51-10.99-8.33-16.39-4.06-8.17-6.78-16.94-8.03-25.98-2.19-9.09-.72-22.71-2.2-33.29-.3-2.04-.8-4.05-1.5-5.99,.54,.19,1.11,.27,1.68,.23,9.83,5.92,17.53,13.66,26.16,20.45,15.48,12.59,35.89,21.5,61.79,13.07,11.7-3.72,23.79-11.68,24.23-21.48,.23-11.31-10.81-20.47-24.37-23.57-19.5-4.77-42.36-1.78-63.33,2.95-8.39,1.99-14.73,5.04-21.5,5.06l-.52-.14c-1.31-.81-2.68-1.52-4.1-2.12-.65-.15-1.33,.02-1.84,.45-4.46-11.18-11.94-21.52-16.7-31.81-6.94-15.27-12.3-31.06-19.23-46.32,1.67,.71,4.35,2.2,6.02,2.91,7.88,4.03,15.52,8.53,22.87,13.47,19.26,12.45,43.65,27.31,73.61,17.86,37.78-13.79,43.97-49.07,3.71-55.82-21.88-3.51-45.48,1.94-67.55,8.78-11.55,3.04-22.88,7.58-32.77,7.7-1.9-.23-3.76-.68-5.55-1.33-1.03-.29-1.53-.92-2.58-.73l-1.18,.39c-.87-1.45-1.59-3.11-2.46-4.56-5.4-10.24-12.64-20.02-18.83-29.99-1.54-2.45-2.89-5.02-4.05-7.68,.14-.2-.12-.28-.25-.55-.73-1.66-1.59-3.11-2.32-4.77,17.67,1.11,33.96,8.37,52.36,10.65,17.01,1.17,38.83-1.63,51.04-13.43,17.48-17.82-17.32-28.6-36.33-28.15-15.75,.16-31.64,4.63-45.9,11.25-5.37-2.97-11.02-5.52-16.92-8.16,2.6,.25,5.33,.29,7.92,.54,6.89,.25,24.66,2.11,27.48-4.83,1.67-7.52-14.81-9.02-22.53-7.57-7.6,1.1-14.95,3.53-21.7,7.19l-.14,.2c-4.95-2.48-9.65-5.43-14.04-8.8-3.45-2.68-6.75-5.55-9.88-8.59,.65-.06,1.57-.04,2.21-.1,3.38-.01,6.63,.18,9.88,.37,7.41,.39,14.53,1.19,22.12-.05,14.51-1.96,18.1-12.8,4.26-15.5-10.61-2.02-21.7,3.08-30.57,8.08-1.85,.93-6.48,3.25-9.6,3.34l-.26-.07c-.65,.06-1.17-.09-1.82-.03-7.47-6.7-15.86-12.94-27.74-15.81-23.73-6.69-52.46-7.78-70.3-19.59-12.73-8.91-20.9-22.35-32.91-33.24-13.39-12.97-30.35-23.81-44.27-36.44-2.41-1.89-4.83-3.78-7.12-5.4,9.74,.57,19.5,.66,29.27,.27,19.81-1.19,39.77-2.58,59.3-2.88,.87,.97,1.58,2.07,2.11,3.26,2.41,4.25,4.19,8.83,5.3,13.59,2.75,11.91-.3,30.17,8.03,42.44,10.15,16.41,36.66,9.37,44.23-7.85,5.58-16.09-8.42-29.96-20.85-40.24-5.22-4.09-10.76-7.76-16.57-10.97l2.73,.04c14.43,.44,28.96,1.64,43.52,2.35,.76,.7,2.44,.93,3.6,1.5,2.7,.74,5.32,1.73,7.85,2.94,8.35,3.56,20.08,11.23,25.87,17.22,13.39,12.97,15.16,30.9,32.9,41.95,10.32,7.02,32.64,8.96,37.01-5.78,1.32-4.71-.48-9.34-2.05-13.4-2.78-6.84-7.53-13.01-13.34-18.53-8.53-7.91-18.37-14.29-29.08-18.85-6.73-2.97-13.65-5.48-20.71-7.53,22.84-2.03,45.49-6.53,67.69-8.98,.25,.58,.77,1,1.4,1.12,1.3,.81,2.53,1.73,3.69,2.73,3.29,2.86,8.82,9.26,10.37,13.81,5.46,16.55,10.12,33.83,24.42,46.82,16.3,15.49,47.48,37.59,79.24,25.01,21.36-8.98,16.61-27.5,6.02-38.23-17.47-19.69-47.74-29.44-75.25-40.1-11.18-4.36-20.05-8.07-29.92-12.55,6.16-.22,12.32-.1,18.47,.37,17.13,1.44,31.85,5.11,48.91,8.95,15.23,3.81,31.02,6.81,46.25,10.62,3.1,.87,6.31,2.02,9.41,2.9,0,.82,.66,1.49,1.48,1.5,.1,0,.2,0,.29-.03,16.77,.62,29.94,3.85,46.4,5.83,25.02,2.94,52.05,4.27,78.14-2.16,11.67-2.76,20.35-9.75,16.98-18.44-3.31-6.5-12.19-9.73-20.43-12.54-8-2.26-16.39-4.38-25.22-4.93-14.41-.92-29.3,.69-44.08,3.06-16.89,2.91-33.48,7.3-49.6,13.11l-15.8,5.71c-.4,.14-.77,.36-1.06,.67-9.94-2.56-20.55-4.58-30.62-6.94,1.32-.91,2.69-1.73,4.11-2.47,6.64-3.99,13.68-7.28,21-9.81,26.19-9.31,55.46-13.16,80.61-26.88,4.64-2.81,9.04-6.16,10.6-10.32,1.63-5.04-.77-10.5-5.59-12.71-10.12-5.03-24.49-3.28-36.81-.46-28.45,6.74-56.19,19.73-74.09,38.64-6.05,6.28-11.47,12.98-14.69,20.06l-.14,.2c-14.6-3.39-29.33-6.58-44.78-7.79-13.37-1.11-27.19-.17-40.65,1.6-2.15,.2-4.28,.48-6.4,.86,10.76-6.89,22.48-11.56,35.79-16.77,13.7-5.33,27.02-11.01,40.24-17.45,15.48-7.98,33.17-16.05,42.29-28.73,5.32-7.94,.36-15.63-10.4-16.97-10.23-1.68-21.64,1.16-32.12,3.52-17.26,4.46-33.73,11.57-48.81,21.08-15.26,9.49-29.01,20.37-40.07,32.74-7.56,8.52-15.13,17.51-19.72,27.11-.14,.2,.12,.27,.12,.27-16.86,2.26-33.58,4.32-49.59,4.4-10.02-.16-19.89-.53-29.63-1.1,12.83-11.43,26.8-21.52,41.68-30.11,20.32-12.9,48.07-26.37,49.89-46.91,1.68-12.11-11.35-19.66-27.3-17.38-15.29,2.22-28.43,10.37-38.99,19.25-16.69,13.44-24.52,30.59-29.6,47.31-2.31,7.09-5.07,16.24-7.96,21.47-.74,1.56-1.71,3-2.87,4.27l-.82,1.22c-6.49-.38-13.38-.63-20.01-.81-2.47,.03-4.81-.15-7.03-.05l-.52-.14c-.52-.15-.91-.02-1.7,.25l-10.15,.04c-.34-.42-.86-.66-1.41-.64-.7,.07-1.37,.3-1.97,.65-16.15,.29-32.44,1.26-48.88,2.43-14.03,1.03-28.12,1.1-42.17,.21-.65,.06-1.43-.16-2.34-.17-.5-.35-.93-.8-1.26-1.32-10.15-12.3-23.76-22.19-37.64-32.15,2.08-12.24,16.22-23.26,23.12-35.83,4.7-8.84,5.04-19.39-2.43-26.09-8.09-7.6-22.97-10.11-36.63-6.22-19.03,5.04-24.66,22.57-17.72,33.73,4.67,8.58,11.08,15.95,17.6,23.6-9.7-6.12-19.51-12.52-28.01-19.52-9.41-7.01-16.52-16.52-25.5-25.1-1.65-1.19-2.64-2.92-4.57-3.71-2.2-.38-4.23,2.19-2.58,3.39,5.59,4.48,11.85,12.05,17.65,18.05,5.93,5.7,12.14,11.08,18.62,16.14,10.29,7.98,22.31,14.76,33.52,22.28l1.5,1.88c.13,.23,.37,.39,.64,.42-1.23,1.83-.85,2.18-1.67,3.4-4.01,7.34-9.67,13.48-16.36,19.34-.37-.83-1.26-1.32-1.37-2.08-1.12-1.53-1.61-2.63-2.23-3.53-3.45-6.3-5.45-12.91-7.71-19.6-4.04-12.27-9.3-26.82-27.13-30.88-30.35-7.35-49.36,17.78-26.11,31.6,12.63,8.16,32.46,10.61,45.02,16.57,5.11,2.9,7.91,5.13,10.62,9.77,.8,1.12,1.42,2.35,1.83,3.66-6.27,4.77-12.65,9.26-19.06,14.23-3.15,2.42-6.14,5.05-8.96,7.85h0Zm326.01,126.8c2.56,1.21,4.99,2.62,7.3,3.75-1.85,.93-3.84,2.06-5.43,3.07-4.23,2.19-6.89,3.87-11.33,4.54l-.26-.07-.39,.13c-1.31,.12-2.59-.25-3.78,.14-.12-.28-.38-.35-.25-.55-4.37-8.78-9.18-17.32-14.42-25.6-.12-.27-.38-.35-.25-.55,8.14,6.16,18.67,10.59,28.8,15.14h0Zm-235.71-110.04c-1.5,2.24-8.88,9.11-11,10.45-1.91,1.42-3.91,2.71-5.98,3.88-1.65-6.65-4.9-12.8-9.46-17.91,3.59-.01,7.16-.56,10.59-1.61,6.61-1.64,12.88-4.46,18.48-8.34l.26,.07c.17,2.95,.33,5.9,.24,8.78l-.14,.2c-.79,1.63-1.8,3.13-3,4.48h0Zm10.15,111.52c8.56,6.12,17.84,11.18,27.63,15.05,6.45,2.59,13.02,4.85,19.7,6.76,1.22,.38,2.48,.65,3.75,.82l-.55,4.93c-9.6,3.34-19.16,5.24-30.41,6.91-6.15,.93-13.06,1.64-20,2.83-.26-12.42-.13-24.96-.13-37.3h0Zm42.08,167.72c-1.43,8.2-3.55,16.26-6.35,24.1-.7,1.5-1,2.86-1.7,4.36-3.04-6.91-6.33-13.88-8.97-20.92s-4.89-14.2-7.13-21.37c.09-.47-.04-.95-.35-1.31-.25-.55-.23-1.03-.47-1.58,7.14-3.87,13.8-8.57,19.83-14.01,2.94-2.55,5.75-4.91,8.44-7.54-.8,13.08-1.47,25.96-3.29,38.28h0Zm3.62-48.83c-8.71,3.84-22.18,6.09-35.17,9.44-1.03-4.4-2.2-8.61-2.98-12.94,4.67-1.36,9.08-3.47,13.08-6.23,9.79-6.6,18.52-14.67,25.87-23.92-.34,11.04-.71,22.55-.8,33.65Zm1.97-54.14c-.1,1.12-.14,2.24-.11,3.36-1.46,.8-2.67,2.15-4.13,2.95-5.31,3.34-11.14,6.54-16.83,9.53-6.22,3.33-15.2,7.57-22.52,12.53-.94-7.28-1.49-14.7-2.04-22.11,7.33-1.32,14.19-4.23,20.67-7.48,5.97-2.9,11.62-6.41,16.86-10.49,3.34-2.69,6.42-5.45,9.5-8.21-.6,6.85-1.07,13.49-1.4,19.93h0Zm20.03-98.9c1.72,7.5,3.81,15.35,7.5,22.2-4.39-1.24-8.77-2.47-13.55-3.58,1.6-9.31,2.68-18.7,3.23-28.13,.95,3.17,1.89,6.34,2.83,9.51h0Zm-7-16.98c-.32,11.68-1.47,23.33-3.44,34.85-13.76-2.68-27.75-4.03-41.78-4.04-4.69,.13-9.77,.39-14.34,.8-.57,.03-1.14,.11-1.7,.25-.26-8.3-.78-16.68-1.29-25.05,.47-.24,.78-.7,.82-1.22,.25-.67-.09-1.42-.76-1.67-.07-.03-.15-.05-.23-.06-.24-4.67-.62-9.13-.61-13.72,8.68,5.35,17.09,11.11,27.51,14.78,13.13,4.67,27.56,5.11,35.81-4.91h0Zm-55.5-84.62c15.95,14.18,33.95,25.3,47.8,39.86,.88,.97,2.02,2.02,2.9,3-2,1.61,.38,4.46,.58,6.46,.82,2.89,1.38,5.71,1.94,8.53-6.02-2.91-13.91-4.41-21.32-4.8-10.14-.44-19.51,3.94-28.84,6.87-1.85,.5-3.73,.86-5.63,1.07-.26-.07-.91-.01-1.17-.09-.39,.13-1.68-.23-2.08-.1-.8-.11-1.58-.33-2.32-.65-.12-12.62,.54-25.5,.56-38.32,4.13,5.26,8.87,10.01,14.13,14.15,3.69,2.73,8.15,5.69,13.99,6.12,4.16,.21,8.42-2.95,8.39-6.1,.23-3.08-2.17-5.45-4.31-7.75-4.43-3.91-10.06-6.95-15.71-9.51-4.75-2.15-9.32-4.65-13.69-7.49-1.09-.67-2.11-1.45-3.05-2.31-.35-5.42-.96-10.92-1.83-16.48,3.17,2.58,6.49,4.97,9.65,7.56h0Zm-51.02-36.9c.9-1.41,1.68-2.89,2.35-4.42l.14-.2c8.91,6.38,18.56,13.95,25.14,19.68,1.35,1.1,2.57,2.33,3.66,3.69-.5-.13-1.04,0-1.44,.32-1.85,.93-1.91,2.85,.15,3.43,1.15,.57,2.17,1.34,3.32,1.91-.55,.81-.58,1.77,.32,2.27q-.14,.2-.53,.33c-1.79,1.6-3.75,3-5.86,4.16-4.23,2.19-12.91,5.07-18.74,8.27-4.1,1.99-7.96,5.01-9.76,8.14-2.32-1.86-4.79-3.53-7.39-4.99-7.92-4.52-16.6-7.54-25.61-8.92-.52-.14-1.17-.09-1.68-.23,12.91-9.18,28.63-20.72,35.93-33.43h0Z"/>
  <path class="cls-4" d="M525.01,785.45c-98.48,23.26-246.4,107.79-280.47-48.75-23.35-107.26,253.89-98.1,311.47-157.53,126.66-130.73,321.62-12.46,238.26,29.57-167.04,84.17-33.02,120.91-269.25,176.71Z"/>
  <path class="cls-6" d="M1277.12,960.25c-37.13,55.64-411.11,86.15-459.72,17.78-75.13-105.57,141.24-407.29,141.24-407.29-2.79-14.42-3.31-49.28,8.05-62.88,17.21-20.68-8.39-40.32,7.53-44.78,20.47-5.71,36.87,13.62,72.52,23.29,21.12,5.67,18.18,61.12-1.8,92.15-7.11,11.01-20.69,12.02-20.69,12.02,0,0-83.47,205.38-65.74,244.72,21.99,48.65,126.67-7.36,287.5-30.07,76.92-10.87,51.55,124.39,31.09,155.05h0Z"/>
  <g class="cls-13">
    <g>
      <path class="cls-3" d="M1070.22,809.94c14.08,10.79,17.4,36.36,19.79,52.35,2.53,16.9,1.76,34.25-3.89,50.55-8.49,24.53-26.11,44.58-33.35,69.55-5.38,18.58-4.09,39.52,2.21,57.75,2.94,8.53,7.38,16.46,13.12,23.41,34.02,41.01,104.08,25.7,147.04,11.28,48.35-16.23,96.11-47.14,121.05-93,38.7-71.09,3.59-158.78-63.08-198.2-26.45-15.45-56.23-24.3-86.83-25.78-36.34-1.91-73.64,4.99-105.04,23.79l-11.03,28.29Z"/>
      <path class="cls-9" d="M928.77,584.01c-24.16,45.59-55.32,145.26-71.57,193.91-20.75,62.46-29.01,109.81,2.87,165.74,37.72,66.36,163.63,40.42,225.23,23.38,13.59-3.77,27.02-8.13,40.23-13.08,18.64-6.82,36.74-15.02,54.15-24.55,35.92-20.08,65.92-47.67,92.77-78.61,7.72-8.87,14.64-18.57,22.81-27.01,2.42-2.52,6.11-6.24,10.06-5.78,6.65,.76,8.17,13.02,9.07,17.79,3.41,19.75,3.14,40.4,1.8,60.32-5.3,78.76-30.89,157.44-101.3,200.46-43.47,26.57-97.62,34.84-147.19,42.11-49.48,7.26-101.57,13.82-151.68,9.25-89.45-8.15-183.83-47.02-232.78-126.35-56.58-91.89-30.53-214.7,15.9-305.09,11.58-22.53,24.97-44.2,40.86-63.95,30.98-38.48,72.47-73.51,121.42-85.26l67.35,16.72Z"/>
    </g>
  </g>
  <path class="cls-8" d="M475.1,474.21c-4.41-6.94-12.78-11.92-22.39-13.32-9.46-1.52-19.15,.66-27.05,6.09L17.94,760.45c-10.57,7.61-13.48,19.96-7.06,30.06l513.1,807.66c4.47,7.04,12.78,11.91,22.45,13.42,9.46,1.52,19.15-.66,27.05-6.09l407.71-293.48c10.57-7.61,13.48-19.96,7.06-30.06L475.1,474.21Zm-6.13,2.48l513.16,807.77c4.99,7.86,2.74,17.51-5.58,23.49l-407.71,293.48c-6.19,4.23-13.76,5.96-21.17,4.83-7.59-1.08-14.07-5.04-17.57-10.55L17.01,788.04c-5.06-7.96-2.81-17.61,5.51-23.59L430.22,470.97c6.19-4.23,13.76-5.96,21.17-4.83,7.66,1.18,14.08,5.04,17.58,10.54h0Z"/>
  <path class="cls-5" d="M554,466.84c-1.51-2.41-3.96-4.07-6.76-4.58-2.74-.52-5.58,.08-7.88,1.67L104.83,776.71c-4.42,3.21-5.56,9.31-2.61,13.9l508.07,799.77c1.49,2.38,3.92,4.01,6.69,4.48,2.75,.58,5.61-.03,7.89-1.67l434.52-312.78c4.43-3.15,5.6-9.22,2.67-13.8L554,466.84Z"/>
  <path class="cls-2" d="M883.52,1095.75c-7.23-11.38-20.68-19.46-36.44-21.77-15.77-2.32-31.95,1.32-43.86,9.89l-227.03,163.42c-28.93,20.82-36.73,54.43-19.14,82.11,7.23,11.38,20.67,19.45,36.44,21.76s31.95-1.32,43.81-9.85l227.08-163.46c28.87-20.78,36.73-54.42,19.15-82.1h0Zm-4.9,1.95h0c16.47,25.93,9.1,57.43-17.94,76.9l-227.08,163.46c-10.58,7.62-25.06,10.88-39.14,8.81-14.02-2.11-26.08-9.27-32.53-19.43-16.47-25.92-9.1-57.42,17.94-76.88l227.08-163.46c10.58-7.62,25.06-10.88,39.08-8.78,14.07,2.07,26.13,9.23,32.59,19.39h0Z"/>
  <path class="cls-8" d="M1066.15,1023.21c-18.51-29.12-57.13-37.73-86.26-19.21-1.02,.65-2.01,1.32-2.99,2.03l-290.52,209.12c-30.46,21.92-38.53,63.79-18.39,95.46,18.49,29.12,57.09,37.74,86.21,19.25,1.03-.66,2.05-1.34,3.04-2.06l290.52-209.13c30.43-21.93,38.5-63.78,18.4-95.44h0Z"/>
  <path class="cls-2" d="M730.37,862.46c-7.47-11.76-23.06-15.23-34.82-7.76-.42,.27-.83,.55-1.24,.84l-284.03,204.45c-12.23,8.79-15.48,25.6-7.4,38.31,7.47,11.76,23.06,15.23,34.82,7.76,.4-.25,.79-.52,1.18-.8l284.09-204.49c12.23-8.79,15.48-25.6,7.4-38.31h0Zm60.44,95.1c-7.47-11.76-23.06-15.23-34.82-7.76-.42,.27-.83,.55-1.24,.84l-284.03,204.46c-12.23,8.79-15.48,25.6-7.4,38.31,7.47,11.76,23.06,15.23,34.82,7.76,.4-.25,.79-.52,1.18-.79l284.09-204.49c12.23-8.79,15.48-25.6,7.4-38.31h0Z"/>
  <path d="M762.25,1250.92l7.93-6.55c1.51,1.52,3.61,2.29,5.75,2.1,2.58-.4,5.01-1.48,7.04-3.12,2.23-1.43,4.09-3.36,5.44-5.64,.85-1.78,.95-3.24,.27-4.32-.44-.7-1.2-1.13-2.02-1.16-1.34,.04-2.67,.36-3.87,.95-1.11,.47-3.66,1.69-7.63,3.6-5.05,2.52-8.86,3.87-11.46,4.02-3.61,.26-6.12-.77-7.6-3.1-.97-1.66-1.28-3.63-.87-5.51,.56-2.5,1.72-4.82,3.37-6.77,2.23-2.66,4.81-5,7.66-6.97,5.31-3.82,9.82-5.9,13.52-6.22,3.7-.32,6.44,.88,8.27,3.45l-8.3,6.37c-1.16-1.18-2.8-1.75-4.43-1.54-2.21,.47-4.28,1.47-6.03,2.89-2.07,1.35-3.82,3.14-5.12,5.24-.63,.8-.71,1.89-.22,2.78,.57,.74,1.51,1.08,2.41,.88,1.49-.18,4.51-1.35,9.05-3.67,3.39-1.79,6.93-3.3,10.58-4.5,2.12-.67,4.37-.8,6.55-.37,1.94,.5,3.61,1.74,4.63,3.46,1.11,1.86,1.46,4.08,.99,6.19-.55,2.73-1.8,5.27-3.64,7.36-2.46,2.92-5.3,5.49-8.45,7.64-5.36,3.86-9.97,5.95-13.92,6.29-3.72,.43-7.42-.99-9.9-3.79h0Zm32.12-44.4l-3.3-5.2,8.08-5.81,3.3,5.2-8.08,5.81Zm15.34,24.15l-13.52-21.28,8.08-5.81,13.52,21.28-8.08,5.81Zm16.5-9.87l9.73-5.83c.48,.61,1.26,.91,2.03,.77,1.48-.35,2.86-1.04,4.03-2.01,1.66-1.1,3.13-2.47,4.33-4.06,.5-.75,.74-1.65,.68-2.55-.19-1.04-.62-2.03-1.26-2.88l-1.97-3.09c-.99,4.08-3.47,7.65-6.95,10.01-4.13,2.97-8.15,4.08-12.05,3.38-3.09-.53-5.79-2.39-7.39-5.09-2.21-3.16-2.75-7.2-1.44-10.83,1.39-3.85,3.97-7.16,7.38-9.43,3.26-2.57,7.41-3.76,11.54-3.29l-1.89-2.98,7.56-5.44,12.14,19.11c1.32,1.88,2.23,4,2.69,6.25,.19,1.61-.03,3.24-.63,4.75-.82,1.75-1.92,3.35-3.26,4.74-1.94,2.06-4.09,3.9-6.42,5.51-5.18,3.73-9.26,5.77-12.21,6.06-2.93,.32-5.02-.45-6.24-2.36-.15-.23-.28-.47-.4-.73Zm-.71-17.64c1.43,2.25,3.09,3.45,5.04,3.61,2.03,.09,4.04-.54,5.65-1.78,1.85-1.26,3.25-3.09,3.99-5.21,.66-2.12,.28-4.43-1.02-6.23-1.4-2.22-3.11-3.39-5.06-3.54-2.16-.07-4.28,.63-5.98,1.97-1.78,1.21-3.11,2.97-3.79,5.01-.56,2.13-.13,4.4,1.17,6.17h0Zm64.33-30.16l-8.08,5.81-6.89-10.85c-1.46-2.29-2.58-3.66-3.37-4.09-.83-.41-1.76-.53-2.66-.37-1.15,.24-2.24,.73-3.17,1.45-1.33,.93-2.44,2.13-3.27,3.52-.72,1.12-1.04,2.46-.92,3.78,.49,1.92,1.33,3.73,2.49,5.33l6.12,9.63-8.08,5.82-13.52-21.29,7.51-5.4,1.99,3.13c1.21-4.42,3.97-8.26,7.77-10.83,1.64-1.2,3.43-2.17,5.33-2.89,1.41-.53,2.92-.76,4.43-.68,1.12,.13,2.18,.55,3.09,1.23,1.13,.99,2.09,2.16,2.84,3.47l8.4,13.23Zm5.9-47.01l8.52-6.13,10.1,15.9c.98,1.67,2.12,3.23,3.41,4.67,1.29,.95,2.91,1.31,4.48,1.01,4.54-1.21,8.48-4.02,11.09-7.93,.75-1.24,.98-2.73,.64-4.13-.73-1.84-1.68-3.59-2.81-5.22l-10.32-16.24,8.52-6.13,9.78,15.4c2.23,3.51,3.62,6.2,4.06,7.99,.48,1.8,.42,3.7-.17,5.47-.79,2.19-1.97,4.23-3.48,6.01-2.22,2.54-4.74,4.79-7.52,6.69-4.04,2.91-7.26,4.78-9.81,5.61-2.06,.82-4.28,1.18-6.49,1.06-1.62-.08-3.18-.62-4.5-1.55-2.19-1.99-4.07-4.3-5.57-6.85l-9.93-15.63Zm47.44-22.4l7.56-5.44,1.99,3.13c.36-1.96,1.15-3.82,2.3-5.44,1.31-1.95,2.97-3.64,4.9-4.98,3.1-2.42,6.95-3.7,10.89-3.61,3.72,.11,6.67,1.94,8.85,5.38,2.2,3.22,2.77,7.28,1.54,10.98-1.31,3.86-3.85,7.19-7.22,9.48-1.52,1.13-3.21,2-5,2.6-1.91,.55-3.89,.8-5.88,.72l6.82,10.74-8.08,5.81-18.67-29.38Zm14.52,4.53c1.53,2.41,3.35,3.66,5.44,3.83,2.18,.14,4.33-.52,6.05-1.85,1.76-1.19,3.06-2.95,3.68-4.99,.57-1.92,.1-4.08-1.4-6.45-1.43-2.25-3.09-3.45-5.07-3.65-2.09-.1-4.15,.55-5.8,1.84-1.84,1.23-3.21,3.04-3.9,5.14-.63,2.09-.26,4.35,1.01,6.13h0Z"/>
  <ellipse class="cls-1" cx="452.78" cy="810.02" rx="134.83" ry="111.79" transform="translate(-431.78 529.49) rotate(-43.2)"/>
  <path class="cls-7" d="M441.5,866.04c-15.75-.24-29.95-7.15-38.3-20.29-15.13-23.82-5.25-59.14,22.11-78.84,27.36-19.7,61.96-16.37,77.09,7.45,9.79,15.41,8.99,35.66-.05,53.33,37.09-12.48,70.29-6.3,78.66,16.75,9.79,27.06-18.41,67.2-62.89,89.57-44.48,22.36-88.69,18.59-98.48-8.47-6.11-17.2,2.95-39.65,21.86-59.49h0Z"/>
  <path class="cls-3" d="M1243.48,1413.56c9.52-179.61-53.61-335.93-47.87-438.61,3.68-65.14-24.52-161.81,82.53-177.48,91.78-13.43,205.21,10.83,227.57,35.53,45.26,49.82,28.83,319.98-14.19,356.83-86.21,55.04-180.69,168.74-248.04,223.73h0Z"/>
  <g class="cls-12">
    <path class="cls-9" d="M1429.1,931.7c-7.45,9.95-11.68,22.26-15.18,34.05-9.25,30.38-9.61,60.7-5.39,91.96,4.13,30.87,12.31,62.85,6.73,94.08-4.22,23.1-16.61,42.2-28.74,61.81-30.44,49.33-48.41,65.53-89.63,102.11-23.44,20.73-69.15,105.93-62.23,139.08,4.76,23.12,41.31,.67,55.05-6.39,37.27-19.21,70.59-46.21,106.96-67.31,51.91-30.18,110.28-56.25,149.17-103.76,51.64-63.15,57.84-158.63,37.99-235.19-9.43-36.44-26.04-74.58-58.82-95.49l-95.91-14.94Z"/>
  </g>
  <path class="cls-6" d="M1495.11,836.26c61.7,26.05,187.35,380.56,115.12,446.61-72.23,66.05-548.39-50.3-548.39-50.3-13.64,5.45-47.7,12.5-63.28,3.89-23.45-13.01-9.02-42.07-16.39-56.87-9.45-19.03-76.95,23.79-74.23-13.07,1.69-21.8,111.12-34,145.35-20.19,12.24,4.92,15.77,18.08,15.77,18.08,0,0,339.15,31.41,374.46,6.61,43.67-30.72-65.79-141.49-48.75-266.71,10.48-76.97,66.45-82.39,100.33-68.06h0Z"/>
  <g class="cls-10">
    <path class="cls-3" d="M1397.69,1066.07c7.96-15.85,32.45-23.92,47.71-29.26,16.13-5.66,33.31-8.16,50.38-5.67,25.68,3.74,48.69,17.28,74.57,19.71,19.26,1.8,39.58-3.39,56.31-13,7.82-4.48,14.78-10.34,20.53-17.28,33.9-41.11,5.72-107.05-16.5-146.55-25.01-44.45-64.34-85.55-114.05-101.46-77.09-24.68-156.63,26.25-182.84,99.14-10.22,28.88-13.32,59.79-9.04,90.12,4.94,36.05,18.71,71.4,43.07,98.71l29.86,5.53Z"/>
  </g>
  <path class="cls-6" d="M1292.72,795.05s36.19-26.77,27.75-54.95c-2.16-7.4-18.5,13.45-33.23,4.43-20.12-12.41-24.97-83.96-2.25-121.18,14.1-23.07,63.67-36.91,79.84-21.19,16.17,15.72,22.54,82.7,16.97,115.5-8.8,52.32,38.89,83.8,38.89,83.8,0,0-79.21,63.39-99.15,116.01-5.84,15.45-28.83-122.41-28.83-122.41h0Z"/>
  <g class="cls-15">
    <path class="cls-9" d="M1311.03,743.95c2.87-1.55,5.21-4.72,7.36-7.09,4.95-5.31,9.51-10.96,13.65-16.93,1.53-2.37,3.05-4.8,4.76-7.14,.36-.59,1.35-2.32,2.25-2.32s.36,2.96,.27,3.35c-.6,4.15-1.56,8.23-2.87,12.21-4.94,16.29-15.09,28.49-25.95,41.16l.54-23.24Z"/>
  </g>
  <path class="cls-9" d="M1296.05,653.57c-6.74-.4-13.02-4.34-18.23-8.36-20.03-15.43-18.67-42.27-1.26-59.19,10.51-10.16,32.06-16.94,42.12-2.64,3.23-4.58,9.97-6.52,15.09-7.71,4.16-1.1,8.47-1.48,12.75-1.11,29.28,3.94,22.45,40.74,44.72,52.5,7.27-4.68,15.27,10.61,16.7,15.28,4.94,16.21,2.78,43.92-15.9,50.38-1.62,4.36-5.75,7.42-9.43,9.93-10.15,6.98-26.49,11.97-37.81,4.76-1.36-.88-2.6-1.94-3.68-3.14-8.08-8.99,.45-19.24,3.14-28.58,1.44-4.92,2.6-11.08-1.71-14.95-3.5-3.04-7.01-1.31-9.79,1.62-4.22,4.46-6.56,11.5-13.29,12.75-9.7,1.8-19.13-7.53-22.18-14.06-.63-1.38-1.26-7.46-1.26-7.46h0Z"/>
  <g>
    <path class="cls-8" d="M1234.12,582.2c0-6.44-3.65-12.32-9.43-15.16l-360.71-177.4c-8.41-4.1-18.55-.62-22.65,7.79-1.12,2.3-1.71,4.82-1.72,7.38v59.69c.01,6.43,3.67,12.31,9.43,15.16l360.78,177.43c8.36,4.1,18.47,.65,22.57-7.71,1.14-2.33,1.73-4.9,1.72-7.5v-59.69Z"/>
    <path class="cls-2" d="M890.5,478.04l-7.68-8.68,9.99-10.15-17.65-13.36,2.36-7.52,17.66,13.36-.93-18.41,9.13,4.03,.93,18.41,17.08,1.98,3.25,10-17.08-1.98,11.5,19.63-7.12,2.15-11.44-19.62-9.98,10.16Zm63.54,31.21l-7.68-8.69,9.99-10.15-17.65-13.36,2.36-7.52,17.66,13.36-.93-18.41,9.13,4.03,.93,18.41,17.08,1.98,3.25,10-17.08-1.98,11.5,19.63-7.12,2.15-11.44-19.62-9.98,10.16Zm68.08,30.36l-7.68-8.68,9.99-10.15-17.65-13.36,2.36-7.52,17.66,13.36-.93-18.41,9.13,4.03,.93,18.41,17.08,1.98,3.25,10-17.08-1.98,11.5,19.63-7.12,2.15-11.44-19.62-9.98,10.15Zm66.48,35.81l-7.68-8.69,9.99-10.15-17.65-13.36,2.36-7.52,17.65,13.36-.93-18.41,9.13,4.03,.93,18.41,17.08,1.98,3.25,10-17.08-1.98,11.5,19.63-7.12,2.15-11.44-19.62-9.98,10.16Zm70.15,34.5l-7.68-8.68,9.99-10.15-17.65-13.36,2.36-7.52,17.65,13.36-.93-18.41,9.13,4.03,.93,18.41,17.08,1.98,3.25,10-17.08-1.98,11.5,19.63-7.12,2.15-11.44-19.62-9.98,10.15Z"/>
  </g>
  <path class="cls-6" d="M1007.35,581.29c5.61-6.37,39.32-21.71,48.17-22.94,14.11-2.07,27.39,7.17,22.5,20.59-1.94,5.16-44.64,17.02-56.38,17.44-4.81,.15-16.53-12.56-14.29-15.09Z"/>
</svg>