<?xml version="1.0" encoding="UTF-8"?>
<svg id="OTPsecurity" xmlns="http://www.w3.org/2000/svg" xmlns:xlink="http://www.w3.org/1999/xlink" viewBox="0 0 4000 4000">
  <defs>
    <style>
      .cls-1 {
        fill: url(#linear-gradient-4);
      }

      .cls-1, .cls-2, .cls-3, .cls-4, .cls-5, .cls-6, .cls-7, .cls-8, .cls-9, .cls-10, .cls-11, .cls-12, .cls-13, .cls-14, .cls-15 {
        fill-rule: evenodd;
      }

      .cls-16, .cls-13 {
        fill: #f0f0f0;
      }

      .cls-17, .cls-2 {
        fill: #fff;
      }

      .cls-3 {
        fill: #f7f7f7;
      }

      .cls-18 {
        clip-path: url(#clippath-2);
      }

      .cls-4 {
        fill: #adadad;
      }

      .cls-5 {
        fill: url(#linear-gradient-2);
      }

      .cls-6 {
        fill: url(#linear-gradient-6);
      }

      .cls-19 {
        clip-path: url(#clippath-1);
      }

      .cls-7 {
        fill: url(#linear-gradient-5);
      }

      .cls-8 {
        fill: #f6f6f6;
      }

      .cls-9 {
        fill: url(#linear-gradient-10);
      }

      .cls-10 {
        fill: url(#linear-gradient-11);
      }

      .cls-11 {
        fill: #cacaca;
      }

      .cls-20 {
        clip-path: url(#clippath);
      }

      .cls-21 {
        fill: none;
      }

      .cls-22 {
        clip-path: url(#clippath-3);
      }

      .cls-23 {
        fill: url(#linear-gradient-9);
      }

      .cls-12 {
        fill: #d5d5d5;
      }

      .cls-24 {
        fill: url(#linear-gradient-3);
      }

      .cls-25 {
        fill: url(#linear-gradient);
      }

      .cls-14 {
        fill: url(#linear-gradient-7);
      }

      .cls-15 {
        fill: url(#linear-gradient-8);
      }
    </style>
    <linearGradient id="linear-gradient" x1="6065.32" y1="-5234.4" x2="6089.67" y2="-5234.4" gradientTransform="translate(-589679.8 -200300.27) rotate(59.67) scale(77.8)" gradientUnits="userSpaceOnUse">
      <stop offset="0" stop-color="#d9d9d9"/>
      <stop offset=".61" stop-color="#ddd"/>
      <stop offset=".82" stop-color="silver"/>
      <stop offset="1" stop-color="#a1a1a1"/>
    </linearGradient>
    <clipPath id="clippath">
      <path class="cls-21" d="M2169.04,1234.92c-.03-92.92-75.33-168.24-168.25-168.31H759.47c-92.92,.06-168.22,75.39-168.25,168.31v1753.51c.03,92.92,75.33,168.25,168.25,168.32H2000.8c92.92-.07,168.22-75.4,168.25-168.32V1234.92Z"/>
    </clipPath>
    <clipPath id="clippath-1">
      <circle class="cls-21" cx="1048.98" cy="1825.6" r="286.07"/>
    </clipPath>
    <linearGradient id="linear-gradient-2" x1="5987.25" y1="-4793.46" x2="6011.6" y2="-4793.46" gradientTransform="translate(-20614.5 -125375.76) rotate(118.98) scale(16.83)" gradientUnits="userSpaceOnUse">
      <stop offset="0" stop-color="#d4d4d4"/>
      <stop offset="1" stop-color="#717171"/>
    </linearGradient>
    <linearGradient id="linear-gradient-3" x1="5980.34" y1="-4853.06" x2="6004.68" y2="-4853.06" gradientTransform="translate(-29732.11 -141843.22) rotate(116.87) scale(19.05)" gradientUnits="userSpaceOnUse">
      <stop offset="0" stop-color="#d4d4d4"/>
      <stop offset="1" stop-color="#717171"/>
    </linearGradient>
    <linearGradient id="linear-gradient-4" x1="5799.6" y1="-5309.83" x2="5823.94" y2="-5309.83" gradientTransform="translate(-151816.25 -37474.35) rotate(56.57) scale(20.3)" gradientUnits="userSpaceOnUse">
      <stop offset="0" stop-color="#cacaca"/>
      <stop offset=".64" stop-color="#c1c1c1"/>
      <stop offset=".84" stop-color="#a6a6a6"/>
      <stop offset="1" stop-color="#888"/>
    </linearGradient>
    <linearGradient id="linear-gradient-5" x1="6007.2" y1="-5253.54" x2="6031.54" y2="-5253.54" gradientTransform="translate(-323966.67 -107121.48) rotate(59.66) scale(43.12)" gradientUnits="userSpaceOnUse">
      <stop offset="0" stop-color="#cacaca"/>
      <stop offset=".63" stop-color="silver"/>
      <stop offset=".83" stop-color="#a5a5a5"/>
      <stop offset="1" stop-color="#888"/>
    </linearGradient>
    <clipPath id="clippath-2">
      <path class="cls-21" d="M3077.37,2025.04c95.81,221.98-546.16,933.19-760.17,914.94-214.05-18.35-524.08-1024.82-524.08-1024.82l-90.19-118.13,237.93,30.11-16.56,32.3s335.55,584.15,426.75,627.88c45.34,21.77,163.55-335.8,414.46-477.97,273.6-154.9,257.07-111.29,311.87,15.69Z"/>
    </clipPath>
    <linearGradient id="linear-gradient-6" x1="5854.12" y1="-5254.83" x2="5878.46" y2="-5254.83" gradientTransform="translate(-165312.8 -57034.35) rotate(61.27) scale(22.65)" gradientUnits="userSpaceOnUse">
      <stop offset="0" stop-color="#565656"/>
      <stop offset=".54" stop-color="#4d4d4d"/>
      <stop offset="1" stop-color="#2b2b2b"/>
    </linearGradient>
    <linearGradient id="linear-gradient-7" x1="6023.19" y1="-5274.26" x2="6047.53" y2="-5274.26" gradientTransform="translate(-350544.44 -84719.4) rotate(55.01) scale(45.45)" gradientUnits="userSpaceOnUse">
      <stop offset="0" stop-color="#565656"/>
      <stop offset=".51" stop-color="#4b4b4b"/>
      <stop offset="1" stop-color="#2b2b2b"/>
    </linearGradient>
    <linearGradient id="linear-gradient-8" x1="6389.18" y1="-5534.86" x2="6413.52" y2="-5534.86" gradientTransform="translate(45083.21 181967.47) rotate(-62.2) scale(21.89)" gradientUnits="userSpaceOnUse">
      <stop offset="0" stop-color="#000"/>
      <stop offset="1" stop-color="#4d4d4d"/>
    </linearGradient>
    <linearGradient id="linear-gradient-9" x1="6092.44" y1="-5101.97" x2="6116.78" y2="-5101.97" gradientTransform="translate(-87907.74 -288982.28) rotate(112.78) scale(38.46)" gradientUnits="userSpaceOnUse">
      <stop offset="0" stop-color="#d4d4d4"/>
      <stop offset=".6" stop-color="#c8c8c8"/>
      <stop offset=".81" stop-color="#adadad"/>
      <stop offset="1" stop-color="#909090"/>
    </linearGradient>
    <linearGradient id="linear-gradient-10" x1="5974.42" y1="-5173.3" x2="5998.77" y2="-5173.3" gradientTransform="translate(-171038.03 -146133.03) rotate(81.44) scale(29.01)" gradientUnits="userSpaceOnUse">
      <stop offset="0" stop-color="#cacaca"/>
      <stop offset=".47" stop-color="#b8b8b8"/>
      <stop offset="1" stop-color="#888"/>
    </linearGradient>
    <clipPath id="clippath-3">
      <path class="cls-21" d="M3485.05,1937.35c240.85,21.14,592.15,869.33,444.01,1103.55-148.24,234.22-1083.29,258.41-1333.06,301.77-189.77,165.77-267.32-40.44-240.12-40.72,120.84-1.21,117.62-98.13,117.62-98.13,0,0,1.97-10.14-32.18-51.38,37.68-26.51,121.88,50.04,121.88,50.04,0,0,901.82-346.91,983.63-406.39,40.7-29.56-213.34-303.56-223.72-591.76-3.53-98.79,24.19-279.08,161.95-266.99h0Z"/>
    </clipPath>
    <linearGradient id="linear-gradient-11" x1="5997.85" y1="-5097.75" x2="6022.19" y2="-5097.75" gradientTransform="translate(-87320.05 -210265.08) rotate(107.17) scale(29.33)" gradientUnits="userSpaceOnUse">
      <stop offset="0" stop-color="#565656"/>
      <stop offset=".49" stop-color="#4b4b4b"/>
      <stop offset="1" stop-color="#2b2b2b"/>
    </linearGradient>
  </defs>
  <path class="cls-3" d="M1984.7,643.67c906.7,764.64,1858.46,471.6,1965.18,1351.64,113.36,935.43-189.87,372.45-920.2,956.09C1963.84,3803.27,363.35,3506.05,304.08,1986.42,264.63,974.04,1264.35,36.21,1984.7,643.67Z"/>
  <path class="cls-25" d="M61.16,2694.46c7.99-17.71,12.78-35.78,22.2-50.7,10.63-14.54,28.51-25.76,47-19.18,82.78,26.81,166.04,26.2,210.84-42.19-.3,1.04-.43,2.12-.36,3.21,.01,1.01,1.22,1.38,2.22,1.37,1.03,1.99,4.85,3.54,6.86,4.52,10.46,4.68,22.27,5.13,33.67,3.79,14.38-2.38,26.07-11.92,38.6-18.88,8.08-4.84,16.61-8.9,25.47-12.12,.2,4.65-.28,9.31-1.43,13.83-.47-.14-.99-.06-1.4,.22-10.04,13.73-31,17.99-48.49,28.01-14.92,7.19-27.19,18.54-37.64,31.48-9.89,11.55-17.97,24.54-23.95,38.52-14.04,30.39-17.84,64.06-19.44,97.1-.13,6.61-3.49,42.07,7.65,36.33,10.67-11.54,16.3-26.02,28.01-33.56,33.93-24.04,76.32-27.75,106.38-57.33,30.24-31.19,52.13-91.3,14.7-124.87-5.54-4.76-11.89-8.48-18.75-10.98-1.21-.38-2.01-.98-3.22-1.36,1.71-6.26,2.44-12.75,2.17-19.24,7.12-2.2,14.53-3.31,21.98-3.27,11.01-.13,22.43,1.53,33.21-1.01,18.57-4.03,33.19-19.62,38.37-37.89,1.53-5.82,3.84-13.06,3.76-20.06,9.3,7.3,19.39,14.18,30.84,17.84,16.47,4.6,37.06,2.55,43.43-16.34,3.86-12.06,.9-24.63-.24-36.62-1.1-7.99,1.36-19.83,2.84-29.66,.81,4.47,2.49,8.73,4.96,12.55,3.06,4.97,6.52,9.73,9.98,14.49-1.68,26.04-1.94,54.87,12.35,77.71-35.49-5.37-43.41,51.56-92.98,23.74-6.44-2.72-23.81-15.92-26.06-3.69-.55,3.81,1.08,6.99,2.33,10.38,3.3,8.39,7.85,16.22,13.49,23.25,17.06,20.41,46.46,35.46,73,28.33,9.38-2.32,18.09-9.83,23.84-14.3,6.85-4.88,14.44-8.61,22.48-11.07,16.35-5.4,33.93-7.42,48.44-16.4,3.34-2.19,6.4-4.78,9.11-7.72,2.36,13.38,11.53,26.28,31.29,38.25,26.79,13.89,53.3,21.37,74.78,43.52,3.64,3.16,10.97,13.48,15.84,19.02,6.09,6.93,10.45,3.68,11.75-4.55,9.22-31.94,10.79-66.98-3.99-97.62-6.8-16.13-17.83-34.61-22.21-48.97-2.76-13.18-2.49-23.39-1.65-37.41,1.76-20.19,7.8-39.78,17.72-57.46,3.52-6.85,8.85-13.12,13.17-19.37,9.82,17.09,11.69,39.29,8.09,56.74-5.7,25.09-19.79,51.48-9.07,77.16,4.35,12.36,12.7,23.66,25.95,26.9,7.23,2.31,15.24,2.22,22.27,5.13,4.03,1.44,7.88,3.34,11.48,5.66l1.81,.58c1.4-.39,2.21-1.84,1.82-3.24-.02-.06-.04-.12-.06-.18,3.16-3.64,5.42-14.88,6.8-17.09,16.08-44.03,40.57-70.74,23.93-122.58-2.04-6.6-4.52-13.06-7.44-19.32,4.59-.86,8.98-2.11,13.57-2.97,24.94-6.31,51.38-4.83,72.75,8.32,7.05,3.92,16.53,9.61,20.78,13.96,2.63,2.17,4.08,5.96,7.49,6.72,6.59-.88,1.08-9.62,.64-13.42-5.85-20.14-8.89-39.72-7.93-59.35,.18-34.83,19.21-66.28,28.8-100.42,6.84-29.7,.85-61.85-13.09-88.91-19.46-36.79-62.76-59.28-103.41-44.38l-6.36,3.28c-14.84-19.03-37.01-31.77-59.72-39.7-14.47-5.63-29.72-7.84-44.39-12.87-26.14-9.69-56.73-24.13-81.35-7.42,.39-1.21,.98-2.01,1.17-2.62,15.69-26.21,16.51-57.84,19.35-87.5,.57-14.43,3.02-28.72,7.29-42.52,.11,.22,.37,.31,.59,.2,0,0,.01,0,.02,0,9.39-1.32,18.26,4.18,29.09,5.65,9.78,.95,19.62,1.1,29.43,.44,2.27,5.38,4.53,10.75,7.99,15.51,8.14,10.91,19.24,18.78,31.72,24.43,27.97,12.27,40.68-11.9,52.85-32.26,4.52-6.86,12.27-11.36,20-17.85,7.74-6.42,14.11-14.32,18.73-23.25,7.44-13.9,10.03-31.34,3.84-46.28-4.52-9.75-14.97-13.43-24.62-16.51-14.86-4.42-29.9-6.24-44.38-11.87-10.45-3.68-19.93-9.37-30.97-12.23-8.43-2.7-17.64-1.99-26.23-1.08-9.2,2.02-18.57,3.14-27.98,3.34,5.33-22.88,9.63-47.75,23.25-63.33,12.03-14.76,29.97-20.98,48.17-21.8,2.71-.32,5.45,0,8.02,.9,7.78,14.12,17.55,28.21,33.62,33.02,11.46,4.66,25.84,2.29,34.55-6.22,1.43-1.78,2.62-3.75,3.53-5.85,6.88,23.13,21.45,35.76,46.64,33.86,7-.09,13.79-1.57,20.78-2.65,2.8-.43,5.99-1.07,8.18-2.7,4.76-3.46,5.27-11.27,.23-14.21-7.25-3.31-16.01,.19-23.4,1.48-8.18,1.7-13.36,4.37-19.59,2.04-9.66-4.09-18.19-14.79-26.69-22.49,12.97-3.16,24.49-10.1,31.96-21,8.29-9.31,17.65-13.62,30.22-16.58,11.78-2.55,24.54-6.1,32.63-15.81,11.41-15.95,11.51-41.17-3.67-54.99-22.66-20.54-49.53-8.2-48.76,22.61-.08,9.61,1.27,22-.85,28.63-3.1,8.64-10.62,15.54-20.36,21.06-8.16,3.7-16.52,8.01-22.04,14.88-.07-22.62-15.82-33.63-34.82-49.01-15.24-12.26-32.77-21.37-51.56-26.79-7.63-2.11-16.27-5.21-24.24-2.11-8.56,3.9-6.63,14.49-1.95,20.64,9.8,16.09,29.14,26.27,30.14,42.86,1.04,2.99-.5,7.81-.06,11.61-19.42-.57-39.75,6.89-52.77,21.65-17.98,18.83-21.07,45.09-26.78,69.17-15.6,.99-31.61,1.19-47.2,3.17-.6-.19-1,.01-1.59,.82-.5-.25-1.06-.31-1.6-.18-1.54,.57-2.33,2.29-1.75,3.83,.17,.46,.45,.86,.81,1.19,15.05,7.63,28.13,18.63,38.22,32.16-10.28,26.94-22.97,53.12-29.64,81.22-6.64,30.1-4.03,63.49-12.11,90.81-3.43,13.85-9.73,23.13-15.57,36.21,.59-.81-.19,.6-.98,2.01-1.72,1.72-3.05,3.78-3.93,6.05l-.6-.19c-30.74-9.83-61.48,13.56-87.58,22.48-8.57,2.91-17.96,4.22-24.95,5.31-7.59,.89-29,1.35-13.86,12.18,15.33,10.22,32.25,18.62,47.2,30.05,8.5,7.7,16.44,19.21,22.18,30.35,15.39,30.83,27.21,65.52,49.16,92.47-.19,.65-.19,1.35,.02,2,9.22,17.9,.85,36.82-17.25,46.64-8.35,4.3-21.35,5.46-31.49,11.19-28.97-12.26-60.54,8.54-76.26,32.75-6.06,11.68-8.1,25.32-8.54,38.13-.02,3.94,.16,7.88,.54,11.8-1.36-1.81-3.58-2.77-5.84-2.53-10.39,1.33-17.21,16.42-21.36,21.07-5.52,6.87-14.69,9.58-23.08,10.89,10.31-24.94,14.35-55.21,14.92-73.63-.07-6,1.45-12.83,.58-18.42,.77-.35,1.34-1.01,1.58-1.82,.55-3.81,9.29-9.32,13.02-15.77,4.51-7.86,5.8-17.08,5.69-26.09,.97-18.62-6.65-36.35-18.23-51.02-11-15.48-30.9-22.84-44.8-30.28-19.15-10.78-34.71-23.4-41.96-43.32-3.2-9.1-4.41-18.77-3.55-28.38,2.05-12.63,1.2-32.84-16.77-29.62-25.24,14.52-24.31,74.95-17.8,100.29,9.27,38.51,25.23,83.15,19.06,119.05-2.27,11.23-7.17,19.3-15.18,19.4-.6-.19-1.01,.01-1.6-.18-8.23-18.91-18.86-36.6-29.88-54.08-.82-1.59-1.83-2.58-2.65-4.17,4.08-5.92,7.36-12.35,9.78-19.13,3.22-8.64,5.53-17.58,6.88-26.7,2.18-1.63,.93-6.02,.7-8.41-1.15-12-7.28-22.93-12.02-34.08-7.81-17.11-8.25-36.53-15.68-54.85-9.85-20.09-29.47-36.67-52.11-38.59-1.8-.21-3.63-.12-5.4,.27-2.27-14.82-3.26-29.81-2.95-44.8,10.76-3.53,20.48-11.06,24.35-22.11,2.23-4.91,3.26-10.27,3.01-15.66,12.37-3.35,25.71-8.72,30.97-20.99,1.16-3.62,2.31-7.23,3.07-10.64,3.03,5.92,6.87,11.4,11.4,16.27,16.38,14.21,32.72-8.8,40.17-21.7,10.59-17.54,33.64-31.43,40.57-54.13,7.74-22.11,5.2-49.5-11.42-67.11-11.15-11.87-26.46-20.09-42.52-23.9-12.17-1.85-24.62-.31-35.97,4.44l-.4,.21c-9.31-5.91-19.95-9.42-30.95-10.23-16.03-1.81-30.96,5.38-46.31,9.77-4.33,.98-8.79,1.23-13.2,.76l-.6-.19c-.5-.25-1.06-.31-1.6-.18-6.57-13.73-13.14-27.46-18.92-41.6-4.94-11.55-10.09-23.49-14.84-35.64,6.97,.95,14.06,.38,20.79-1.65,10.97-3.13,19.44-14.04,18.5-25.64-.69-7.2-4.38-14.36-4.04-19.56-.25-4.4,3.51-7.85,6.83-14.09,5.08-10.67-.28-23.01-6.2-32.55-10-15.49-30.1-23.25-48.47-19.83-6.59,.88-11.21-.26-17.03-1.79,11.48-10.95,14.85-29.8,23.51-41.31,1.96-2.49,4.15-4.79,6.52-6.88-.32,1.12,.1,2.31,1.04,2.99,.06,.92,.35,1.81,.83,2.59,4.72,17.78,13.1,34.38,24.61,48.74,8.75,12.1,21.28,21.76,36.7,22.37,8.22,1.3,15.78-2.59,22.34-6.48,7.35-4.29,14.91-8.19,22.47-12.08,19.58-9.86,43.19-6.91,59.73,7.48,5.45,3.74,9.74,11.09,15.61,16.62,.85,1.43,2.7,1.9,4.13,1.05,1.01-.6,1.58-1.74,1.45-2.92-.42-1.79-2.24-3.38-3.06-4.96-10.39-15.29-18.04-35.01-29.65-51.68-15.07-21.43-31.55-43.65-53.94-57.79-14.91-8.42-32.56-11.41-49.57-11.21-17.15,.28-33.18,8.54-43.36,22.34-3.25,4.79-5.81,10.01-7.62,15.5-.72,.29-1.34,.79-1.78,1.42-14.49,9.98-17.5,25.63-24.94,39.53-3.92,7.05-6.87,11.09-12.63,14.56l-1.59,.82c-9.63-35.31-17.68-71.44-15.1-106.49,.12-1.82,.36-3.63,.73-5.41,2.8-.43,5.8-.47,8.39-1.3,10.18-2.72,16.07-11.8,18.95-21.84,4.64-13.46,5.05-29.28-3.7-41.39-1.42-1.78-3.67-5.16-5.88-6.53,.26-.71,.39-1.45,.38-2.21,7.05,3.92,14.02,.83,19.77-3.64l.2,.4c2.63,2.17,6.62,1.12,9.63,2.09,2.81,.57,10.63,2.07,13.06,3.84,7.65,4.11,10.92,9.47,16.01,16.42,4.48,5.72,10.41,10.14,17.17,12.8,14.9,7.42,32.91,7.21,40.87,19.72,6.32,9.33,10.5,24.29,18.83,34.6,4.48,5.62,9.5,10.79,15,15.43,2.83,2.57,6.27,5.33,10.08,5.88,9.82,.48,4.29-9.26,2.63-14.44-2.47-7.28-3.84-14.88-4.08-22.57-.56-12.8,6.71-24.1,6.34-38.51,.66-11.42-2.87-22.18-8.39-31.92-6.73-13.28-16.47-24.81-28.43-33.68-17.45-12.71-39.6-17.12-60.59-12.07-9.97,3.12-18.3,9.43-26.44,15.13-12.1,8.75-24.12,24.51-34.51,25.84-3.8,.45-3.81-.55-7.23-2.31,2.61-15.44,4.43-30.48,7.05-45.92,1.87-11.03,7.51-24.51,14.97-36.41,.6,.19,1.01-.01,1.8-.42,7.55-4.9,18.01-.22,29.66,2.84,20.86,3.35,42.67,3.69,42.35-23.33-.1-8-.82-18.2,.71-24.03,2.48-9.84,5.75-21.08,.63-31.03,8.33-6.31,16.86-12.21,25.6-17.72,14.84-9.01,30.58-16.44,46.96-22.19,6.04,2.93,12.09,6.86,18.71,7.98,12.84,2.45,29.63,.84,40.46,2.31,13.04,2.84,21.73,9.94,34.21,15.6,13.07,4.84,27.64,1.87,41.25,1.9,4.4-.25,14.02,.83,9.93-6.13-24.16-28.33-50.92-56.82-85.92-71.01-25.14-9.7-66.72-6.4-74.35,24.72,.11,9.01,3.79,15.16,5.08,22.55-4.34,1.63-8.59,3.49-12.74,5.56-18.47,8.68-35.93,19.37-52.07,31.86-5.1-7.94-12.99-14.45-20.65-19.56-8.48-5.7-16.75-11.01-26.59-14.49-19.3-7.17-40.77,4.9-55.9,11.69-6.03,2.95-12.65,4.46-19.36,4.44-5.4,.27-11.42-.66-15.78,2.59-7.53,5.9-5.8,17.08-1.9,24.64,2.66,5.17,8.31,8.31,13.54,10.64,8.25,3.3,22.24,2.13,28.26,3.06,7.62,1.11,12.66,4.05,16.32,9.21,1.53,2.37,2.26,5.16,2.1,7.98-.34,5.21-1.88,10.03-1.82,15.03-.72,6.42,1.96,12.58,5.62,17.74,.33,.7,.81,1.31,1.42,1.78-8.45,12.91-14.89,26.8-17.5,42.24-2.99,17.65-4.78,34.68-8.18,51.54-.79-.55-1.68-.94-2.62-1.17-20.32-9.16-47.66-34.85-73.3-20.12-12.34,5.35-21.38,19.07-30.11,25.58-17.07,11.82-35.63,15.84-54.56,6.47-15.29-6.22-19.36,4.44-11.4,16.95,6.32,9.33,15.22,16.83,24.9,22.92,7.67,5.11,15.93,9.41,25.53,9.5,14.6-.98,30.33-7.57,41.96-5.51,11.03,1.87,21.3,7.15,31.75,10.82,9.25,3.29,19.69,5.96,29.9,6.24-.37,1.78-.62,3.59-.73,5.41-1.38,17.83,.23,35.62,2.85,53.4,3,16.57,6.61,33.35,11.01,49.71-5.43-2.32-11.4-3.08-17.24-2.19-11.19,1.74-20.31,8.45-30.67,12.78-9.56,3.92-24.35,5.5-30.85-2.23-7.1-7.92-12.24-18.86-23.09-22.34-8.43-1.7-7.29,9.29-7.03,14.7,.31,9.4,4.82,18.15,9.53,26.3,7.59,13.36,18.13,24.8,30.83,33.45,15.54,10.62,30.21,15.64,45.93,24.66,12.51,8.65,24.85,18.91,39.32,24.54,7.17,3.13,14.65,5.52,22.3,7.14,3.71,9.16,7.63,18.72,11.35,27.88,13.38,30.86,28.35,59.9,39.13,90.59-19.25-3.17-38.49-5.34-56.63-15.12-10.07-4.88-23.15-11.73-33.86-19.8-12.53-9.66-37.61-31.96-45.71-6.65-3.04,13.65,2.34,27.99,10.08,39.11,10.78,14.08,24.75,27.52,31.33,42.25,12.87,37.67,21.41,81.6,53.18,111.03,12.55,11.66,26.32,24.7,44.15,26.08,3.7,.12,7.4-.26,10.99-1.13-.18,1.6,.04,3-.14,4.6,.16,13.07,1.32,26.1,3.47,38.99-29.58,3.16-57.38,21.51-76.12,43.75-21.39,28.25-38.55,59.47-50.91,92.68-3.86,12.05-11.51,24.56-7.55,37.12,3.53,10.76,15.43,18.23,26.85,18.89,8.61,.1,16.56-4,24.74-6.7,3.12-1.18,6.32-2.16,9.57-2.92-1.33,9.47-5.01,18.46-10.7,26.15-8.46,11.91-21.52,24.68-28.74,39.98-14.76-8.81-32.66-10.65-48.89-5.01-20.93,7.26-35.11,25.64-50.95,39.85-9.69,9.52-16.62,15.61-30.2,17.58-12.19,1.75-32.43-.41-46.58,4.37-14.56,3.98-24.63,15.71-30.47,28.79-16.22,32.02-14.57,69.43-14.14,104.45,1.4,33.01,1.01,66.43,6.21,98.99,2.54,11.78,3.72,25.77,8.65,36.32,9.56,12.69,16.49-10.02,19.04-13.85h0Zm771.11-811.13c5.73,10.14,10.06,20.49,14.99,31.04,4.71,9.15,9.62,17.7,13.54,27.25,1.33,2.69,2.43,5.49,3.3,8.37-10.8,.53-22.81,.68-31.44-1.42-7.42-1.71-14.88-5.42-22.68-4.93-.33,.11-.68,.12-1.01,.01,6.36-19.89,15.13-40.01,23.29-60.33Zm-59.87,212.08c1.31-.77,2.29-1.99,2.76-3.44,20.76-21.27,48.7-11,78.87,.64,18.9,7.38,39.14,9.53,57.45,17.72,15.08,5.82,32.43,17.02,42.76,27.3,2.23,2.13,4.27,4.45,6.09,6.93-16.48,10.01-29.32,25.17-34.69,44.05-11.62,32.16-11.17,69.18-18.6,99.7-6.34,21.9-16.31,41.63-31.52,58.02-11.64-18.67-30.03-17.25-49.57-11.21-9.78,2.52-17.17,3.81-22.04-1.73-3.65-4.15-5.91-9.53-8.79-15.1,1.41,.78,3.22,1.36,4.63,2.14,10.04,2.88,21.04,1.75,31.02-.38,22.13-6.87,31.63-32.41,34.58-53.06,.47-5.87-.49-11.77-2.81-17.18,3.91-.61,7.68-1.87,11.16-3.74,7.35-4.29,12.87-11.16,18-17.83,12.2-17.37,14.93-39.41,9.88-59.96-10.73-43.3-46.53-57.07-87.77-57.98-14.02-.83-29.1-6.65-43.78-12.68,1.78-1.42,1.98-2.02,2.38-2.23h0Zm-49.78,252.18c10.17-2.73,20.55-5.05,28.47-12.15,8.66-7.6,14.17-18.16,15.45-29.61,.19-3.23-.12-6.46-.92-9.6,1.01,.99,2.02,1.98,3.24,3.36-4.23,14.26-5.45,29.49-6.26,44.51-.3,8.21,.2,16.01,3.69,23.77,.21,.4-.19,.6,.01,1.01,7.39,15.32,23.17,29.34,30.92,41.45,8.82,17.11,1.67,38.41-9.37,52.15-12.03,14.76-27.1,26.55-41.55,39.53l-.61-1.19c-2.47-4.6-5.78-8.7-9.75-12.09-14.97-13.43-35.61-15.38-49.96-26.61-6.46-4.73-9.37-13.3-5.63-18.75,.4-.21,.59-.81,.99-1.01,2.18-1.63,4.57-2.86,6.75-4.48,17.29-10.42,35.93-24.05,39.28-44.91,1.17-10.4,.85-20.91-.98-31.21-1-4.79-2.26-9.52-3.77-14.17h0Zm-370.95,125.19c1.75-.59,3.56-1.01,5.39-1.27,5.8-.47,8.81,.49,14.64,2.02,14.67,5.02,30.4,15.04,46.69,21.25q-.4,.21-.59,.81c-4.24,13.26-13.95,21.79-28.71,25.37-11.98,2.14-20.89,10.26-27.38,20.15-1.73,2.38-3.31,4.87-4.71,7.46,1.35-4.22,3.1-8.64,4.45-12.86,3.12-11.76,3.66-24.06,1.56-36.04-1.71-9.19-6.03-18.55-11.33-26.88h0Zm-67.34-122.87c6.5-8.89,9.38-18.93,10.85-29.75,3.59-.85,7.39-1.29,10.58-1.93,18.59-2.03,34.06,2.59,48.21,14.43,10.72,9.08,23.22,16.74,37.43,16.96,17.39-1.41,31.89-11.39,42.13-24.73,13.67,21.64,26.74,43.11,36.05,68.01,5.16,12.95,8.51,25.32,12.07,38.08-3.24,1.74-6.94,2.42-10.58,1.93-6.81-.52-16.88-5.4-25.11-7.7-25.91-7.29-53.28-3.76-78.4,4.15-12.36,4.35-25.46,13.12-35.25,14.64-1.14,0-2.27,.07-3.4,.24-20.24-2.16-40.75-9.71-52.37-27.38-5.5-7.74-9.61-16.7-16.89-23.01-1.62-1.18-3.23-2.36-5.05-3.94,7.43-13.9,19.3-25.06,29.73-39.99h0Z"/>
  <path class="cls-3" d="M433.35,2881.03c4.46,31.59,19.31,64.04,39.66,95.43,26.16,40.33,60.53,79.26,87.21,112.43,23.46,29.78,48.27,58.1,74.02,85.42,25.85,27.4,52.94,53.45,81.18,78.49,37.53,33.47,77.24,64.42,118.86,92.65,98.1,66.2,211.05,118.96,344.35,153.49,13.97,3.18,27.88-5.56,31.06-19.54,3.18-13.97-5.56-27.88-19.54-31.06h0c-129.87-25.95-242.2-69.09-339.05-128.86-41.66-25.56-81.04-54.64-117.72-86.93-27.46-24.35-53.36-50.4-77.55-78.01-24.08-27.64-46.75-56.49-67.89-86.44-23.56-33.82-54.61-73.49-76.93-114.32-14.22-26.06-24.5-52.53-25.95-77.8-1.46-14.27-14.21-24.65-28.48-23.19-14.18,1.45-24.54,14.05-23.22,28.24h0ZM1200.09,399.37c21.49-16.93,45.68-30.08,71.22-40.57,39.97-16.44,83.05-26.74,124.26-35.22,95.51-19.42,194.65-23.87,290.57-9.31,96.03,14.57,188.52,48.02,270.85,102.99,68.72,46.56,129.66,103.66,191.22,159.49,41.84,38.07,83.98,75.58,129.46,108.57,48.9,35.61,101.53,66.11,161.22,86.8,49.31,17.23,99.04,25.26,148.97,29.09,113.57,8.71,228.28-5.57,341.54,18.81,46.82,10.15,89.59,27.9,129.77,50.3,61.87,34.47,117.62,80.03,172.74,126.7,11.02,9.17,27.38,7.68,36.56-3.33,9.17-11.02,7.68-27.38-3.33-36.56-.07-.06-.14-.11-.21-.17-58.86-47.11-118.45-92.79-183.96-127.01-44.64-23.28-91.77-41.4-143.26-51.16-115.65-22.09-231.92-5.12-347.57-11.48-47.23-2.59-94.36-9.25-141.29-24.59-57.1-18.84-107.65-47.05-154.68-80.4-44.95-31.87-86.68-68.24-127.79-105.58-62.5-56.73-123.54-115.62-192.99-163.48-85.02-59.36-181.36-95.94-281.54-113.74-99.97-17.76-203.89-16.65-304.38,.71-44.33,7.54-90.63,17.14-133.92,33.2-30.31,11.23-59.07,25.76-84.92,44.68-11.4,8.69-13.6,24.97-4.91,36.37,8.69,11.4,24.97,13.6,36.37,4.91h0Z"/>
  <path class="cls-2" d="M2169.04,1234.92c-.03-92.92-75.33-168.24-168.25-168.31H759.47c-92.92,.06-168.22,75.39-168.25,168.31v1753.51c.03,92.92,75.33,168.25,168.25,168.32H2000.8c92.92-.07,168.22-75.4,168.25-168.32V1234.92Z"/>
  <g class="cls-20">
    <g>
      <path class="cls-4" d="M2356.16,1340.73v-241.39c0-18.07-18.13-32.73-40.42-32.73H444.56c-22.28,0-40.42,14.66-40.42,32.73v241.39c0,18.06,18.14,32.73,40.42,32.73h1871.18c22.28,0,40.42-14.67,40.42-32.73h0Z"/>
      <circle class="cls-17" cx="766.43" cy="1220.03" r="41.57" transform="translate(-408.54 386.17) rotate(-22.5)"/>
      <circle class="cls-17" cx="898.15" cy="1220.03" r="41.57"/>
      <circle class="cls-17" cx="1033.86" cy="1220.03" r="41.57"/>
    </g>
  </g>
  <circle class="cls-16" cx="1048.98" cy="1825.6" r="286.07"/>
  <g class="cls-19">
    <path class="cls-5" d="M765.21,1967.5c140.25-222.88,205.03-234.96,283.72-146.35,78.79,88.61,102.88,114.66,192.88,73.78,89.9-40.88,131.84,3.43,159.56,64.51,27.72,61.08-342.79,228.25-411.31,226.9s-365.22,4.03-224.86-218.84h0Z"/>
  </g>
  <circle class="cls-24" cx="1210.06" cy="1669.2" r="100.52"/>
  <g>
    <path class="cls-13" d="M1323.66,2338.32c.05-13.88-11.16-25.16-25.04-25.21-.07,0-.14,0-.21,0h-453.41c-13.88-.01-25.14,11.23-25.15,25.1,0,.04,0,.07,0,.11v.02c-.05,13.87,11.16,25.16,25.03,25.21h453.53c13.87,.08,25.17-11.11,25.25-24.98,0-.08,0-.15,0-.23v-.02Z"/>
    <path class="cls-8" d="M2094.19,1872.97c-.03-41.96-34.06-75.96-76.02-75.95h-524.6c-41.91,0-75.88,33.97-75.88,75.88v.09c-.04,41.9,33.9,75.89,75.8,75.93h524.67c41.96,.02,75.99-33.97,76.02-75.93v-.02Z"/>
    <path class="cls-13" d="M1292.14,2690.09c0-13.91-11.26-25.19-25.17-25.21h-436.01c-13.91,.02-25.17,11.31-25.17,25.21v.02c0,13.91,11.26,25.18,25.17,25.21h436.02c13.91-.02,25.17-11.3,25.17-25.21v-.02Zm595.61-2.85c0-13.91-11.26-25.19-25.17-25.21h-436.01c-13.91,.02-25.17,11.3-25.17,25.21v.02c0,13.91,11.26,25.18,25.17,25.21h436.02c13.91-.02,25.17-11.3,25.17-25.21v-.02Zm-.03-255.37c.03-6.68-2.61-13.1-7.34-17.82-4.76-4.73-11.2-7.38-17.91-7.39H845.11c-6.71,0-13.15,2.66-17.91,7.39-4.73,4.72-7.37,11.14-7.34,17.82v.02c-.03,6.68,2.62,13.1,7.34,17.82,4.76,4.73,11.2,7.38,17.91,7.38h1017.37c6.71,0,13.15-2.65,17.91-7.38,4.72-4.73,7.36-11.14,7.34-17.82v-.02Zm-595.6,351.77c0-13.91-11.26-25.19-25.17-25.21h-436.01c-13.91,.02-25.17,11.3-25.17,25.21v.02c0,13.91,11.26,25.18,25.17,25.21h436.02c13.91-.02,25.17-11.3,25.17-25.21v-.02Zm595.61-2.84c0-13.91-11.26-25.19-25.17-25.21h-436.01c-13.91,.02-25.17,11.31-25.17,25.21v.02c0,13.91,11.26,25.18,25.17,25.2h436.02c13.91-.02,25.17-11.3,25.17-25.2v-.02Zm-.03-249.69c.03-6.68-2.61-13.1-7.34-17.82-4.76-4.73-11.2-7.38-17.91-7.39H845.11c-6.71,0-13.15,2.66-17.91,7.39-4.73,4.72-7.37,11.14-7.34,17.82v.02c-.03,6.68,2.62,13.1,7.34,17.83,4.76,4.73,11.2,7.38,17.91,7.38h1017.37c6.71,0,13.15-2.65,17.91-7.38,4.72-4.73,7.36-11.14,7.34-17.83v-.02Zm-595.6,351.77c0-13.91-11.26-25.19-25.17-25.21h-436.01c-13.91,.02-25.17,11.31-25.17,25.21v.02c0,13.91,11.26,25.18,25.17,25.21h436.02c13.91-.02,25.17-11.3,25.17-25.21v-.02Zm595.61-2.84c0-13.91-11.26-25.19-25.17-25.21h-436.01c-13.91,.02-25.17,11.31-25.17,25.21v.02c0,13.91,11.26,25.18,25.17,25.2h436.02c13.91-.02,25.17-11.3,25.17-25.2v-.02Z"/>
  </g>
  <path class="cls-1" d="M3153.37,1362.63c99.65,0,172.3,91.75,158.12,216.3-10.07,88.26-117.79,180.15-224.39,224.19-92.07,38.05-92.56-101.16-92.56-226.51s59.25-213.98,158.83-213.98h0Z"/>
  <path class="cls-7" d="M3077.37,2025.04c95.81,221.98-546.16,933.19-760.17,914.94-214.05-18.35-524.08-1024.82-524.08-1024.82l-90.19-118.13,237.93,30.11-16.56,32.3s335.55,584.15,426.75,627.88c45.34,21.77,163.55-335.8,414.46-477.97,273.6-154.9,257.07-111.29,311.87,15.69Z"/>
  <g class="cls-18">
    <path class="cls-6" d="M2478.61,2173.31c70.66-10.18,187.66,8.88,227.76,74.3,22.99,37.49,15.44,82.15,26.42,123.18,24.44,91.45,109.68,179.33,210.17,175.7,122.98-4.34,162.91-168.88,186.21-262.38,31.24-125.87,62.18-287.33-43.22-387.45-18.83-17.91-40.45-32.08-63.67-43.49-30.83-15.02-63.73-25.33-97.62-30.59-42.28-6.78-86.34-7.07-128.57,.5-69.42,12.58-133.97,47.9-187.67,92.93-69.59,58.56-120.3,130.77-160.59,211.74l30.78,45.55Z"/>
  </g>
  <path class="cls-14" d="M3216.91,1866.41c336.12,29.57,449.73,37.01,431.76,658.46-18.14,633.74-850.8,611.49-850.8,611.49,0,0,122.27-396.39,24.08-734.4-118.7-408.03,157.55-556.45,394.97-535.55h0Z"/>
  <path class="cls-12" d="M2395.21,1716.32c-.02-61.17-49.6-110.75-110.77-110.78h-630.04c-61.19,0-110.79,49.6-110.79,110.79s49.6,110.79,110.79,110.79h630.04c61.17-.03,110.75-49.62,110.77-110.8Z"/>
  <path d="M1708.14,1667.99v16.33c-3.94-.76-7.93-1.17-11.94-1.21-10.59,0-18.38,2.26-23.36,6.78-4.98,4.53-7.89,12.15-8.51,22.89h.83c4.25-7.38,11.42-11.07,21.49-11.07,8.62,0,15.47,2.71,20.55,8.13,5.09,5.42,7.58,12.84,7.58,22.25,0,10.32-2.91,18.47-8.72,24.45-5.81,5.99-13.81,8.98-23.88,8.98-6.61,.16-13.12-1.67-18.69-5.25-5.47-3.7-9.67-8.98-12.04-15.15-2.7-6.6-4.05-14.56-4.05-23.89,0-17.78,3.95-31.25,12.04-40.37s20.04-13.7,35.92-13.7c4.27-.05,8.54,.24,12.77,.85h0Zm-11.21,64.58c0-5.01-1.25-8.87-3.74-11.56-2.59-2.7-6.23-4.05-11-4.05-4.29-.14-8.48,1.34-11.73,4.15-2.97,2.29-4.72,5.8-4.78,9.55-.18,4.87,1.41,9.64,4.46,13.44,5.77,6.6,15.79,7.28,22.39,1.51,.12-.1,.23-.2,.34-.31,2.7-2.81,4.05-7.06,4.05-12.74h0Zm107.76-18.8v.49c15.26,1.9,22.94,9.54,22.94,22.92,0,8.81-3.22,15.73-9.86,20.76-6.54,5.03-15.99,7.56-28.24,7.56-10.49,0-19.62-1.73-27.41-5.18v-17.03c8.18,4,17.16,6.13,26.27,6.25,6.95,0,12.14-1.09,15.57-3.27,3.44-2.16,5.43-6.02,5.19-10.07,0-5.07-1.97-8.64-5.82-10.71s-9.97-3.12-18.48-3.12h-8.11v-14.97h7.68c7.47,0,13.08-.97,16.92-2.91,3.84-1.94,5.81-5.37,5.81-10.29,.13-3.12-1.17-6.12-3.53-8.16-2.28-1.94-5.91-2.92-10.8-2.92-3.59,.01-7.16,.58-10.59,1.67-3.88,1.31-7.58,3.11-11.01,5.36l-9.03-13.69c9.46-6.03,20.44-9.26,31.66-9.3,9.76,0,17.44,2.05,23.05,6.15,5.45,3.79,8.62,10.08,8.41,16.71,.12,5.54-1.81,10.93-5.4,15.15-3.52,4.13-8.72,7.01-15.25,8.62h0Zm117.82-.14c7.06,3.68,12.15,7.63,15.36,11.81,7.83,10.31,5.83,25.01-4.46,32.86-6.23,4.81-14.33,7.21-24.19,7.21-10.59,0-18.89-2.27-24.81-6.81-5.81-4.55-8.82-10.84-8.82-18.88-.08-5.26,1.52-10.4,4.57-14.69,2.91-4.2,7.58-7.83,13.81-10.86-10.28-6.39-15.47-14.38-15.47-23.98-.15-6.71,3.08-13.05,8.62-16.86,5.71-4.18,13.08-6.28,22.11-6.28,9.03,0,16.4,2.08,22.01,6.22,5.52,3.9,8.72,10.31,8.51,17.07,0,9.94-5.82,17.67-17.23,23.21h0Zm-13.29-7.8c4.88-2.03,8.2-4.15,10.07-6.35,1.84-2.11,2.83-4.83,2.8-7.63,.12-2.87-1.21-5.61-3.53-7.31-2.8-1.92-6.16-2.86-9.55-2.7-3.28-.14-6.52,.79-9.24,2.63-2.35,1.71-3.68,4.48-3.53,7.38-.03,2.81,1.01,5.53,2.91,7.6,2.9,2.77,6.33,4.94,10.07,6.38h0Zm-1.14,16.11c-9.97,4.2-14.95,9.79-14.95,16.75-.16,3.48,1.39,6.82,4.15,8.93,2.7,2.18,6.64,3.27,11.63,3.27s9.14-1.06,11.94-3.15c2.78-2.09,4.34-5.43,4.15-8.91-.07-3.06-1.29-5.97-3.43-8.16-2.39-2.56-6.23-5.15-11.52-7.74l-1.97-.99Zm149.28,42.15h-66.75v-14.12l24.81-24.55c9.24-9.18,15.05-15.54,17.34-19.09,2.22-3.25,3.45-7.07,3.53-11,.18-3.21-1.08-6.34-3.43-8.54-2.46-2.16-5.66-3.27-8.93-3.09-3.78,0-7.52,.76-11,2.23-4.44,2.01-8.59,4.6-12.35,7.7l-10.28-12.84c3.79-2.95,7.78-5.65,11.94-8.05,3.18-1.75,6.56-3.09,10.07-4.01,3.96-1.07,8.05-1.6,12.15-1.57,9.03,0,16.3,2.46,21.8,7.38,5.43,4.72,8.48,11.62,8.31,18.81,0,4.57-.91,9.1-2.7,13.31-2.04,4.64-4.81,8.93-8.2,12.7-5.29,5.97-10.9,11.64-16.82,16.99l-11.21,10.43v.78h41.73v16.55Zm52.95,.57v-16.39c3.91,.9,7.92,1.33,11.94,1.28,10.69,0,18.58-2.33,23.67-6.99,5.09-4.66,7.79-12.42,8.2-23.24h-.83c-2.49,4.31-5.4,7.3-8.93,8.98-4.05,1.79-8.45,2.66-12.87,2.52-8.72,0-15.57-2.73-20.45-8.19-4.98-5.47-7.47-13.1-7.47-22.89s2.91-18.02,8.82-23.85c5.82-5.81,13.81-8.73,23.67-8.73,10.8,0,19.31,3.83,25.54,11.5,6.33,7.66,9.45,18.57,9.45,32.72,0,17.65-4.05,31.08-12.04,40.31-7.99,9.23-19.93,13.84-35.82,13.84-4.31,.05-8.61-.24-12.87-.87h0Zm11.11-65.22c0,10.73,4.88,16.11,14.53,16.11,4.36,.14,8.62-1.35,11.94-4.18,2.95-2.28,4.71-5.78,4.78-9.51,.1-4.77-1.48-9.42-4.46-13.13-5.61-6.66-15.55-7.51-22.21-1.9-.21,.18-.42,.37-.63,.56-2.6,2.83-3.95,6.85-3.95,12.06h0Zm130.49,66.07c-11.01,0-19.31-4.14-24.92-12.42-5.61-8.28-8.41-20.46-8.41-36.55,0-16.65,2.8-29.05,8.31-37.19,5.5-8.14,13.91-12.21,25.02-12.21,22.21,0,33.43,16.42,33.43,49.26,0,17.08-2.8,29.52-8.2,37.36-5.5,7.83-13.91,11.74-25.22,11.74h0Zm0-15.97c5.4,0,9.24-2.59,11.52-7.78,2.39-5.18,3.53-13.63,3.53-25.36s-1.14-20.45-3.53-25.59c-2.28-5.13-6.12-7.7-11.52-7.7-3.41-.18-6.72,1.18-9.03,3.7-2.18,2.46-3.74,6.1-4.67,10.93-.97,6.22-1.42,12.51-1.35,18.8,0,11.64,1.25,20.04,3.52,25.23,2.39,5.18,6.24,7.77,11.53,7.78h0Z"/>
  <path class="cls-11" d="M1890.34,1827.11c-1.04-12.35,25.64-55.03,36.75-61.61,10.7-6.31,28.76,9.8,29.9,22.15,1.04,12.35-12.46,45.38-23.56,51.95-11.11,6.57-42.04-.14-43.08-12.48Z"/>
  <path class="cls-15" d="M3163.91,1362.63s21.8,48.18,6.02,86.15c-4.15,10.02-13.91,17.34-21.8,24.59-20.24,18.4-45.68,28.19-67.58,43.82-6.54,4.59-20.45,13.49-19.62,23.04,1.14,11.14,23.05,5.91,29.07,4.11,23.67-7.08,42.36-15.46,55.13,3.82,12.98,19.68,2.59,68.09-10.8,100.89-2.39,5.81-13.18,30.45-.83,32.92,7.99,1.57,15.05-7.7,19.41-12.91,12.56-15.3,15.88-67.52,28.34-82.99,5.81-7.16,14.74-15.33,23.05-2.41,25.54,39.89-.21,80.95-28.65,94.63-34.26,16.55-38.62,99.95-38.62,99.95,0,0,74.33,23.29,97.38-36.52,40.8,14.2,118.14,4.46,117.62-74.17,73.29-30.39,106.93-145.41,38.2-185.2,9.97-4.85,16.09-19.02,18.79-28.83,28.13-99.16-87.82-210.38-197.04-148.19-24.09,13.7-41.64,31.37-48.07,57.31h0Z"/>
  <circle class="cls-23" cx="2136.84" cy="3361.43" r="371.9"/>
  <path class="cls-2" d="M1918.96,3393.91l123.12,153.55c17.94,22.37,50.61,25.97,72.98,8.03,3.9-3.12,7.32-6.79,10.17-10.9l229.95-331.35c16.34-23.56,10.49-55.92-13.07-72.26-23.56-16.34-55.92-10.49-72.26,13.07l-190.29,274.2-79.62-99.3c-18.04-22.27-50.72-25.7-72.99-7.66-22.11,17.92-25.67,50.3-7.98,72.59h0Z"/>
  <path class="cls-9" d="M3485.05,1937.35c240.85,21.14,592.15,869.33,444.01,1103.55-148.24,234.22-1083.29,258.41-1333.06,301.77-189.77,165.77-267.32-40.44-240.12-40.72,120.84-1.21,117.62-98.13,117.62-98.13,0,0,1.97-10.14-32.18-51.38,37.68-26.51,121.88,50.04,121.88,50.04,0,0,901.82-346.91,983.63-406.39,40.7-29.56-213.34-303.56-223.72-591.76-3.53-98.79,24.19-279.08,161.95-266.99h0Z"/>
  <g class="cls-22">
    <path class="cls-10" d="M3331.09,2534.67c24.6-67.01,96.96-160.92,173.58-165.12,43.92-2.42,79.62,25.43,120.94,35.27,92.08,21.93,209.91-11.33,254.45-101.48,54.61-110.28-71.22-223.57-142.43-288.49-95.92-87.29-223.3-191.21-361.48-146.02-24.71,8.07-47.44,20.36-68.52,35.38-27.86,19.99-52.57,44.05-73.29,71.37-26.06,33.99-47.24,72.62-60.63,113.37-21.91,67.06-21.49,140.65-7.37,209.29,18.48,89.05,57.93,167.98,110.04,241.89l54.71-5.45Z"/>
  </g>
</svg>